<svg xmlns="http://www.w3.org/2000/svg" viewBox="0 0 500 500"><g id="freepik--background-complete--inject-2"><rect x="147.95" y="57.79" width="8.96" height="44.58" transform="translate(-0.43 0.82) rotate(-0.31)" style="fill:#e0e0e0"></rect><rect x="70.29" y="57.94" width="23.2" height="24.61" transform="translate(-0.37 0.44) rotate(-0.31)" style="fill:#ebebeb"></rect><rect x="93.38" y="57.82" width="23.2" height="24.61" transform="translate(-0.37 0.56) rotate(-0.31)" style="fill:#f5f5f5"></rect><path d="M70.26,64.8c15.41.13,30.87,0,46.28-.21a.25.25,0,0,0,0-.5c-15.41-.08-30.87,0-46.28.29a.21.21,0,0,0,0,.42Z" style="fill:#e0e0e0"></path><rect x="55.81" y="82.19" width="42.15" height="20.05" transform="translate(-0.49 0.41) rotate(-0.31)" style="fill:#ebebeb"></rect><rect x="97.76" y="81.96" width="42.15" height="20.05" transform="translate(-0.49 0.64) rotate(-0.31)" style="fill:#f5f5f5"></rect><path d="M55.79,87.88c28,.32,56.1,0,84.09-.42a.25.25,0,0,0,0-.49c-28-.15-56.1-.13-84.09.49a.21.21,0,0,0,0,.42Z" style="fill:#e0e0e0"></path><rect x="40.03" y="102.36" width="163.29" height="7.18" style="fill:#e0e0e0"></rect><rect x="66.76" y="105.81" width="6.63" height="24.52" style="fill:#e0e0e0"></rect><rect x="165.72" y="105.81" width="6.63" height="24.52" style="fill:#e0e0e0"></rect><rect x="156.73" y="41.16" width="8.96" height="61.31" transform="translate(-0.38 0.86) rotate(-0.31)" style="fill:#ebebeb"></rect><rect x="165.74" y="52.59" width="13.92" height="49.68" transform="translate(-0.41 0.93) rotate(-0.31)" style="fill:#f5f5f5"></rect><path d="M179.43,62.12a48.25,48.25,0,0,1-7,.25,48.37,48.37,0,0,1-7-.25,51.21,51.21,0,0,1,7-.24A51.09,51.09,0,0,1,179.43,62.12Z" style="fill:#e0e0e0"></path><path d="M179.43,60a51.09,51.09,0,0,1-7,.24,51.21,51.21,0,0,1-7-.24,49.33,49.33,0,0,1,7-.24A49.22,49.22,0,0,1,179.43,60Z" style="fill:#e0e0e0"></path><path d="M179.43,94.76a51.09,51.09,0,0,1-7,.24,51.21,51.21,0,0,1-7-.24,51.21,51.21,0,0,1,7-.24A51.09,51.09,0,0,1,179.43,94.76Z" style="fill:#e0e0e0"></path><path d="M179.43,92.67a49.22,49.22,0,0,1-7,.24,49.33,49.33,0,0,1-7-.24,51.21,51.21,0,0,1,7-.24A51.09,51.09,0,0,1,179.43,92.67Z" style="fill:#e0e0e0"></path><path d="M172.7,88.12c-.14,0-.24-5-.24-11.2s.1-11.19.24-11.19.24,5,.24,11.19S172.83,88.12,172.7,88.12Z" style="fill:#e0e0e0"></path><rect x="179.58" y="64.75" width="15.15" height="37.5" style="fill:#ebebeb"></rect><path d="M163.49,51.61A2.58,2.58,0,1,1,160.92,49,2.57,2.57,0,0,1,163.49,51.61Z" style="fill:#e0e0e0"></path><rect x="160.12" y="58.69" width="1.59" height="36.47" style="fill:#e0e0e0"></rect><rect x="106.26" y="308.03" width="115.36" height="212.94" transform="translate(-250.55 578.44) rotate(-90)" style="fill:#ebebeb"></rect><path d="M270.41,356.81s-.17.15-.53.42l-1.6,1.19L262.1,363l-22.76,16.61L164.1,434.22h0l-.16.11-.15-.11c-29.38-21.34-56-40.65-75.24-54.65-9.61-7-17.38-12.68-22.77-16.61l-6.17-4.54c-.7-.51-1.23-.91-1.6-1.19l-.54-.42s.2.12.57.38l1.63,1.15,6.23,4.46,22.86,16.47L164.1,433.8h-.3l75.32-54.52L262,362.8l6.23-4.46,1.63-1.15Z" style="fill:#e0e0e0"></path><path d="M389.65,396.38a27.42,27.42,0,0,0-11.73-4c-1.91-.2-4-.14-5.54,1a1.11,1.11,0,0,0-.57,1,1.19,1.19,0,0,0,.54.69,16.76,16.76,0,0,0,17.3,1.31" style="fill:#e0e0e0"></path><path d="M389.35,396.05a57.83,57.83,0,0,1-7.57-6.66A19.18,19.18,0,0,1,377,380.6a3.53,3.53,0,0,1,.37-2.94c6,4.72,10.79,10.82,12,18.39" style="fill:#e0e0e0"></path><path d="M389.59,396.34a27.49,27.49,0,0,1,.14-9.95,13.47,13.47,0,0,1,5.3-8.2c1,2.43.59,5.24-.14,7.79A38.11,38.11,0,0,1,389.64,397" style="fill:#e0e0e0"></path><path d="M395.51,407a17.33,17.33,0,0,0-9.41,4.76,17.81,17.81,0,0,0-5.38,9.23c3.53-.22,6.52-2.7,8.69-5.49s3.67-5.84,6-8.45" style="fill:#e0e0e0"></path><path d="M396.8,408.64a23.18,23.18,0,0,1,2.67-21.94c2,7.28,1.3,15.51-2.67,21.94" style="fill:#e0e0e0"></path><path d="M404.62,418a16.76,16.76,0,0,0-16,9.23c-.2.4-.38.9-.11,1.26a1.2,1.2,0,0,0,1.06.31c3.16-.21,6-2.11,8.28-4.27s4.32-4.67,6.88-6.54" style="fill:#e0e0e0"></path><path d="M404.37,417.45a29.89,29.89,0,0,1-.3-16.69c.59-2.15,1.57-4.41,3.56-5.42a.72.72,0,0,1,.55-.09.75.75,0,0,1,.34.4,10,10,0,0,1,.84,4.78,29.47,29.47,0,0,1-.75,4.85c-.63,3-1,6.15-2.58,8.7a17.65,17.65,0,0,0-1,1.91c-.3.65-.31.88-.59,1.4" style="fill:#e0e0e0"></path><path d="M425.07,420.53a21.55,21.55,0,0,1,3.77-17.69c.27-.35.63-.73,1.07-.69.68.07.86,1,.83,1.65a32,32,0,0,1-5.67,16.73" style="fill:#e0e0e0"></path><path d="M426.94,421.81a25.72,25.72,0,0,0,21.11-4.3,17.11,17.11,0,0,0-11.43-1.4,16.31,16.31,0,0,0-9.68,5.7" style="fill:#e0e0e0"></path><path d="M428.51,417.92a24.42,24.42,0,0,1,19.17-11.08,11.82,11.82,0,0,1-6.27,6.93,34.67,34.67,0,0,1-9.2,2.69c-1.22.24-2.9.5-3.7,1.46" style="fill:#e0e0e0"></path><path d="M425.47,399.07a56.36,56.36,0,0,0,2.45-11.22,18.68,18.68,0,0,0-2.24-11.1,24.45,24.45,0,0,0-.33,22.71" style="fill:#e0e0e0"></path><path d="M438,392.76c4.34-7.88,13.19-14.18,22.14-15.06-3.45,8.6-12.87,15.25-22.14,15.06" style="fill:#e0e0e0"></path><path d="M435.22,394.31c6.47,1,12,5.11,18,7.62a8.13,8.13,0,0,0,4.07.78,3.19,3.19,0,0,0,2-5.64,8.89,8.89,0,0,0-3-1.8c-6.59-2.74-13.65-2.81-20.58-1.15" style="fill:#e0e0e0"></path><path d="M431.48,398.84c1.46.42,2,1.18,3.12,2.17a33.84,33.84,0,0,0,13.67,7c.52.13,1.21.18,1.47-.29s-.06-.91-.36-1.28a18.72,18.72,0,0,0-8.25-5.6c-3.15-1.18-5.89-2.59-9.65-2.29" style="fill:#e0e0e0"></path><path d="M427.26,371.45a25.86,25.86,0,0,0,19.83,6.74,1.36,1.36,0,0,0,.9-.32c.5-.54-.1-1.38-.68-1.84-5.83-4.54-12.89-6.43-20.05-4.58" style="fill:#e0e0e0"></path><path d="M432.26,369.61A27.67,27.67,0,0,1,457,365.53a19.71,19.71,0,0,1-11.79,5.18,37.31,37.31,0,0,1-13-1.1" style="fill:#e0e0e0"></path><path d="M430.27,357c-.57-5.82-.2-10.41-.6-16.25,0-.47-.13-1-.57-1.2-.61-.24-1.12.51-1.32,1.13a18.65,18.65,0,0,0,2.49,16.2" style="fill:#e0e0e0"></path><path d="M429.86,357.67a34.23,34.23,0,0,0,9.63-9.37c1.91-2.61,3.51-5.73,3.08-8.92a9.21,9.21,0,0,0-6.95,3.45,19.51,19.51,0,0,0-3.55,7.13c-.77,2.56-1.31,5.19-2.21,7.71" style="fill:#e0e0e0"></path><path d="M439.33,355a78.07,78.07,0,0,0,23.72-14c-2.84-1.14-6.08-.46-8.91.68A28.16,28.16,0,0,0,439.2,355" style="fill:#e0e0e0"></path><path d="M432.52,360.85a48,48,0,0,0,13.17.06,55.68,55.68,0,0,0,12.3-4.08,1.42,1.42,0,0,0,.83-.64,1,1,0,0,0-.3-1.05,2.6,2.6,0,0,0-1-.49,22.76,22.76,0,0,0-13.28.79,61.48,61.48,0,0,0-11.67,5.41" style="fill:#e0e0e0"></path><path d="M407.51,371.64a23.32,23.32,0,0,1-.21-19.28c1.82,2.77,2,6.29,1.71,9.59s-1.34,6.68-1.4,10" style="fill:#e0e0e0"></path><path d="M395.58,365.63a26.87,26.87,0,0,0-20,8.51,18.76,18.76,0,0,0,11-2,55.64,55.64,0,0,0,9.38-6.28" style="fill:#e0e0e0"></path><path d="M387.56,362.94c-3.65-.29-7.17-.75-10.67.33a12.78,12.78,0,0,0-8.14,6.89,19.31,19.31,0,0,0,10-1.88,58.13,58.13,0,0,0,8.8-5.34" style="fill:#e0e0e0"></path><path d="M399.44,363.06c-3.29-2.15-6.66-4.34-10.48-5.23s-8.25-.23-10.92,2.65c3.1,1.82,6.85,2,10.44,2s8-.05,11.37,1.15" style="fill:#e0e0e0"></path><path d="M399.46,363.24c-5.62-5.51-7.74-15.41-5.49-22.95a35,35,0,0,1,5.49,22.95" style="fill:#e0e0e0"></path><path d="M414.89,347.62c1.06-2.46,1.8-5,2.75-7.54a21.73,21.73,0,0,1,3.92-7,10.34,10.34,0,0,1,6.95-3.6A28,28,0,0,1,415,347.66" style="fill:#e0e0e0"></path><path d="M412.09,350.88c-1.75-2.41-3.77-5.69-6.15-7.49a10.27,10.27,0,0,0-8.36-2.19,19.51,19.51,0,0,0,14.51,9.68" style="fill:#e0e0e0"></path><path d="M412.65,347.82a42.24,42.24,0,0,1-2.77-9,14,14,0,0,1,1.41-9.12c3.08,5.82,4.07,12.08,1.52,18.15" style="fill:#e0e0e0"></path><path d="M414.92,329.74c1.74-5.77,7-10,12.73-12a4.81,4.81,0,0,1,2.24-.34,1.94,1.94,0,0,1,1.64,1.38c.21,1-.6,1.86-1.36,2.51a43.33,43.33,0,0,1-15.25,8.42" style="fill:#e0e0e0"></path><path d="M415,325a41.23,41.23,0,0,1,1.66-11c1.21-3.53,3.55-6.84,6.94-8.38.58,3.76-1.08,7.5-3.08,10.73s-4.41,6.29-5.61,9.9" style="fill:#e0e0e0"></path><path d="M414.89,327.58c-1.45-4.2-1.59-9.55-4.11-13.21-1.76-2.57-4.58-4.31-6.1-7a10.69,10.69,0,0,0,.35,8,23.32,23.32,0,0,0,4.66,6.67c1.87,2,3.46,3.49,5.2,5.59" style="fill:#e0e0e0"></path><path d="M414.92,451.48c-.12,0-.21-28.07-.22-62.68s.08-62.68.19-62.68.21,28.06.21,62.68S415,451.48,414.92,451.48Z" style="fill:#e0e0e0"></path><path d="M439.44,367.41a5.55,5.55,0,0,1-1.05.4l-2.91,1c-2.45.83-5.81,2-9.46,3.53s-7,2.81-9,4.5a6.59,6.59,0,0,0-1.8,2.38c-.28.66-.33,1.06-.36,1.05s0-.1,0-.29a4.08,4.08,0,0,1,.21-.82,6.26,6.26,0,0,1,1.75-2.54,16,16,0,0,1,3.89-2.42c1.56-.72,3.28-1.48,5.12-2.23,3.66-1.5,7.05-2.67,9.52-3.44,1.24-.38,2.25-.67,2.95-.86A5.62,5.62,0,0,1,439.44,367.41Z" style="fill:#e0e0e0"></path><path d="M447.48,347.66a1.7,1.7,0,0,1-.29.32l-.91.84-3.36,3.06-11.19,10c-4.37,3.89-8.14,7.61-10.76,10.4-1.31,1.4-2.34,2.56-3,3.37l-.82.92a1.56,1.56,0,0,1-.3.31,1.72,1.72,0,0,1,.24-.36c.17-.22.42-.56.76-1,.66-.84,1.67-2,2.95-3.45a143,143,0,0,1,10.7-10.51c4.39-3.88,8.37-7.36,11.27-9.88l3.45-3,.95-.79A1.78,1.78,0,0,1,447.48,347.66Z" style="fill:#e0e0e0"></path><path d="M427,365.8c-.12-.05.79-2.16,1.7-4.83s1.35-4.91,1.47-4.89a16.24,16.24,0,0,1-1.08,5,32.53,32.53,0,0,1-1.36,3.38A5.48,5.48,0,0,1,427,365.8Z" style="fill:#e0e0e0"></path><path d="M414.94,382.78a4.83,4.83,0,0,1-.67-.78l-1.73-2.21c-1.45-1.87-3.45-4.46-5.69-7.28s-4.31-5.37-5.81-7.21l-1.76-2.18a5.43,5.43,0,0,1-.61-.83,4.33,4.33,0,0,1,.73.73c.45.49,1.09,1.2,1.86,2.1,1.56,1.79,3.66,4.3,5.91,7.13s4.21,5.45,5.6,7.37c.7,1,1.25,1.74,1.62,2.29A5.44,5.44,0,0,1,414.94,382.78Z" style="fill:#e0e0e0"></path><path d="M409.56,375.88a10,10,0,0,1-2.25-4.22,12.1,12.1,0,0,1-.51-4.25H407c-.08.33-.14.5-.17.5s0-.19,0-.52H407a19.61,19.61,0,0,0,.72,4.14A33,33,0,0,0,409.56,375.88Z" style="fill:#e0e0e0"></path><path d="M402.62,367.15a6.75,6.75,0,0,0-1.57-.92,10.63,10.63,0,0,0-4.37-.34,25.42,25.42,0,0,0-4.4.71,13.2,13.2,0,0,1-1.81.43,6.25,6.25,0,0,1,1.74-.71,19.83,19.83,0,0,1,4.44-.84,9.48,9.48,0,0,1,4.51.49A2.7,2.7,0,0,1,402.62,367.15Z" style="fill:#e0e0e0"></path><path d="M401,365c0,.06-.91-.37-2.4-.88a24.13,24.13,0,0,0-12.15-.92c-1.55.27-2.49.57-2.51.5s.21-.12.63-.27a13.8,13.8,0,0,1,1.82-.51,21.41,21.41,0,0,1,12.3.93,17.46,17.46,0,0,1,1.72.78C400.78,364.88,401,365,401,365Z" style="fill:#e0e0e0"></path><path d="M414.89,356.08a97.31,97.31,0,0,1-3.12-12.31,52.25,52.25,0,0,1,1.75,6.11A50.26,50.26,0,0,1,414.89,356.08Z" style="fill:#e0e0e0"></path><path d="M415,356.08a29.76,29.76,0,0,0-1.95-3.66,15.7,15.7,0,0,0-2.87-2.95c0-.05.48.12,1.11.57a9,9,0,0,1,2.09,2.15A8.14,8.14,0,0,1,415,356.08Z" style="fill:#e0e0e0"></path><path d="M414.92,436.52c-.05,0-.13-.68-.45-1.87a26.73,26.73,0,0,0-1.87-4.86,67.68,67.68,0,0,0-10-14c-2.22-2.53-4.38-4.93-6.21-7.22a51.09,51.09,0,0,1-4.44-6.4,31,31,0,0,1-2.24-4.75c-.2-.59-.36-1-.44-1.36a1.58,1.58,0,0,1-.11-.49s.24.65.7,1.79a34,34,0,0,0,2.34,4.66,52.54,52.54,0,0,0,4.48,6.31c1.84,2.27,4,4.65,6.22,7.2a63.51,63.51,0,0,1,9.91,14.16,24.37,24.37,0,0,1,1.77,4.94,13.33,13.33,0,0,1,.24,1.41A3.75,3.75,0,0,1,414.92,436.52Z" style="fill:#e0e0e0"></path><path d="M437.08,411.49a11.37,11.37,0,0,1-1.16.65,24.79,24.79,0,0,0-3,2,34.32,34.32,0,0,0-3.95,3.61c-1.39,1.47-2.82,3.17-4.28,5-2.92,3.67-5.65,6.91-7.29,9.5-.83,1.28-1.43,2.36-1.83,3.12a11.52,11.52,0,0,1-.63,1.17s0-.12.1-.33.21-.52.39-.91a32,32,0,0,1,1.73-3.21,106.09,106.09,0,0,1,7.21-9.59c1.46-1.83,2.91-3.54,4.33-5a32.43,32.43,0,0,1,4.05-3.58,21.52,21.52,0,0,1,3.11-1.9c.39-.19.7-.31.91-.4S437.07,411.47,437.08,411.49Z" style="fill:#e0e0e0"></path><path d="M437.51,419.61a16.74,16.74,0,0,1-2.45.35,32.72,32.72,0,0,0-5.83,1.15,17.68,17.68,0,0,0-5.21,2.74c-1.2.92-1.77,1.69-1.82,1.65s.09-.23.36-.57a9.36,9.36,0,0,1,1.28-1.31,16,16,0,0,1,5.27-2.9,26.29,26.29,0,0,1,5.92-1A12.74,12.74,0,0,1,437.51,419.61Z" style="fill:#e0e0e0"></path><path d="M422.91,424.61c-.12-.08,1-1.77,1.84-4s1-4.3,1.14-4.28a4,4,0,0,1,0,1.32,14.23,14.23,0,0,1-.72,3.1,15.34,15.34,0,0,1-1.42,2.85A4.09,4.09,0,0,1,422.91,424.61Z" style="fill:#e0e0e0"></path><path d="M444.26,389.68a1.44,1.44,0,0,1-.4.21l-1.15.53c-.51.21-1.12.49-1.81.85s-1.5.73-2.35,1.24l-1.34.76c-.46.26-.92.58-1.41.89-1,.6-2,1.33-3,2.09a56,56,0,0,0-6.33,5.56,58,58,0,0,0-5.35,6.52c-.72,1.08-1.42,2.1-2,3.1-.29.5-.59,1-.85,1.45s-.48.92-.71,1.36c-.48.86-.82,1.68-1.15,2.39s-.6,1.32-.8,1.83-.35.87-.48,1.18a2,2,0,0,1-.2.4,2,2,0,0,1,.12-.43l.42-1.2a18,18,0,0,1,.73-1.87c.32-.72.64-1.56,1.1-2.43.23-.44.46-.9.7-1.38s.54-1,.83-1.47c.55-1,1.25-2.05,2-3.14A50,50,0,0,1,432.55,396c1.07-.75,2.07-1.49,3.07-2.08.5-.3,1-.61,1.44-.87l1.36-.75c.85-.49,1.68-.84,2.38-1.18s1.33-.6,1.85-.8l1.18-.45A2.5,2.5,0,0,1,444.26,389.68Z" style="fill:#e0e0e0"></path><path d="M426.72,401.44a2.7,2.7,0,0,1,1-1.44,6.09,6.09,0,0,1,3.89-1.49,10.51,10.51,0,0,1,4.09.8,5.67,5.67,0,0,1,1.54.75,9.65,9.65,0,0,1-1.64-.48,12.32,12.32,0,0,0-4-.67,6.32,6.32,0,0,0-3.71,1.31A9.43,9.43,0,0,0,426.72,401.44Z" style="fill:#e0e0e0"></path><path d="M424.09,404.14a10.31,10.31,0,0,0,.86-7.34,2.45,2.45,0,0,1,.46,1.05,7.47,7.47,0,0,1-.63,5.38C424.44,403.85,424.13,404.17,424.09,404.14Z" style="fill:#e0e0e0"></path><path d="M395.53,440.54c.61,10.73,3.84,21.63,8.81,32.66H426c4.74-10.92,7.75-21.81,8.28-32.66Z" style="fill:#e0e0e0"></path><path d="M430.74,457.9c0,.11-7.12.2-15.9.2S399,458,399,457.9s7.11-.21,15.89-.21S430.74,457.78,430.74,457.9Z" style="fill:#fafafa"></path><path d="M430.26,461.78c0,.11-6.68.2-14.91.2s-14.9-.09-14.9-.2,6.67-.2,14.9-.2S430.26,461.67,430.26,461.78Z" style="fill:#fafafa"></path><path d="M404.69,447.58a62.1,62.1,0,0,1,0,10,62.1,62.1,0,0,1,0-10Z" style="fill:#fafafa"></path><path d="M416.27,447.58a66.66,66.66,0,0,1,0,10.32,66.66,66.66,0,0,1,0-10.32Z" style="fill:#fafafa"></path><path d="M427.15,447.5a69.14,69.14,0,0,1,0,10.51,65.86,65.86,0,0,1,0-10.51Z" style="fill:#fafafa"></path><path d="M433.56,447.58c0,.11-8.35.21-18.65.21s-18.64-.1-18.64-.21,8.34-.2,18.64-.2S433.56,447.47,433.56,447.58Z" style="fill:#fafafa"></path></g><g id="freepik--Floor--inject-2"><path d="M473,473c0,.14-99.87.26-223,.26S27,473.16,27,473s99.85-.26,223.05-.26S473,472.88,473,473Z" style="fill:#263238"></path></g><g id="freepik--Letter--inject-2"><rect x="106.5" y="72.01" width="242.52" height="334.64" style="fill:#fff"></rect><path d="M349,406.65c0-2.1-.09-136.72-.23-334.64l.23.23-242.49,0h0l.26-.26c0,125.11,0,240.91,0,334.64l-.22-.22,242.52.22-242.52.21h-.21v-.21c0-93.73,0-209.53-.05-334.64v-.27h.29l242.49,0h.24V72C349.12,269.93,349,404.56,349,406.65Z" style="fill:#263238"></path><path d="M347.57,302.52c0,.15-53.64.26-119.8.26S108,302.67,108,302.52s53.64-.26,119.82-.26S347.57,302.38,347.57,302.52Z" style="fill:#263238"></path><circle cx="163.11" cy="121.07" r="21.21" transform="translate(8.08 252.33) rotate(-76.84)" style="fill:#407BFF"></circle><path d="M162.31,132.11h0a8.32,8.32,0,0,1-8.53-8.09V112l8.53,1.78,8.53-1.78v12A8.32,8.32,0,0,1,162.31,132.11Z" style="fill:#fff"></path><rect x="199.57" y="110.84" width="56.65" height="6.68" rx="3.18" style="fill:#407BFF"></rect><rect x="137.74" y="197.53" width="180.05" height="6.68" rx="3.18" style="fill:#e0e0e0"></rect><rect x="137.74" y="217.57" width="180.05" height="6.68" rx="3.18" style="fill:#e0e0e0"></rect><rect x="137.74" y="290.14" width="180.05" height="6.68" rx="3.18" style="fill:#e0e0e0"></rect><rect x="137.74" y="311.47" width="180.05" height="6.68" rx="3.18" style="fill:#e0e0e0"></rect><rect x="137.74" y="332.81" width="180.05" height="6.68" rx="3.18" style="fill:#e0e0e0"></rect><rect x="138.11" y="180.7" width="180.05" height="6.68" rx="3.18" style="fill:#e0e0e0"></rect><rect x="138.11" y="160.41" width="49.99" height="6.68" rx="3.18" style="fill:#e0e0e0"></rect><rect x="198.75" y="124.63" width="108.55" height="6.68" rx="3.18" style="fill:#e0e0e0"></rect><path d="M162.33,261.56h-9.42l-1.8,4.34H146.3l9-20.29H160l9.07,20.29h-4.92ZM160.85,258l-3.22-7.77L154.42,258Z" style="fill:#407BFF"></path><path d="M171.17,245.61h9.22a13,13,0,0,1,5.84,1.26,9.5,9.5,0,0,1,3.94,3.55,10.8,10.8,0,0,1,0,10.67,9.43,9.43,0,0,1-3.94,3.55,13,13,0,0,1-5.84,1.26h-9.22Zm9,16.44a6.81,6.81,0,0,0,4.85-1.7,6.74,6.74,0,0,0,0-9.19,6.81,6.81,0,0,0-4.85-1.69h-4.29v12.58Z" style="fill:#407BFF"></path><path d="M213.58,265.9l0-12.17-6,10h-2.12L199.52,254V265.9h-4.41V245.61H199l7.59,12.61,7.48-12.61h3.85L218,265.9Z" style="fill:#407BFF"></path><path d="M222.79,245.61h4.7V265.9h-4.7Z" style="fill:#407BFF"></path><path d="M236.5,249.44H230v-3.83h17.68v3.83H241.2V265.9h-4.7Z" style="fill:#407BFF"></path><path d="M254.71,249.44h-6.5v-3.83H265.9v3.83h-6.5V265.9h-4.69Z" style="fill:#407BFF"></path><path d="M284.13,262.13v3.77H268.42V245.61h15.33v3.77H273.08v4.41h9.42v3.65h-9.42v4.69Z" style="fill:#407BFF"></path><path d="M287.87,245.61h9.21a12.94,12.94,0,0,1,5.84,1.26,9.52,9.52,0,0,1,3.95,3.55,10.87,10.87,0,0,1,0,10.67,9.46,9.46,0,0,1-3.95,3.55,12.94,12.94,0,0,1-5.84,1.26h-9.21Zm9,16.44a6.84,6.84,0,0,0,4.86-1.7,6.74,6.74,0,0,0,0-9.19,6.83,6.83,0,0,0-4.86-1.69h-4.29v12.58Z" style="fill:#407BFF"></path><path d="M320.26,277.91H135.52V232.75H320.26Zm-183.74-1H319.26V233.75H136.52Z" style="fill:#407BFF"></path><path d="M304.13,374.16c-.23,0-.27-1.36-1-3.61a15.28,15.28,0,0,0-5.62-7.8,14.4,14.4,0,0,0-13.48-1.81,14.23,14.23,0,0,0-6.48,4.94,14,14,0,0,0,0,16.55,13.25,13.25,0,0,0,2.94,3,13.1,13.1,0,0,0,3.54,1.95,14.33,14.33,0,0,0,13.48-1.81,15.28,15.28,0,0,0,5.62-7.8c.7-2.25.74-3.61,1-3.6s.44,1.36,0,3.85a14.3,14.3,0,0,1-1.55,4.32,15.57,15.57,0,0,1-3.94,4.7,15.94,15.94,0,0,1-6.78,3.19,16.37,16.37,0,0,1-8.63-.59,16.39,16.39,0,0,1-7.71-5.69,16.36,16.36,0,0,1,0-19.57,15.29,15.29,0,0,1,3.52-3.48,15.47,15.47,0,0,1,4.19-2.21,16.37,16.37,0,0,1,8.63-.59,15.94,15.94,0,0,1,6.78,3.19,15.57,15.57,0,0,1,3.94,4.7,14.3,14.3,0,0,1,1.55,4.32C304.57,372.79,304.25,374.16,304.13,374.16Z" style="fill:#407BFF"></path><path d="M239.58,379.85l-.31.28c-.21.18-.54.44-1,.76a20.52,20.52,0,0,1-4.11,2.33,15.74,15.74,0,0,1-7.35,1.28,13.19,13.19,0,0,1-4.54-1.19,11.19,11.19,0,0,1-4.16-3.22,9.91,9.91,0,0,1-2.08-5.39,8.84,8.84,0,0,1,1.66-6,6.79,6.79,0,0,1,2.61-2.12,5,5,0,0,1,3.46-.32,4.72,4.72,0,0,1,2.75,2.29,6.57,6.57,0,0,1,.84,3.57c-.16,2.55-1.69,4.8-3.46,6.61a33.82,33.82,0,0,1-6.09,4.87,35.06,35.06,0,0,1-7.31,3.47,27,27,0,0,1-8.19,1.53,12.59,12.59,0,0,1-8-2.37,12.21,12.21,0,0,1-4.19-6.88,17.28,17.28,0,0,1,.12-7.81,31.35,31.35,0,0,1,2.62-7,12.4,12.4,0,0,1,2.16-2.94,5.74,5.74,0,0,1,3.12-1.74,4.12,4.12,0,0,1,3.35.94,5.62,5.62,0,0,1,1.74,2.88,8.22,8.22,0,0,1-1.22,6.11,20.59,20.59,0,0,1-1.7,2.43c-.6.76-1.23,1.46-1.85,2.14a36.66,36.66,0,0,1-3.92,3.5,35.23,35.23,0,0,1-3.93,2.55,32.41,32.41,0,0,1-6.91,2.86,31.59,31.59,0,0,1-4.63.95l-1.22.11-.42,0a2,2,0,0,1,.41-.08l1.22-.16a34.24,34.24,0,0,0,4.59-1,32.79,32.79,0,0,0,6.82-2.92,32.68,32.68,0,0,0,7.72-6c.61-.68,1.23-1.37,1.81-2.13a19.51,19.51,0,0,0,1.66-2.39,7.86,7.86,0,0,0,1.16-5.8,5.24,5.24,0,0,0-1.62-2.65,3.64,3.64,0,0,0-3-.83,5.37,5.37,0,0,0-2.87,1.62,12,12,0,0,0-2.06,2.84,30.26,30.26,0,0,0-2.56,6.9,16.85,16.85,0,0,0-.12,7.58,11.69,11.69,0,0,0,4,6.59,12,12,0,0,0,7.63,2.26,26.92,26.92,0,0,0,8-1.5,35.24,35.24,0,0,0,7.2-3.41,33.29,33.29,0,0,0,6-4.79c1.73-1.77,3.18-3.92,3.33-6.28s-1.11-4.77-3.24-5.4a4.45,4.45,0,0,0-3.15.29,6.23,6.23,0,0,0-2.45,2,8.46,8.46,0,0,0-1.6,5.73,9.52,9.52,0,0,0,2,5.19,10.84,10.84,0,0,0,4,3.15,13,13,0,0,0,4.42,1.2,15.62,15.62,0,0,0,7.25-1.18,21.52,21.52,0,0,0,4.13-2.23l1-.71A1.88,1.88,0,0,1,239.58,379.85Z" style="fill:#263238"></path><path d="M288.85,383.19h0a6.61,6.61,0,0,1-6.77-6.43v-9.53l6.77,1.41,6.78-1.41v9.53A6.62,6.62,0,0,1,288.85,383.19Z" style="fill:#407BFF"></path><path d="M347.57,184.58c0,.14-53.64.26-119.8.26S108,184.72,108,184.58s53.64-.26,119.82-.26S347.57,184.43,347.57,184.58Z" style="fill:#263238"></path></g><g id="freepik--Plant--inject-2"><path d="M74.23,439.92S69.3,406,69.71,386.24s0-41.95,0-41.95H72s-1.54,39.19.14,62.82,6.09,32.81,6.09,32.81h-4" style="fill:#263238"></path><path d="M88.94,306.11a6,6,0,0,0-2.07-3c-1.45-.91-3.34-.53-5,0-6.87,2.43-13,15.24-15.74,22l9.12,30.74C91.77,340.56,94.62,320.51,88.94,306.11Z" style="fill:#455a64"></path><path d="M86.33,304.32a1.83,1.83,0,0,1-.13.4c-.12.29-.27.66-.45,1.12-.4,1-1,2.37-1.63,4.12-1.34,3.49-3.05,8.37-4.58,13.87S77,334.39,76.32,338.08c-.33,1.84-.57,3.34-.73,4.37-.08.48-.14.88-.2,1.19a1.58,1.58,0,0,1-.09.41,2.66,2.66,0,0,1,0-.42l.12-1.2c.12-1,.32-2.54.61-4.4a130.9,130.9,0,0,1,7.82-28.17c.71-1.74,1.31-3.13,1.75-4.08l.51-1.09A1.65,1.65,0,0,1,86.33,304.32Z" style="fill:#263238"></path><path d="M71.25,363.2c-8.56-4.72-13.6-13.61-14.07-23.37-.32-6.82,1.77-13.52,4.15-19.92a2.58,2.58,0,0,1,1-1.45,2.46,2.46,0,0,1,2.33.37c6.22,3.53,10,10.28,12,17.15a34.58,34.58,0,0,1,1.4,14.1,23.37,23.37,0,0,1-6.76,13.12" style="fill:#455a64"></path><path d="M71.25,363.2a1.2,1.2,0,0,1,0-.41l0-1.18c0-1,0-2.5-.13-4.33a116.19,116.19,0,0,0-1.59-14.2c-.94-5.51-2.1-10.44-2.94-14-.42-1.75-.76-3.18-1-4.22l-.26-1.16a1.73,1.73,0,0,1-.07-.4s.06.13.14.39l.34,1.13c.28,1,.67,2.42,1.12,4.19.92,3.55,2.11,8.48,3.07,14a105.34,105.34,0,0,1,1.48,14.26c0,1.83,0,3.32,0,4.34,0,.48,0,.87,0,1.18A2.64,2.64,0,0,1,71.25,363.2Z" style="fill:#263238"></path><g style="opacity:0.30000000000000004"><path d="M71.25,363.2c-8.56-4.72-13.6-13.61-14.07-23.37-.32-6.82,1.77-13.52,4.15-19.92a2.58,2.58,0,0,1,1-1.45,2.46,2.46,0,0,1,2.33.37c6.22,3.53,10,10.28,12,17.15a34.58,34.58,0,0,1,1.4,14.1,23.37,23.37,0,0,1-6.76,13.12"></path></g><path d="M80.89,415.13c8.42,1.85,15.35,7.78,23.47,10.67,5.37,1.91,11.45,2.59,15.74,6.34-1-2.6-3.47-4.33-5.84-5.81A104.86,104.86,0,0,0,93,416.18c-3.82-1.32-8-2.42-11.86-1.34" style="fill:#455a64"></path><path d="M68.73,422.63c-10.55-.17-21.64-9.15-32.14-9.68,11-3.55,26.71-.65,32.14,9.68" style="fill:#455a64"></path><path d="M72.84,397.34a34.38,34.38,0,0,1,16.86-1.15,103.68,103.68,0,0,1,16.45,4.47c-.54-3.65-3.51-6.4-6.29-8.84a44.4,44.4,0,0,0-6.6-5.08,14.76,14.76,0,0,0-7.93-2.23,12.5,12.5,0,0,0-8.74,4.41,14.53,14.53,0,0,0-3.75,8.42" style="fill:#455a64"></path><path d="M51.21,385.7c-6.63-5.66-16.69-5.11-25.41-4.91a207.22,207.22,0,0,1,39.41,24.55C65.56,399.18,59.59,392.86,51.21,385.7Z" style="fill:#455a64"></path><g style="opacity:0.30000000000000004"><path d="M51.21,385.7c-6.63-5.66-16.69-5.11-25.41-4.91a207.22,207.22,0,0,1,39.41,24.55C65.56,399.18,59.59,392.86,51.21,385.7Z"></path></g><path d="M75.83,377.88A74.94,74.94,0,0,1,86,372c3.5-1.59,6.75-4.11,10.13-5.94,4.37-2.37,8.16-5.66,12.17-8.6s8.43-5.58,13.34-6.36a26.17,26.17,0,0,0-12.14.7,78.89,78.89,0,0,0-11.42,4.44c-5.18,2.34-10.44,4.73-14.67,8.51s-8.06,7.52-7.61,13.18" style="fill:#455a64"></path><path d="M104.17,422.63a1.28,1.28,0,0,1-.33-.15c-.25-.13-.56-.28-.92-.48-.8-.42-1.94-1-3.37-1.76-.71-.38-1.5-.77-2.35-1.17s-1.77-.84-2.74-1.26A40.08,40.08,0,0,0,88,415.55a13.9,13.9,0,0,0-6.76-.17,19.79,19.79,0,0,0-2.87.86,14.67,14.67,0,0,0-5.22,3.58c-.61.66-.91,1.06-.93,1a1,1,0,0,1,.19-.31,8.38,8.38,0,0,1,.63-.82,13.94,13.94,0,0,1,2.87-2.53A14.24,14.24,0,0,1,78.22,416a19.11,19.11,0,0,1,2.91-.91,14,14,0,0,1,6.92.14,38.58,38.58,0,0,1,6.55,2.32c1,.43,1.89.85,2.73,1.29s1.64.82,2.34,1.21c1.42.75,2.55,1.42,3.32,1.88l.88.54C104.07,422.54,104.18,422.61,104.17,422.63Z" style="fill:#263238"></path><path d="M60.86,417.4a2.66,2.66,0,0,1,.66.2,14.65,14.65,0,0,1,1.72.74,20.78,20.78,0,0,1,5,3.57,21.32,21.32,0,0,1,3.77,4.89,15.71,15.71,0,0,1,.81,1.69,2,2,0,0,1,.22.65c-.06,0-.45-.87-1.26-2.2a24.4,24.4,0,0,0-3.8-4.76,23.91,23.91,0,0,0-4.9-3.6C61.75,417.82,60.84,417.46,60.86,417.4Z" style="fill:#263238"></path><path d="M37.54,385.17a3.09,3.09,0,0,1,.45.13l1.27.45,2,.74c.78.29,1.62.72,2.58,1.14a61,61,0,0,1,13.72,8.74,66.08,66.08,0,0,1,6.4,6.3,70.94,70.94,0,0,1,4.54,5.76c1.2,1.7,2.12,3.12,2.74,4.1l.72,1.13a2,2,0,0,1,.24.41,2.56,2.56,0,0,1-.3-.36c-.18-.25-.45-.61-.78-1.1-.66-.95-1.61-2.35-2.83-4s-2.77-3.62-4.59-5.68a70.38,70.38,0,0,0-6.38-6.24,63.88,63.88,0,0,0-13.6-8.79c-.94-.44-1.77-.88-2.54-1.19l-2-.79L38,385.38A3,3,0,0,1,37.54,385.17Z" style="fill:#263238"></path><path d="M88.66,391.41a3.24,3.24,0,0,1-.84-.1l-1-.18c-.37-.08-.81-.08-1.29-.13a13.35,13.35,0,0,0-7.25,1.43A12.89,12.89,0,0,0,75,394.88a15,15,0,0,0-2.12,2.62,21.62,21.62,0,0,0-1.45,2.76,3.32,3.32,0,0,1,.21-.82,11.83,11.83,0,0,1,1-2.08,14.2,14.2,0,0,1,2.1-2.73,12.86,12.86,0,0,1,10.81-3.89c.49.07.93.09,1.31.18l1,.24A4.11,4.11,0,0,1,88.66,391.41Z" style="fill:#263238"></path><path d="M99.25,358.55a2.37,2.37,0,0,1-.39.24l-1.18.64c-1,.55-2.49,1.37-4.28,2.42s-3.88,2.38-6.11,4a51.6,51.6,0,0,0-6.82,5.72,17.48,17.48,0,0,0-2.79,3.61c-.69,1.32-1.35,2.6-2,3.83a70.85,70.85,0,0,0-2.93,6.67,41.16,41.16,0,0,0-1.43,4.7c-.27,1.12-.36,1.76-.4,1.75a2.27,2.27,0,0,1,0-.46c0-.31.1-.75.22-1.33a34.48,34.48,0,0,1,1.32-4.75,63.87,63.87,0,0,1,2.87-6.73c.6-1.24,1.25-2.52,1.94-3.85a17.52,17.52,0,0,1,2.84-3.71,49.31,49.31,0,0,1,6.89-5.73c2.25-1.59,4.37-2.88,6.17-3.92s3.31-1.8,4.35-2.32l1.21-.57A2.58,2.58,0,0,1,99.25,358.55Z" style="fill:#263238"></path><path d="M69.7,390.46a3.7,3.7,0,0,1-.21-.88c-.12-.65-.28-1.47-.46-2.44a68.26,68.26,0,0,0-2-7.91,67,67,0,0,0-3-7.58l-1-2.26a3.57,3.57,0,0,1-.34-.85,4.57,4.57,0,0,1,.47.79c.28.51.67,1.26,1.13,2.2a53.94,53.94,0,0,1,3.13,7.59,54.76,54.76,0,0,1,1.9,8c.16,1,.28,1.88.34,2.46A4.76,4.76,0,0,1,69.7,390.46Z" style="fill:#263238"></path><path d="M68.93,366.48a28.63,28.63,0,0,0-3.42-11.38,37.56,37.56,0,0,0-25.47-19l23.58,35.13,3,6.27C68.74,374.11,69.2,370.47,68.93,366.48Z" style="fill:#455a64"></path><rect x="47.93" y="435.73" width="54.81" height="9.72" style="fill:#407BFF"></rect><polygon points="52.03 443.51 56.7 473.66 93.09 473.66 98.66 443.51 52.03 443.51" style="fill:#407BFF"></polygon><path d="M102.72,445.45c0,.11-12.37.2-27.61.2s-27.62-.09-27.62-.2,12.36-.19,27.62-.19S102.72,445.35,102.72,445.45Z" style="fill:#263238"></path></g><g id="freepik--speech-bubble--inject-2"><polygon points="421.69 94.94 416.23 75.54 433.94 67.4 416.61 59.2 421.25 43.17 405.49 49.14 397.8 34.04 390.03 51.09 373.52 43.91 378.8 61.27 361.33 68.31 377.37 79.11 371 94.22 390.4 91.58 396.26 109.97 402.39 91.1 421.69 94.94" style="fill:#fff"></polygon><path d="M421.69,94.94l-19.32-3.73.13-.08L396.41,110l-.15.48-.15-.48-5.89-18.38.21.13L371,94.43l-.36,0,.14-.34c2-4.78,4.15-9.87,6.36-15.11l.08.26L361.2,68.5l-.36-.24.4-.16,17.47-7-.14.29c-1.45-4.76-3-9.81-4.54-14.92L373.29,44l-.15-.49.47.2,16.51,7.19-.31.12q4-8.73,7.78-17.06l.2-.43.21.42L405.68,49l-.27-.1,15.76-6,.39-.14-.12.39q-2.44,8.46-4.65,16l-.1-.23L434,67.25l.31.15-.31.14-17.72,8.11.06-.14c3.42,12.41,5.13,18.62,5.35,19.43-.23-.81-2-7-5.58-19.36l0-.1.09,0,17.69-8.19v.29l-17.34-8.18-.14-.06,0-.16q2.19-7.57,4.62-16l.27.25-15.75,6-.19.07-.09-.18q-3.72-7.32-7.7-15.1H398q-3.79,8.31-7.77,17.06l-.1.21-.21-.09-16.51-7.18.32-.29.75,2.44C376,51.39,377.57,56.44,379,61.2l.06.21-.2.08-17.46,7,0-.4,16,10.81.15.1-.07.17-6.38,15.1L371,94l19.4-2.62.16,0,.05.15c2.12,6.69,4.09,12.9,5.83,18.41h-.3c2.38-7.27,4.47-13.65,6.17-18.86l0-.1.11,0Z" style="fill:#263238"></path><path d="M394.57,78.41a3.31,3.31,0,0,1,3.49-3.27,3.26,3.26,0,1,1,.06,6.52A3.35,3.35,0,0,1,394.57,78.41Zm.48-22,5.9,0-.83,15.25-3.95,0Z" style="fill:#407BFF"></path></g><g id="freepik--Character--inject-2"><path d="M433.17,324.07s1.11,3.87-10.49,5.7-36.13,3.18-48.18,3-20.49-1.29-26.06-9.06c-4.93-6.88-4.3-12.28,2.06-13.87s44.23,10.09,51.73,5.94S431.83,315.64,433.17,324.07Z" style="fill:#455a64"></path><path d="M368.63,263.31c.36.63,2.1,20.22,2.1,20.22s-6.47,25.23-9.45,41c-3.18,16.78-2.66,43.25-.8,48,3.29,8.42,58.09,44.63,58.09,44.63l7.93-11.35-45.15-47.19,13.06-60.88-6-39Z" style="fill:#ffbf9d"></path><path d="M415.58,249S428.91,270,429.72,281c.93,12.6-7.35,26.8-11.44,35.59-3.76,8.07-21.67,36.91-21.67,36.91,14.6-1.87,28.16.24,44.4,4.75,0,0,6.29,6.51,2.89,13.08,0,0-53.11,4.36-59.7,3.95s-12.7-5.94-12.48-17.91,10.54-51.05,10.54-51.05l-1.43-6.95-2-8.83-5.18-32,23.9-9.48Z" style="fill:#ffbf9d"></path><path d="M415.58,249l-1.2,0-3.49.05-13.36.13h0l-23.88,9.53.1-.18c1.09,6.65,2.29,14,3.6,22.06q.5,3,1,6.14c.17,1,.34,2.09.52,3.16s.46,2.1.68,3.17c.49,2.14,1,4.3,1.5,6.5s.91,4.47,1.38,6.75v.1c-2,7.59-3.94,15.6-5.84,24-.93,4.18-1.87,8.45-2.69,12.82a110.84,110.84,0,0,0-1.92,13.4,28.28,28.28,0,0,0,.47,6.86,16.78,16.78,0,0,0,2.63,6.38,13,13,0,0,0,2.34,2.58,12.78,12.78,0,0,0,3,1.78,12.19,12.19,0,0,0,3.43.82,33,33,0,0,0,3.59,0c9.69-.37,19.61-1.13,29.7-1.85l26.7-2.08-.21.14a9.18,9.18,0,0,0,.94-3.34,10.31,10.31,0,0,0-.37-3.45,15.87,15.87,0,0,0-3.41-6l.11.06a154.71,154.71,0,0,0-22.59-4.74,87.62,87.62,0,0,0-21.71,0l-.49.06.26-.42c4.52-7.29,8.82-14.33,12.83-21.09A207.38,207.38,0,0,0,420,312.67a119.28,119.28,0,0,0,7.74-18.14c1.79-5.8,2.53-11.56,1.41-16.52a64.09,64.09,0,0,0-4.69-12.74c-1.69-3.6-3.29-6.59-4.61-9s-2.4-4.23-3.12-5.45l-.83-1.39-.27-.48s.11.15.31.46l.85,1.37c.75,1.21,1.84,3,3.19,5.42s3,5.38,4.68,9A63.73,63.73,0,0,1,429.37,278c1.16,5,.42,10.84-1.35,16.68a120.82,120.82,0,0,1-7.71,18.21,213.68,213.68,0,0,1-10.69,19.67q-6,10.14-12.81,21.11l-.23-.36a88.08,88.08,0,0,1,21.83,0A155.44,155.44,0,0,1,441.08,358l.07,0,0,.05a16.37,16.37,0,0,1,3.55,6.21,11,11,0,0,1,.39,3.62,10,10,0,0,1-1,3.55l-.06.12h-.15l-26.71,2.09c-10.08.72-20,1.48-29.71,1.85a34.39,34.39,0,0,1-3.66,0,12.18,12.18,0,0,1-3.57-.86,12.94,12.94,0,0,1-3.14-1.86,13.43,13.43,0,0,1-2.43-2.68,17.59,17.59,0,0,1-2.71-6.57,29.34,29.34,0,0,1-.47-7,112.56,112.56,0,0,1,1.94-13.47c.83-4.38,1.77-8.65,2.71-12.84,1.91-8.37,3.89-16.37,5.88-24v.1q-.69-3.42-1.37-6.75t-1.48-6.5c-.22-1.08-.53-2.12-.68-3.19s-.34-2.11-.51-3.15q-.5-3.13-1-6.15c-1.28-8-2.47-15.43-3.54-22.07l0-.13.12-.05L397.49,249h0l13.4,0h3.48Z" style="fill:#ff9a6c"></path><path d="M322.74,118.52s5.13,38.4,10.13,48.67c2.57,5.29,25.59,34.86,25.59,34.86l12.61-17.94L347,157.87l-13.68-40Z" style="fill:#ffbf9d"></path><path d="M323.12,108.06c-.05-.27-.71-3.4,0-4.28a2.25,2.25,0,0,1,1.95-.68,3.61,3.61,0,0,1,1.56-1.78,3.93,3.93,0,0,1,2.39,0l.89-.59a2.1,2.1,0,0,1,2.16-.37,3.86,3.86,0,0,0,2.2.81c1.16,0,2.64,3.18,3.46,4.71s1.94,3.55.43,5.84a68.12,68.12,0,0,1-5.23,6.62l-9.57,1s-1.3-1.16-1.47-4.58A16.89,16.89,0,0,1,323.12,108.06Z" style="fill:#ffbf9d"></path><path d="M325,103.1a9.73,9.73,0,0,1,.64,1.79c.34,1.11.79,2.66,1.26,4.38.05.21.11.42.17.63s0,.06,0,.2a.66.66,0,0,1-.05.25.76.76,0,0,1-.29.3,2.62,2.62,0,0,1-1.25.31,1.64,1.64,0,0,1-1.14-.35,2.66,2.66,0,0,1-.65-.76,4.8,4.8,0,0,1-.56-1.29c-.09-.31-.11-.5-.08-.5s.24.7.87,1.64a1.75,1.75,0,0,0,1.53.9,2.68,2.68,0,0,0,1.07-.27.39.39,0,0,0,.14-.15c0-.07,0,0,0-.18l-.18-.63c-.47-1.72-.87-3.28-1.15-4.41A9.21,9.21,0,0,1,325,103.1Z" style="fill:#ff9a6c"></path><path d="M329,101.31a6,6,0,0,1,.33,1.56c.15,1,.33,2.31.51,3.8v0s0,.11.05.16a4.31,4.31,0,0,1,0,2.25,1.87,1.87,0,0,1-1.32,1.3,2.3,2.3,0,0,1-1.24-.06c-.28-.09-.41-.19-.4-.21s.16,0,.44.06a2.45,2.45,0,0,0,1.12-.06,1.58,1.58,0,0,0,1.05-1.13,4.23,4.23,0,0,0-.07-2l0-.14v0c-.18-1.49-.32-2.84-.4-3.82A6.74,6.74,0,0,1,329,101.31Z" style="fill:#ff9a6c"></path><path d="M332,100.35a12.72,12.72,0,0,1-.17,2.36v-.06c.39,1.21.9,2.85,1.43,4.65.12.4.23.79.34,1.17l0,.08,0,.07a3.55,3.55,0,0,1-.86,1,1.81,1.81,0,0,1-1.16.43,1.34,1.34,0,0,1-1-.5,2.53,2.53,0,0,1-.46-.8,5,5,0,0,1-.33-1.24c0-.3,0-.47,0-.47s.14.65.57,1.61c.22.44.59,1.08,1.24,1.05a2.22,2.22,0,0,0,1.68-1.25v.15c-.12-.38-.23-.77-.35-1.17-.53-1.8-1-3.45-1.33-4.67v-.07A13.94,13.94,0,0,1,332,100.35Z" style="fill:#ff9a6c"></path><path d="M332.89,118.33s5.2-6.38,5.23-6.62-1.2-7.51-2.39-8.9-2.81-3-2.81-3-1.87.32-1.15,3.14,1.68,5.69,1.68,5.69l-1.76,2.21s-6.15,1.21-6.2,7" style="fill:#ffbf9d"></path><path d="M325.49,117.84a3.37,3.37,0,0,1,0-.73,3.9,3.9,0,0,1,.12-.87,6.21,6.21,0,0,1,.34-1.14,6.89,6.89,0,0,1,1.94-2.58,9.65,9.65,0,0,1,3.77-1.85l-.1.06,1.75-2.22,0,.17c-.45-1.33-.89-2.76-1.31-4.26a15,15,0,0,1-.55-2.35,3,3,0,0,1,.15-1.29,1.86,1.86,0,0,1,.87-1,1.67,1.67,0,0,1,.44-.17l.11,0,.07.08,1.53,1.64.75.81a5.93,5.93,0,0,1,.71.84,8.59,8.59,0,0,1,.81,2c.21.66.37,1.31.52,1.95.3,1.28.54,2.5.74,3.65,0,.29.08.57.13.85l0,.22s0,.09,0,.14l-.07.13c-.09.14-.17.24-.25.35l-1,1.22c-1.24,1.54-2.26,2.77-3,3.61l-.83,1a1.65,1.65,0,0,1-.31.32,2.49,2.49,0,0,1,.25-.37l.77-1,2.87-3.69.93-1.23.23-.32v0H338c-.1,0-.07,0-.07,0v0l0-.2c0-.27-.09-.55-.13-.84-.21-1.14-.46-2.35-.77-3.62-.16-.63-.32-1.28-.53-1.92a8.93,8.93,0,0,0-.77-1.89,7,7,0,0,0-.69-.79l-.74-.8-1.52-1.63.17,0a1.2,1.2,0,0,0-.32.13,1.86,1.86,0,0,0-.81,1.93,15.31,15.31,0,0,0,.52,2.28c.42,1.49.85,2.92,1.28,4.25l0,.09-.06.07c-.61.77-1.2,1.51-1.77,2.21l0,0-.06,0a9.48,9.48,0,0,0-3.67,1.73,6.92,6.92,0,0,0-1.93,2.44A10.24,10.24,0,0,0,325.49,117.84Z" style="fill:#ff9a6c"></path><path d="M415.89,419.34l-1.58-1.19A29.28,29.28,0,0,0,423.66,402l11.22,5.89L416,441.34C412.9,439.47,415.89,419.34,415.89,419.34Z" style="fill:#455a64"></path><path d="M434.88,407.88l-2.74-1.44-17.08,32.69s-.19,1.83,1,2.21Z" style="fill:#e0e0e0"></path><path d="M416.13,418.89c.17.08.71-.7,1.69-1.23s1.92-.59,1.94-.78-1.07-.44-2.25.22S416,418.84,416.13,418.89Z" style="fill:#263238"></path><path d="M426.44,409.72a1,1,0,0,0,1.38-.44,1,1,0,0,0-.42-1.33,1,1,0,0,0-1.38.44A1,1,0,0,0,426.44,409.72Z" style="fill:#e0e0e0"></path><path d="M416.16,418.57s.23-.18.56-.59a4.27,4.27,0,0,0,.95-2,3.14,3.14,0,0,0,0-.75,1.82,1.82,0,0,0-.26-.82.89.89,0,0,0-1-.36,1.35,1.35,0,0,0-.83.68,3.81,3.81,0,0,0,.34,4l.37-.37a4.63,4.63,0,0,0-.76-.42,4.47,4.47,0,0,0-4.4.58,1.26,1.26,0,0,0-.41.44.74.74,0,0,0,0,.65,1.41,1.41,0,0,0,.82.66,3.38,3.38,0,0,0,1.75.05,5.5,5.5,0,0,0,2.17-1.16c.45-.35.69-.56.67-.59a2.72,2.72,0,0,0-.78.43,6.08,6.08,0,0,1-2.13,1,2.9,2.9,0,0,1-1.51-.1.94.94,0,0,1-.56-.44c-.09-.18,0-.34.27-.53a4,4,0,0,1,3.88-.47,3.31,3.31,0,0,1,.67.37.28.28,0,0,0,.38-.07.26.26,0,0,0,0-.3,3.42,3.42,0,0,1-.35-3.5c.22-.48.81-.64,1-.29a2.37,2.37,0,0,1,.25,1.31,4.51,4.51,0,0,1-.76,1.94A2.74,2.74,0,0,0,416.16,418.57Z" style="fill:#263238"></path><path d="M415.44,422.44a14.16,14.16,0,0,1,2-1.26,12.79,12.79,0,0,1,2.3-.53,3.06,3.06,0,0,0-2.46.16A3,3,0,0,0,415.44,422.44Z" style="fill:#263238"></path><path d="M415.22,425.39c.08.08.84-.51,1.93-.9s2.05-.45,2.05-.57a3.19,3.19,0,0,0-2.2.19A3.09,3.09,0,0,0,415.22,425.39Z" style="fill:#263238"></path><path d="M369.21,264.21c1,14.32-1.22,23.36-9.62,32.21-2.69,2.83-5.89,5.14-8.69,7.87s-5.27,6-5.91,9.9c1-1.53,3.37-1.57,5-.64s2.64,2.52,3.78,4c6.17,7.78,16.29,11.88,26.21,11.86s19.59-3.88,27.66-9.64c2.09-1.49,4.21-3.16,6.74-3.51,3.1-.44,6.1,1.2,8.64,3s5,3.93,8.07,4.68a2.12,2.12,0,0,0,2-.25,2.39,2.39,0,0,0,.46-1.88q-.51-11.12-1-22.25c-.52-11.41-1.17-23.33-6.93-33.2l-12.23-19.13s-9.95.77-17.07,3.2S369.21,264.21,369.21,264.21Z" style="fill:#263238"></path><g style="opacity:0.30000000000000004"><path d="M369.78,275l-.57-6.56,27.54-15.72,22.25-.07L425.48,269s-18.57-7.07-24-6.58-31.17,17.32-31.17,17.32Z"></path></g><path d="M452.1,243.52s1.13-37.07-.11-44.76c-1.56-9.71-14.95-14.64-22.18-16.23s-19.7.9-19.7.9,1.69,63.75,2.12,64.21,9.62,15.4,9.62,15.4,26.43-1.36,28.91-5.74S452.1,243.52,452.1,243.52Z" style="fill:#455a64"></path><path d="M377.86,185.54c-.66.62-19.22,24.65-17.82,33.19s2.31,11.35,3.11,17.48c1.93,14.83-.51,22.82.16,29.43s4,9.16,4.67,8.75,19.6-13.43,29.73-18.29c18.33-8.8,22.19,9.27,26.45,8.78s5-2.38,5-2.38-6.14-.64-6.87-3.85-9.35-33.31-9.35-33.31l4.45-39.91L405.18,181l-21.51,2.44Z" style="fill:#407BFF"></path><path d="M384.83,185a4.94,4.94,0,0,0-3.38-1.22c-2.2,0-8.89-1.64-8.89-1.64l-7.38-5.91c-6.14,1.58-20.23,15.65-16.48,19.9l9.71,9.82,2.06,9.6,15.58-18.92Z" style="fill:#407BFF"></path><path d="M360.29,216.86s-5-10.77-1.23-20.45,11.3-18.64,22.44-20.24l0,2.27s-17.26,13.3-19,21.79-1.36,8.67-1.36,8.67Z" style="fill:#455a64"></path><path d="M365.08,197.17a4.47,4.47,0,0,0-.55.92,29,29,0,0,0-1.22,2.64,42.87,42.87,0,0,0-2.63,9.25,42.31,42.31,0,0,0-.5,9.6c.08,1.23.19,2.22.3,2.9a4.21,4.21,0,0,0,.22,1.05c.08,0-.1-1.52-.18-4a51.28,51.28,0,0,1,.64-9.51,50.67,50.67,0,0,1,2.47-9.2C364.49,198.57,365.15,197.2,365.08,197.17Z" style="fill:#263238"></path><path d="M407.65,242.6s-.14,0-.43-.1a9.43,9.43,0,0,0-1.28-.08,12.62,12.62,0,0,0-4.61,1,21.85,21.85,0,0,0-5.89,3.74c-2,1.7-4,3.73-6.31,5.71a61.26,61.26,0,0,1-12.48,9,41.26,41.26,0,0,1-4.26,1.9,12.53,12.53,0,0,0-1.6.6,1.29,1.29,0,0,0,.43-.08c.29-.07.7-.18,1.23-.34a34.63,34.63,0,0,0,4.36-1.76,57.81,57.81,0,0,0,12.65-8.91c2.27-2,4.3-4,6.27-5.73a22.55,22.55,0,0,1,5.74-3.77,13.18,13.18,0,0,1,4.47-1.1C407,242.55,407.65,242.64,407.65,242.6Z" style="fill:#263238"></path><path d="M443.94,196.84a19.91,19.91,0,0,1-2.58,8.21c-1.59,2.83-12.5,14.27-14.13,13.4s7.46-20.17,7.46-20.17Z" style="fill:#263238"></path><path d="M434.87,201.11c.62.45,32.7,21.29,33.44,27.71.48,4.07-2.58,8.72-6.93,11.67-6,4.09-20.56,13.34-20.56,13.34l-8-7.55s15-12.56,16.77-15.47l-26.43-15.66Z" style="fill:#ffbf9d"></path><path d="M456,227.06a2.27,2.27,0,0,0-1.21-.09,6.8,6.8,0,0,0-2.79.94,6.65,6.65,0,0,0-2.14,2c-.42.63-.55,1.09-.5,1.11a9.38,9.38,0,0,1,6.64-4Z" style="fill:#ff9a6c"></path><path d="M411.69,183.35s7,1.34,11.31,3.45,20.94,10,20.94,10a26.23,26.23,0,0,0-9.54,7.32c-3.9,5-7.17,14.29-7.17,14.29L414,211.3Z" style="fill:#407BFF"></path><path d="M411.12,177.33s-7-1.08-8.08,5.76.34,19.14,1.81,25.07,9.67,14.46,9.67,14.46l.35-9a41.32,41.32,0,0,1-4.15-19.91c.54-11.32,1-13.72,2.85-14.49s6.06,6.08,6.06,6.08l2.09.74S419.19,176.94,411.12,177.33Z" style="fill:#455a64"></path><polygon points="420.99 257.27 408.88 226.97 427.56 210.76 432.02 210.92 447.65 243.93 426.13 261.13 422.4 260.9 420.99 257.27" style="fill:#263238"></polygon><path d="M427.26,259.55a7.91,7.91,0,0,0-.49-1.24c-.38-.87-.88-2-1.47-3.31-1.25-2.79-3-6.65-4.78-10.94s-3.4-8.21-4.53-11l-1.36-3.36a6.79,6.79,0,0,0-.55-1.21,7.17,7.17,0,0,0,.37,1.28c.27.81.69,2,1.21,3.41,1.06,2.87,2.59,6.81,4.41,11.11s3.59,8.14,4.92,10.9c.66,1.38,1.21,2.49,1.61,3.24A6.29,6.29,0,0,0,427.26,259.55Z" style="fill:#455a64"></path><path d="M432.79,246.28s-5-3.08-5.77-3.72-5.38-.41-6.24-1.29-2.75-.33-2.13,1.84,3.76,4.11,6.15,3.89c0,0-7.26,3.81-7.3,4.88a2.2,2.2,0,0,0,1.6,2.36s-2.45,2.13.79,3.93c0,0-1.06,1.8,2,3,0,0-.74,1.29,1.57,2s4.58,1.81,6.17.21,10.19-8.85,10.19-8.85l9.42-6.9-3.75-12.56Z" style="fill:#ffbf9d"></path><path d="M423.87,252.94a10.2,10.2,0,0,0-2.43.69,10.46,10.46,0,0,0-2.39.81,7.62,7.62,0,0,0,4.82-1.5Z" style="fill:#ff9a6c"></path><path d="M425.6,257.88a8,8,0,0,0-2.77-.09,7.67,7.67,0,0,0-2.74.4,8.26,8.26,0,0,0,2.77.09A7.67,7.67,0,0,0,425.6,257.88Z" style="fill:#ff9a6c"></path><path d="M426.22,261.21a4.94,4.94,0,0,0-2.14-.42,5.22,5.22,0,0,0-2.18.07,9.68,9.68,0,0,0,4.32.35Z" style="fill:#ff9a6c"></path><path d="M426.13,251.63c.07-.13-.4-.5-.54-1.17s.1-1.2,0-1.28-.21.06-.35.31a1.67,1.67,0,0,0-.12,1.08,1.65,1.65,0,0,0,.58.93C425.92,251.66,426.11,251.68,426.13,251.63Z" style="fill:#ff9a6c"></path><path d="M427.59,255.38c.09-.11-.28-.54-.4-1.2s.06-1.18-.06-1.25-.58.5-.42,1.35S427.53,255.5,427.59,255.38Z" style="fill:#ff9a6c"></path><path d="M428.91,260c.06-.13-.4-.47-.59-1.11s0-1.17-.16-1.24-.2.08-.3.34a1.67,1.67,0,0,0,.61,1.9C428.7,260,428.88,260,428.91,260Z" style="fill:#ff9a6c"></path><path d="M421.71,186.29a6.91,6.91,0,0,0-.79-2.44,13.68,13.68,0,0,0-3.8-4.91,3.46,3.46,0,0,0-1.73-.67,2.85,2.85,0,0,0-1.7.44A4.28,4.28,0,0,0,412,181a9.17,9.17,0,0,0-.39,1.85,2.17,2.17,0,0,0,0,.69c.1,0,.2-1,.74-2.42a4,4,0,0,1,1.62-2,2.39,2.39,0,0,1,1.42-.35,3.08,3.08,0,0,1,1.49.6,12.11,12.11,0,0,1,2.29,2.36,16.76,16.76,0,0,1,1.48,2.3C421.34,185.39,421.64,186.32,421.71,186.29Z" style="fill:#263238"></path><path d="M414.47,179.23c-.08.12,1.27,1.13,2.45,2.79s1.71,3.26,1.85,3.22a8.39,8.39,0,0,0-4.3-6Z" style="fill:#263238"></path><path d="M418.64,219c.11-.1-1.51-2-3-4.58s-2.37-4.93-2.51-4.88a19.44,19.44,0,0,0,5.54,9.46Z" style="fill:#263238"></path><polygon points="410.18 226.76 428.19 210.79 431.25 210.89 413.34 226.87 410.18 226.76" style="fill:#fff"></polygon><path d="M446,374l-1.95.11c.68-6.44-.17-11-3.35-16.31a30.64,30.64,0,0,1,11.84-4.28l8,36.7C456.93,390.78,446,374,446,374Z" style="fill:#455a64"></path><path d="M452.5,353.5l-3,.66,8.77,35s1.06,1.47,2.17,1Z" style="fill:#e0e0e0"></path><path d="M445.84,373.49c.18-.05.06-1,.45-2s1-1.66.92-1.81-1.08.36-1.52,1.59S445.68,373.57,445.84,373.49Z" style="fill:#263238"></path><path d="M447.46,360.2a1,1,0,0,0,.73-1.2,1,1,0,0,0-1.18-.72,1,1,0,0,0-.73,1.19A1,1,0,0,0,447.46,360.2Z" style="fill:#e0e0e0"></path><path d="M445.66,373.24a2.21,2.21,0,0,0,0-.79,4.06,4.06,0,0,0-.62-2.09,2.85,2.85,0,0,0-.49-.56,1.71,1.71,0,0,0-.73-.45.89.89,0,0,0-1,.35,1.34,1.34,0,0,0-.17,1,3.87,3.87,0,0,0,2.89,2.76l0-.5a3.61,3.61,0,0,0-.83.17,4.23,4.23,0,0,0-2.88,3.19,1.29,1.29,0,0,0,0,.59.77.77,0,0,0,.42.49,1.37,1.37,0,0,0,1,0,3.11,3.11,0,0,0,1.33-1.06,5.37,5.37,0,0,0,.85-2.23,3.22,3.22,0,0,0,.11-.86,2.43,2.43,0,0,0-.31.81,5.73,5.73,0,0,1-.94,2.05,2.8,2.8,0,0,1-1.18.89,1,1,0,0,1-.71,0c-.18-.08-.21-.25-.14-.56a3.79,3.79,0,0,1,2.57-2.8,3.16,3.16,0,0,1,.73-.15.26.26,0,0,0,.23-.28.25.25,0,0,0-.2-.23,3.47,3.47,0,0,1-2.55-2.37c-.15-.5.18-1,.58-.87a2.46,2.46,0,0,1,1,.82,4.39,4.39,0,0,1,.71,1.91C445.57,373,445.62,373.25,445.66,373.24Z" style="fill:#263238"></path><path d="M447.66,376.56a11.92,11.92,0,0,1,.63-2.19,13,13,0,0,1,1.36-1.84,2.93,2.93,0,0,0-1.72,1.67A2.85,2.85,0,0,0,447.66,376.56Z" style="fill:#263238"></path><path d="M449.42,378.88c.12,0,.29-.9.84-1.88s1.22-1.62,1.14-1.71-.92.46-1.5,1.52A3,3,0,0,0,449.42,378.88Z" style="fill:#263238"></path><path d="M413.29,150a25.31,25.31,0,0,1,1.61-7.67l-2.68-14.09c.42-5.71,6.84-4.22,9-2.67a13.35,13.35,0,0,1,4.53,6.44c.59,1.64,1.21,3.61,2.88,4.14a7,7,0,0,0,3.18-.18,9.49,9.49,0,0,1,10.85,11c2.72-1.31,6.2.16,7.84,2.7s1.74,5.81,1.09,8.76c-.83,3.81-3,7.49-6.36,9.41s-8.11,1.7-10.81-1.11a4.87,4.87,0,0,1-5,3.34,7,7,0,0,1-5.29-3.43,13.15,13.15,0,0,1-1.74-6.24,7.57,7.57,0,0,1-6.89-3A11.61,11.61,0,0,1,413.29,150Z" style="fill:#263238"></path><path d="M419.7,136.68c-.19-2.78-1.86-5.24-3.81-7.23a7.08,7.08,0,0,0-2.85-2,3,3,0,0,0-3.19.79l-.12,1.94c-.69,3,1.3,5.94,2,9,.31,1.31.49,2.86,1.64,3.57a2.9,2.9,0,0,0,2.05.27C418.18,142.49,419.89,139.45,419.7,136.68Z" style="fill:#455a64"></path><path d="M417.94,150.86a6.23,6.23,0,0,0,.47-8c1.31-1.27,1.18-3.5.22-5.05a12.28,12.28,0,0,0-4.11-3.55,8.37,8.37,0,0,0-8.89-7.31c-1.74-3.43-6.25-4.52-10.06-3.92a9.74,9.74,0,0,1-2.79.24,15.55,15.55,0,0,1-2-.54c-3.66-1-7.7,1.16-9.6,4.45a7.33,7.33,0,0,1-1,1.51,9.54,9.54,0,0,1-2,1.23,6,6,0,0,0-2.85,4.11c-.24,1.44,0,3-.76,4.27-.39.62-1,1.09-1.34,1.74-.95,1.9,1,4.22.32,6.23-.14.41-.38.78-.55,1.18a3.7,3.7,0,0,0-.1,2.6,5.58,5.58,0,0,1,.57,1.95,6.08,6.08,0,0,1-.5,1.47c-.41,1.2,1.64,6.29,2.61,7.1l31.81,4.4a6,6,0,0,0,5.26-4.53,2.22,2.22,0,0,1,.45-1.13,2.58,2.58,0,0,1,.94-.46c2.19-.83,2.8-3.62,2.89-6a2.85,2.85,0,0,1,.14-1A3.67,3.67,0,0,1,417.94,150.86Z" style="fill:#263238"></path><path d="M408.86,149.74a17.2,17.2,0,0,0-7.12-16,21.42,21.42,0,0,0-7.89-3,13,13,0,0,0-7.71.61c-1.81.19-9,5.24-10.16,11.59-1.28,7.05-2.58,15.71-2.36,21.11.43,10.86,8.44,13.18,8.44,13.18s-1.37,8.4-1.37,8.4l-1.75,6.53L402,181Z" style="fill:#ffbf9d"></path><path d="M379.75,152.82a1.37,1.37,0,0,0,1.15,1.53,1.31,1.31,0,0,0,1.56-1.06,1.38,1.38,0,0,0-1.16-1.54A1.31,1.31,0,0,0,379.75,152.82Z" style="fill:#263238"></path><path d="M377.9,147.26c.15.2,1.28-.44,2.75-.27s2.46,1,2.64.88-.05-.41-.48-.81a3.77,3.77,0,0,0-2.09-.92,3.67,3.67,0,0,0-2.21.43C378,146.87,377.83,147.17,377.9,147.26Z" style="fill:#263238"></path><path d="M385.13,159.89a10.38,10.38,0,0,0-2.33-.71c-.38-.08-.72-.2-.75-.46a1.88,1.88,0,0,1,.38-1.09l1.45-2.72c2-3.89,3.53-7.11,3.37-7.19s-1.92,3-3.94,6.9l-1.41,2.75a2.22,2.22,0,0,0-.37,1.45.94.94,0,0,0,.56.62,3.08,3.08,0,0,0,.62.17A9.27,9.27,0,0,0,385.13,159.89Z" style="fill:#263238"></path><path d="M382.06,177.18a27.29,27.29,0,0,0,14.72-2.12s-4.67,7.21-15.22,4.95Z" style="fill:#ff9a6c"></path><path d="M379.15,141.82c.2.39,1.36.28,2.66.55s2.35.74,2.68.45c.15-.14,0-.51-.37-.93a4,4,0,0,0-2-1,3.92,3.92,0,0,0-2.26.2C379.28,141.33,379.06,141.63,379.15,141.82Z" style="fill:#263238"></path><path d="M395.92,155a1.39,1.39,0,0,1-1.53,1.17,1.33,1.33,0,0,1-1.21-1.45,1.39,1.39,0,0,1,1.53-1.17A1.33,1.33,0,0,1,395.92,155Z" style="fill:#263238"></path><path d="M398,150.22c-.2.15-1.11-.77-2.57-1s-2.66.34-2.79.14.16-.39.68-.66a3.8,3.8,0,0,1,2.26-.32,3.56,3.56,0,0,1,2,1C398,149.81,398.05,150.15,398,150.22Z" style="fill:#263238"></path><path d="M399,145.34c-.34.28-1.42-.24-2.77-.47s-2.55-.17-2.76-.55c-.09-.19.15-.5.7-.73a4.49,4.49,0,0,1,4.45.82C399,144.83,399.11,145.19,399,145.34Z" style="fill:#263238"></path><path d="M405.9,159.63c.09-.79,1.23-2.56,2-2.59,2.13-.08,5.89.54,5.29,5.86-.81,7.27-7.22,4.73-7.93,4.75C404,167.67,405.57,162.37,405.9,159.63Z" style="fill:#ffbf9d"></path><path d="M407.59,165.21s.12.11.32.23a1.28,1.28,0,0,0,.95.12,3.13,3.13,0,0,0,1.76-2.65,4.33,4.33,0,0,0-.15-1.85,1.48,1.48,0,0,0-.85-1.08.65.65,0,0,0-.78.26c-.12.2-.09.35-.13.36s-.15-.14,0-.44a.79.79,0,0,1,.33-.42,1,1,0,0,1,.72-.11,1.79,1.79,0,0,1,1.2,1.28,4.16,4.16,0,0,1,.21,2.07c-.21,1.46-1.11,2.75-2.19,2.94a1.41,1.41,0,0,1-1.14-.32C407.58,165.39,407.56,165.22,407.59,165.21Z" style="fill:#ff9a6c"></path><path d="M374.31,142.79a4.26,4.26,0,0,0,2.78-3.62c.94.41,2.08-.73,2.74-1.5s1.42-1.12,1.49-2.14a1.17,1.17,0,0,1,.15-.58,1.24,1.24,0,0,1,.85-.37,4.9,4.9,0,0,0,3.6-3,10.38,10.38,0,0,0,4.89,1.41,4,4,0,0,0,6.69.5,3.6,3.6,0,0,0,2.15,2,10.79,10.79,0,0,0,3,.52,4.19,4.19,0,0,0,2.18,5c.25.11.54.23.63.48a1.09,1.09,0,0,1-.21.8,3.31,3.31,0,0,0,1.7,4.44,2.46,2.46,0,0,0-.23,3.86c.24.19.56.42.49.72a.66.66,0,0,1-.2.29,4.78,4.78,0,0,0-1.43,2.27,1.76,1.76,0,0,0,1.21,2.11,2.39,2.39,0,0,0-1.12,1.48c-.08.63.48,1.35,1.1,1.2.26-.07,4-.35,4.15-.55,2.38-2.55.17-5.94.37-9.42a22.68,22.68,0,0,0-2-10.19,17,17,0,0,0-2.16-3.81,22.76,22.76,0,0,0-3.65-3.42,20.19,20.19,0,0,0-5.5-3.47c-3.81-1.39-8.05-.45-11.91.81a16.76,16.76,0,0,0-4.22,1.85,15.72,15.72,0,0,0-3.85,3.95,19.41,19.41,0,0,0-3.51,7.13" style="fill:#263238"></path><path d="M373.19,140.08a2.89,2.89,0,0,1,.48-.73c.19-.23.44-.48.69-.82a3.39,3.39,0,0,0,.57-1.3,10.65,10.65,0,0,0,.18-1.81,7.73,7.73,0,0,1,.32-2.15,6,6,0,0,1,1.23-2.17,6,6,0,0,1,1-.92,9.14,9.14,0,0,1,1.26-.72,4.31,4.31,0,0,0,1.21-.82,5.85,5.85,0,0,0,.86-1.28,9.82,9.82,0,0,1,5.17-4.43,9.22,9.22,0,0,1,1.83-.44,7.87,7.87,0,0,1,1.94,0,8.81,8.81,0,0,1,1,.2l.94.29a4.73,4.73,0,0,0,1.94.23c.67,0,1.33-.2,2-.29a13.31,13.31,0,0,1,2.1-.12,14,14,0,0,1,2.13.24,10.9,10.9,0,0,1,2.08.65,7.19,7.19,0,0,1,3.37,2.85l.23.39-.11-.06a8.5,8.5,0,0,1,9,7.41l-.05-.08a24,24,0,0,1,2.38,1.66,7.62,7.62,0,0,1,1.86,2.11,5.06,5.06,0,0,1,.64,2.62,3.43,3.43,0,0,1-1,2.37v-.12a6,6,0,0,1,1.22,3.93,6.15,6.15,0,0,1-1.19,3.52,7.3,7.3,0,0,1-.57.66,8,8,0,0,0-.58.59,1.51,1.51,0,0,0-.34.68,3.81,3.81,0,0,0-.07.75,12.34,12.34,0,0,1-.41,2.75,5.71,5.71,0,0,1-1,2,3.69,3.69,0,0,1-1.27,1c-.41.2-.75.26-.95.37a1,1,0,0,0-.29.19.75.75,0,0,1,.28-.22c.2-.12.54-.19.93-.39a3.6,3.6,0,0,0,1.24-1,5.89,5.89,0,0,0,.93-2,12.22,12.22,0,0,0,.38-2.72,4.26,4.26,0,0,1,.07-.78,1.62,1.62,0,0,1,.37-.74,5.48,5.48,0,0,1,.58-.6,5.72,5.72,0,0,0,.55-.65,6,6,0,0,0,1.14-3.44,5.86,5.86,0,0,0-1.2-3.81l-.05-.06.06-.06a3.28,3.28,0,0,0,.93-2.25,4.84,4.84,0,0,0-.63-2.52,7.47,7.47,0,0,0-1.81-2,24,24,0,0,0-2.36-1.63l-.05,0v-.05a8.3,8.3,0,0,0-8.78-7.21h-.07l0-.07-.22-.37a7,7,0,0,0-3.26-2.77,11.74,11.74,0,0,0-2-.64,12.49,12.49,0,0,0-2.1-.23,13,13,0,0,0-2.07.11c-.67.09-1.35.24-2,.29a5.07,5.07,0,0,1-1,0,7.93,7.93,0,0,1-1-.23l-.94-.3c-.31-.07-.62-.15-.94-.19a7.89,7.89,0,0,0-1.88,0,8.68,8.68,0,0,0-1.79.44,9.21,9.21,0,0,0-3,1.78,9.4,9.4,0,0,0-2.08,2.54,6.2,6.2,0,0,1-.88,1.32,4.62,4.62,0,0,1-1.26.84,8.68,8.68,0,0,0-1.24.7,6.11,6.11,0,0,0-1,.89,5.84,5.84,0,0,0-1.21,2.12,7.83,7.83,0,0,0-.33,2.12,10.6,10.6,0,0,1-.21,1.81,3.56,3.56,0,0,1-.6,1.33c-.26.34-.51.59-.7.81a4.41,4.41,0,0,0-.4.51A1.25,1.25,0,0,1,373.19,140.08Z" style="fill:#455a64"></path><path d="M402.41,125s-.18-.13-.51-.34a4.85,4.85,0,0,0-1.53-.66,4.7,4.7,0,0,0-2.43.06,4.8,4.8,0,0,0-2.41,1.71,4.35,4.35,0,0,0-.46.77.93.93,0,0,0,0,.78l.15.26-.28-.11a3,3,0,0,0-2.28,0,3,3,0,0,0-1.4,1.2,3.35,3.35,0,0,0-.43,1.16c0,.29,0,.45-.05.45s0,0,0-.12a1.87,1.87,0,0,1,0-.34,3.07,3.07,0,0,1,.38-1.22,3,3,0,0,1,1.45-1.3,3.14,3.14,0,0,1,2.43,0l-.14.15a1.15,1.15,0,0,1,0-1,5,5,0,0,1,.48-.83,4.9,4.9,0,0,1,2.54-1.76,4.59,4.59,0,0,1,2.52,0,4.81,4.81,0,0,1,1.54.73c.16.13.28.23.35.3S402.42,125,402.41,125Z" style="fill:#455a64"></path><path d="M413.19,134.75s-.09.1-.29.23a4.63,4.63,0,0,1-.89.47,3.39,3.39,0,0,1-1.5.26,2.61,2.61,0,0,1-1.74-.76h.17l-.25.27-.28.26a4.43,4.43,0,0,1-2,.91,4.48,4.48,0,0,1-1.75,0,4.13,4.13,0,0,1-1.12-.4,1.49,1.49,0,0,1-.35-.25,6.29,6.29,0,0,0,1.49.49,4.44,4.44,0,0,0,1.69,0,4.32,4.32,0,0,0,1.85-.88l.27-.24.24-.26.08-.09.08.09a2.53,2.53,0,0,0,1.6.72,3.51,3.51,0,0,0,1.43-.21A13,13,0,0,0,413.19,134.75Z" style="fill:#455a64"></path><path d="M416.21,142s0,.05,0,.13a1.25,1.25,0,0,1-.21.34,1.92,1.92,0,0,1-1.26.63,3.67,3.67,0,0,1-2-.47,12,12,0,0,1-1.09-.6,2,2,0,0,1-.89-1l0-.12.16.07a8.25,8.25,0,0,1-2.31,1,3.79,3.79,0,0,1-2.07,0,2.63,2.63,0,0,1-1.18-.73,1.19,1.19,0,0,1-.23-.3q-.07-.1-.06-.12s.11.14.35.36a2.86,2.86,0,0,0,1.17.64,3.75,3.75,0,0,0,2,0,8.64,8.64,0,0,0,2.25-1l.12-.08,0,.15,0,.11a1.77,1.77,0,0,0,.8.91,10.32,10.32,0,0,0,1.06.59,3.62,3.62,0,0,0,1.94.51,1.93,1.93,0,0,0,1.22-.54A2.43,2.43,0,0,0,416.21,142Z" style="fill:#455a64"></path><path d="M389.51,163.94a2.85,2.85,0,0,0-.21-1,1,1,0,0,0-.74-.59,1.4,1.4,0,0,0-.69.16L385,163.71l-.33.61a7.2,7.2,0,0,0,1.69,2.37,1.56,1.56,0,0,0,.75.44,1.75,1.75,0,0,0,1.06-.33,3,3,0,0,0,1.09-.89A3,3,0,0,0,389.51,163.94Z" style="fill:#ff9a6c"></path><path d="M387,167.31a5.12,5.12,0,0,0,1.41-.66,2.86,2.86,0,0,0,1-1.29,3,3,0,0,0,0-2,3.38,3.38,0,0,0-.22-.47,1.26,1.26,0,0,0-.29-.37.39.39,0,0,0-.34-.09,2.37,2.37,0,0,0-.44.16l-1.61.65a7.83,7.83,0,0,1-1.52.52,6.36,6.36,0,0,1,1.42-.76c.44-.22,1-.46,1.57-.73a2.47,2.47,0,0,1,.51-.2.76.76,0,0,1,.64.16,1.41,1.41,0,0,1,.38.47,2.65,2.65,0,0,1,.25.54,3.13,3.13,0,0,1,0,2.2,3,3,0,0,1-1.15,1.39,2.69,2.69,0,0,1-1.12.44C387.14,167.35,387,167.33,387,167.31Z" style="fill:#263238"></path><path d="M415.72,308.14a7.3,7.3,0,0,1,.07-1.46c.08-.93.18-2.28.27-3.94a93.51,93.51,0,0,0-2.17-25.91c-.37-1.63-.69-2.94-.93-3.85a8.49,8.49,0,0,1-.31-1.42,8.5,8.5,0,0,1,.5,1.37c.3.89.68,2.19,1.1,3.81a81.2,81.2,0,0,1,2.15,12.92,80.33,80.33,0,0,1,0,13.1c-.14,1.67-.29,3-.44,3.95A8.74,8.74,0,0,1,415.72,308.14Z" style="fill:#455a64"></path><path d="M399.3,318.8a1.67,1.67,0,0,1,.08-.49c.08-.37.19-.82.32-1.37.3-1.19.71-2.92,1.16-5.07a120.24,120.24,0,0,0,2.29-34.06c-.16-2.19-.33-4-.47-5.18-.06-.56-.1-1-.14-1.4a1.89,1.89,0,0,1,0-.5,1.48,1.48,0,0,1,.11.48c.07.38.15.84.24,1.4.2,1.21.43,3,.64,5.17a109.63,109.63,0,0,1,.22,17.18,108.43,108.43,0,0,1-2.52,17c-.5,2.14-1,3.87-1.32,5l-.42,1.35A1.86,1.86,0,0,1,399.3,318.8Z" style="fill:#455a64"></path><path d="M378.29,321.21a1.63,1.63,0,0,1,.17-.46c.15-.35.34-.77.57-1.28.51-1.11,1.22-2.72,2.08-4.72a150.05,150.05,0,0,0,5.73-16,147.85,147.85,0,0,0,3.79-16.57c.36-2.15.63-3.89.8-5.1q.12-.82.21-1.38a2.13,2.13,0,0,1,.1-.48,1.53,1.53,0,0,1,0,.49c0,.38-.07.84-.11,1.4-.11,1.21-.32,3-.63,5.13a124.86,124.86,0,0,1-9.56,32.66c-.89,2-1.66,3.58-2.23,4.66l-.66,1.24A2.06,2.06,0,0,1,378.29,321.21Z" style="fill:#455a64"></path><path d="M356,313.37a11.06,11.06,0,0,1,1.2-1.28c.8-.79,1.94-2,3.32-3.42a124.15,124.15,0,0,0,10-12.09A125.45,125.45,0,0,0,379,283.3c1-1.77,1.72-3.21,2.22-4.22a10.37,10.37,0,0,1,.85-1.53,13.13,13.13,0,0,1-.66,1.62c-.45,1-1.16,2.51-2.09,4.3a106,106,0,0,1-18.49,25.45c-1.42,1.44-2.6,2.57-3.45,3.32A13.14,13.14,0,0,1,356,313.37Z" style="fill:#455a64"></path></g></svg>
