<svg width="473" height="403" viewBox="0 0 473 403" fill="none" xmlns="http://www.w3.org/2000/svg">
<path d="M236.5 402.299C367.115 402.299 473 396.676 473 389.738C473 382.801 367.115 377.178 236.5 377.178C105.885 377.178 0 382.801 0 389.738C0 396.676 105.885 402.299 236.5 402.299Z" fill="#F5F5F5"/>
<path d="M234.622 230.882C238.842 248.958 216.203 256.603 206.799 248.636C197.394 240.669 197.858 216.313 185.172 215.67C203.481 202.776 230.511 213.295 234.622 230.882Z" fill="#263238"/>
<path d="M216.155 343.652C215.637 343.653 215.137 343.48 214.75 343.167C214.363 342.854 214.117 342.423 214.057 341.955C209.373 306.103 215.276 220.464 263.555 184.557C263.768 184.38 264.018 184.245 264.291 184.16C264.563 184.074 264.852 184.04 265.139 184.059C265.427 184.078 265.707 184.15 265.963 184.271C266.218 184.392 266.444 184.559 266.627 184.762C266.809 184.965 266.944 185.2 267.024 185.452C267.103 185.704 267.126 185.968 267.089 186.228C267.053 186.488 266.959 186.739 266.812 186.965C266.666 187.191 266.471 187.387 266.238 187.542C219.35 222.428 213.666 306.336 218.265 341.5C218.327 342.007 218.167 342.516 217.82 342.916C217.473 343.317 216.967 343.577 216.411 343.641L216.155 343.652Z" fill="#407BFF"/>
<path d="M198.956 389.679H233.329C234.482 389.679 235.601 389.322 236.501 388.666C237.401 388.011 238.029 387.096 238.281 386.072L252.626 328.229C252.792 327.552 252.789 326.85 252.617 326.174C252.445 325.499 252.108 324.867 251.631 324.326C251.155 323.785 250.55 323.348 249.863 323.048C249.176 322.747 248.423 322.592 247.661 322.592H184.624C183.862 322.591 183.109 322.747 182.423 323.047C181.736 323.347 181.132 323.784 180.656 324.326C180.181 324.867 179.845 325.499 179.675 326.175C179.504 326.851 179.503 327.553 179.672 328.229L194.004 386.083C194.26 387.104 194.89 388.015 195.789 388.668C196.689 389.321 197.805 389.677 198.956 389.679Z" fill="#407BFF"/>
<path opacity="0.6" d="M198.956 389.679H233.329C234.482 389.679 235.601 389.322 236.501 388.666C237.401 388.011 238.029 387.096 238.281 386.072L252.626 328.229C252.792 327.552 252.789 326.85 252.617 326.174C252.445 325.499 252.108 324.867 251.631 324.326C251.155 323.785 250.55 323.348 249.863 323.048C249.176 322.747 248.423 322.592 247.661 322.592H184.624C183.862 322.591 183.109 322.747 182.423 323.047C181.736 323.347 181.132 323.784 180.656 324.326C180.181 324.867 179.845 325.499 179.675 326.175C179.504 326.851 179.503 327.553 179.672 328.229L194.004 386.083C194.26 387.104 194.89 388.015 195.789 388.668C196.689 389.321 197.805 389.677 198.956 389.679Z" fill="white"/>
<path d="M230.792 234.489C230.627 234.486 230.464 234.468 230.304 234.434C230.034 234.376 229.779 234.271 229.554 234.124C229.329 233.977 229.138 233.791 228.991 233.576C228.845 233.362 228.747 233.124 228.702 232.875C228.657 232.626 228.667 232.371 228.73 232.126C228.73 231.848 235.622 204.563 225.144 188.529C224.858 188.088 224.776 187.561 224.917 187.065C225.058 186.568 225.409 186.143 225.894 185.883C226.38 185.622 226.959 185.548 227.504 185.676C228.05 185.804 228.517 186.124 228.804 186.565C240.196 203.931 233.231 231.848 232.902 232.958C232.8 233.396 232.534 233.789 232.149 234.068C231.764 234.347 231.284 234.496 230.792 234.489Z" fill="#407BFF"/>
<path d="M248.625 177.877C247.771 195.298 289.341 203.609 302.66 196.241C315.98 188.873 306.576 165.172 328.105 164.995C292.109 151.735 249.454 160.922 248.625 177.877Z" fill="#407BFF"/>
<path d="M238.562 180.418C246.466 194.61 224.693 202.999 213.532 197.451C202.371 191.903 197.944 172.174 184.819 172.895C201.054 160.723 230.865 166.604 238.562 180.418Z" fill="#407BFF"/>
<path d="M214.935 314.347H214.85C214.29 314.324 213.762 314.102 213.381 313.728C213 313.354 212.796 312.859 212.813 312.35C212.813 312.061 213.752 283.323 196.004 279.85C195.456 279.742 194.977 279.441 194.673 279.012C194.368 278.584 194.264 278.063 194.382 277.564C194.5 277.065 194.831 276.629 195.302 276.353C195.773 276.076 196.346 275.981 196.895 276.088C218.106 280.227 217.106 311.174 217.045 312.494C217.026 312.992 216.795 313.463 216.402 313.809C216.008 314.154 215.482 314.348 214.935 314.347Z" fill="#407BFF"/>
<path d="M208.958 273.237C214.471 282.535 197.565 293.864 189.21 292.1C180.855 290.336 178.232 275.877 168.193 279.362C181.05 266.246 203.591 264.193 208.958 273.237Z" fill="#407BFF"/>
<path d="M217.118 287.163C216.964 287.179 216.808 287.179 216.654 287.163C216.108 287.049 215.634 286.744 215.332 286.314C215.031 285.885 214.928 285.365 215.044 284.866C215.361 283.557 223.095 252.743 246.197 244.543C246.459 244.437 246.743 244.381 247.029 244.378C247.316 244.375 247.601 244.425 247.866 244.524C248.131 244.624 248.371 244.771 248.572 244.958C248.773 245.144 248.93 245.366 249.034 245.609C249.138 245.852 249.187 246.112 249.177 246.373C249.168 246.634 249.1 246.89 248.978 247.126C248.857 247.363 248.684 247.574 248.47 247.748C248.256 247.922 248.006 248.055 247.734 248.138C226.718 255.595 219.253 285.399 219.179 285.698C219.067 286.118 218.802 286.491 218.428 286.756C218.054 287.022 217.593 287.165 217.118 287.163Z" fill="#407BFF"/>
<path d="M242.49 234.424C225.84 242.346 237.074 259.279 250.052 259.945C263.03 260.61 280.912 246.529 290.878 253.209C286.804 235.755 258.712 226.712 242.49 234.424Z" fill="#407BFF"/>
<path d="M106.035 166.001C105.505 165.642 105.151 165.107 105.053 164.512C104.955 163.918 105.119 163.312 105.511 162.827L210.484 32.9145C210.878 32.4316 211.466 32.1103 212.12 32.0209C212.774 31.9315 213.44 32.0812 213.972 32.4373C214.503 32.7958 214.856 33.3309 214.955 33.9256C215.053 34.5203 214.888 35.1262 214.497 35.6108L109.524 165.512C109.335 165.759 109.093 165.967 108.813 166.126C108.533 166.285 108.221 166.39 107.895 166.436C107.568 166.481 107.236 166.466 106.916 166.392C106.596 166.317 106.297 166.184 106.035 166.001Z" fill="#407BFF"/>
<path d="M265.283 90.4232L261.39 95.2856L262.397 95.9534L266.291 91.091L265.283 90.4232Z" fill="#407BFF"/>
<path d="M270.459 88.2278L269.447 87.562C270.687 86.0213 271.207 84.0965 270.891 82.2084C270.576 80.3203 269.451 78.6227 267.764 77.4868L241.026 59.611L241.758 58.7012L268.544 76.5437C269.514 77.1957 270.334 78.0154 270.955 78.9559C271.577 79.8963 271.988 80.9391 272.166 82.0244C272.344 83.1097 272.285 84.2163 271.992 85.2807C271.699 86.3452 271.178 87.3467 270.459 88.2278Z" fill="#407BFF"/>
<path d="M225.853 129.383L108.756 51.1C108.247 50.7599 107.817 50.3319 107.49 49.8405C107.163 49.3491 106.946 48.8039 106.851 48.2361C106.756 47.6684 106.784 47.0891 106.935 46.5314C107.086 45.9738 107.357 45.4486 107.731 44.9861L142.153 2.38826C142.526 1.92427 142.996 1.53192 143.536 1.23376C144.076 0.935595 144.676 0.737502 145.3 0.650882C145.925 0.564262 146.562 0.590816 147.175 0.72902C147.789 0.867224 148.366 1.11436 148.874 1.45619L265.971 79.739C266.479 80.0781 266.909 80.5051 267.236 80.9955C267.562 81.4859 267.78 82.0302 267.875 82.597C267.97 83.1639 267.941 83.7423 267.79 84.2991C267.64 84.8558 267.369 85.3801 266.996 85.8418L232.574 128.451C232.201 128.915 231.731 129.307 231.191 129.605C230.651 129.903 230.051 130.101 229.426 130.188C228.802 130.275 228.165 130.248 227.551 130.11C226.938 129.972 226.361 129.725 225.853 129.383Z" fill="white"/>
<path d="M228.634 130.803C227.481 130.802 226.358 130.468 225.426 129.849L108.329 51.5552C107.752 51.1731 107.264 50.6908 106.893 50.1362C106.522 49.5816 106.276 48.9657 106.168 48.324C106.061 47.6823 106.094 47.0276 106.266 46.3976C106.438 45.7676 106.745 45.1748 107.17 44.6535L141.592 2.04456C142.437 0.983491 143.711 0.270781 145.133 0.0627648C146.555 -0.145251 148.01 0.168413 149.179 0.934953L266.276 79.2288C267.431 80.0058 268.203 81.1662 268.423 82.4578C268.533 83.0997 268.501 83.7552 268.33 84.3859C268.158 85.0166 267.849 85.6097 267.423 86.1306L233.001 128.739C232.147 129.79 230.871 130.492 229.451 130.692C229.182 130.745 228.909 130.782 228.634 130.803ZM226.195 128.928C227.072 129.512 228.166 129.76 229.242 129.619C230.318 129.478 231.291 128.959 231.952 128.174L266.386 85.5647C267.041 84.7538 267.315 83.7396 267.148 82.745C266.981 81.7504 266.386 80.8568 265.495 80.2608L148.398 1.96689C147.957 1.67051 147.456 1.4563 146.924 1.33657C146.392 1.21684 145.839 1.19396 145.298 1.26924C144.756 1.34451 144.236 1.51645 143.767 1.77519C143.299 2.03393 142.891 2.37435 142.568 2.7769L108.134 45.3858C107.478 46.196 107.202 47.2093 107.365 48.2042C107.446 48.6981 107.634 49.1724 107.919 49.5992C108.204 50.026 108.58 50.3967 109.024 50.6897L226.195 128.928Z" fill="#407BFF"/>
<path d="M137.359 88.6052C137.835 89.5373 138.152 90.203 138.506 90.9798C138.859 91.7565 139.164 92.4777 139.482 93.199C140.116 94.6859 140.701 96.1949 141.189 97.704C142.231 100.73 143.094 103.804 143.775 106.914C144.141 108.467 144.422 110.043 144.702 111.618C144.983 113.194 145.166 114.803 145.3 116.412C145.616 119.659 145.693 122.921 145.532 126.176V126.731C145.519 127.087 145.462 127.441 145.361 127.785C144.729 129.983 143.681 132.063 142.263 133.933C141.159 135.408 139.936 136.806 138.603 138.116C136.233 140.473 133.668 142.661 130.931 144.663C128.296 146.604 125.601 148.402 122.844 150.077C120.085 151.76 117.236 153.315 114.306 154.738C113.329 155.215 112.197 155.36 111.113 155.148C110.029 154.936 109.063 154.38 108.389 153.579C107.714 152.779 107.374 151.786 107.43 150.778C107.486 149.771 107.935 148.815 108.695 148.08L108.792 147.98L115.111 141.778C117.196 139.692 119.246 137.617 121.209 135.519C123.08 133.524 124.831 131.439 126.454 129.272C127.155 128.345 127.775 127.369 128.308 126.354C128.654 125.797 128.87 125.181 128.943 124.545L128.76 126.165C128.516 123.591 128.223 121.017 127.699 118.398C127.174 115.779 126.589 113.205 125.832 110.631C125.076 108.057 124.271 105.449 123.393 102.864C122.929 101.588 122.429 100.323 121.954 99.0688L121.197 97.2158L120.49 95.5292L120.307 95.0964C119.476 93.0487 119.546 90.7884 120.501 88.7862C121.456 86.784 123.224 85.1941 125.435 84.3476C127.647 83.5011 130.132 83.4632 132.374 84.2418C134.615 85.0204 136.44 86.5556 137.469 88.5275L137.359 88.6052Z" fill="#B55B52"/>
<path d="M76.7246 25.202C68.8327 32.0816 69.8208 65.7138 73.0653 97.7149C76.3099 129.716 106.109 124.423 117.172 110.553C131.809 92.1113 115.342 64.5043 117.709 53.6302C120.282 41.8129 122.21 28.4421 106.621 20.342C89.6907 11.5206 75.017 18.1782 76.7246 25.202Z" fill="#263238"/>
<path d="M71.1622 100.756H71.1012C70.9252 100.739 70.7636 100.66 70.6517 100.535C70.5397 100.41 70.4865 100.251 70.5035 100.09C71.4915 91.2134 70.5889 79.6624 69.7229 68.4998C68.0884 47.5282 66.5393 27.7106 76.8951 24.6259C76.9783 24.6001 77.0664 24.5896 77.1542 24.5952C77.2419 24.6008 77.3275 24.6224 77.406 24.6586C77.4844 24.6948 77.5541 24.7449 77.6109 24.806C77.6677 24.8671 77.7105 24.9379 77.7367 25.0143C77.7908 25.1673 77.7762 25.3336 77.6963 25.4769C77.6163 25.6203 77.4775 25.7292 77.3098 25.7799C67.9542 28.565 69.5277 48.8264 71.0524 68.4221C71.9306 79.6291 72.8333 91.2134 71.8331 100.212C71.815 100.362 71.7364 100.501 71.6125 100.601C71.4886 100.702 71.3281 100.757 71.1622 100.756Z" fill="#263238"/>
<path d="M85.7751 93.5866L82.7623 101.354C81.7499 103.984 80.7985 106.613 79.8593 109.232C78.9201 111.851 78.0662 114.469 77.2856 116.999C76.5049 119.529 75.8463 122.137 75.3706 124.578V123.313C75.3118 124.688 75.514 126.062 75.9682 127.374C76.2366 128.118 76.5537 128.883 76.9319 129.682C77.31 130.481 77.8101 131.247 78.3224 132.057C79.4131 133.729 80.6361 135.328 81.9817 136.839C82.6769 137.627 83.4088 138.415 84.1773 139.18L86.4094 141.4L86.8973 141.877C87.6032 142.588 88.0226 143.496 88.087 144.452C88.1513 145.408 87.8567 146.356 87.2514 147.14C86.6462 147.924 85.7661 148.498 84.7555 148.767C83.7449 149.037 82.6637 148.986 81.6889 148.623C80.8839 148.312 80.2984 148.102 79.6397 147.824C78.9811 147.547 78.42 147.281 77.7491 146.981C76.5212 146.389 75.3014 145.746 74.0898 145.05C71.6661 143.618 69.41 141.963 67.3567 140.112C65.1352 138.097 63.2306 135.812 61.697 133.322C60.8899 131.957 60.2047 130.536 59.6478 129.072C59.068 127.518 58.6594 125.916 58.428 124.289C58.4101 124.105 58.4101 123.919 58.428 123.735V123.025C58.9224 116.762 60.0908 110.56 61.9166 104.505C62.746 101.565 63.734 98.6797 64.7586 95.8169C65.7832 92.9542 66.8932 90.2023 68.2471 87.273C69.1687 85.2196 70.9382 83.5766 73.176 82.6963C75.4138 81.816 77.9418 81.7686 80.2176 82.5642C82.4934 83.3598 84.3359 84.935 85.3497 86.9521C86.3636 88.9691 86.4682 91.2673 85.641 93.3536L85.7751 93.5866Z" fill="#B55B52"/>
<path d="M81.9205 76.8882C72.1623 78.5637 70.1253 82.181 62.9653 95.6184C65.1243 104.495 78.7125 112.262 78.7125 112.262C78.7125 112.262 97.9238 88.3282 81.9205 76.8882Z" fill="#407BFF"/>
<path d="M66.4539 93.6317C66.2954 98.3475 66.8077 104.051 67.9664 115.269C68.7593 124.778 66.149 142.854 69.4423 144.119H122.173C123.234 130.504 122.844 121.128 132.309 90.7356C132.867 89.1464 133.027 87.4638 132.778 85.8109C132.529 84.1581 131.876 82.5769 130.868 81.1832C129.86 79.7896 128.522 78.6187 126.952 77.7564C125.382 76.8941 123.62 76.3622 121.795 76.1998C119.697 76.0111 117.489 75.8447 115.208 75.7448C107.241 75.2283 99.2433 75.2283 91.2761 75.7448C88.678 75.9667 85.9823 76.2663 83.3964 76.5881C78.8371 77.1992 74.6533 79.2338 71.5622 82.3434C68.4711 85.4529 66.6652 89.4437 66.4539 93.6317Z" fill="#407BFF"/>
<path d="M90.4593 87.4841C90.1909 88.3829 89.6054 89.0153 89.2395 88.9044C88.8736 88.7934 88.6784 87.9834 88.959 87.0846C89.2395 86.1858 89.8006 85.5645 90.2397 85.6754C90.6788 85.7864 90.752 86.5964 90.4593 87.4841Z" fill="white"/>
<path d="M88.5321 94.8851C88.398 95.8061 87.9345 96.5162 87.4954 96.4608C87.0562 96.4053 86.7879 95.6286 86.9099 94.7076C87.0318 93.7866 87.4954 93.0765 87.9467 93.1319C88.398 93.1874 88.6541 93.9753 88.5321 94.8851Z" fill="white"/>
<path d="M110.134 52.0435C109.902 59.2892 108.914 71.1287 113.891 75.8001C113.891 75.8001 106.572 74.8126 91.1059 83.5674C86.6171 77.7087 89.9471 75.8001 89.9471 75.8001C94.3627 75.0678 98.2171 70.9844 95.802 65.9135L110.134 52.0435Z" fill="#B55B52"/>
<path d="M94.3623 81.7697C99.4609 82.4244 101.059 89.4371 101.059 89.4371C101.059 89.4371 113.256 81.5478 117.196 75.9887C115.655 75.1991 114.161 74.3361 112.72 73.4033C112.72 73.4033 97.3385 79.0845 94.3623 81.7697Z" fill="white"/>
<path d="M89.5078 81.0149C89.5078 81.0149 85.4582 81.8138 83.409 86.9402C82.1892 76.7208 87.5684 75.7776 87.5684 75.7776C88.9727 75.0708 90.6134 74.8575 92.1791 75.1784C91.057 75.7167 90.1763 76.594 89.6887 77.6593C89.2012 78.7247 89.1372 79.9113 89.5078 81.0149Z" fill="white"/>
<path opacity="0.2" d="M101.169 61.5974L99.1561 62.707L95.8018 65.947C96.6692 67.6001 96.7874 69.4971 96.1311 71.2288C99.9489 69.875 103.803 67.1565 104.828 64.2161V64.1495C104.988 63.7116 104.994 63.2391 104.845 62.798C104.696 62.3568 104.4 61.9688 103.997 61.688C103.595 61.4072 103.106 61.2476 102.599 61.2314C102.092 61.2151 101.592 61.3431 101.169 61.5974Z" fill="black"/>
<path d="M107.535 35.055C111.195 46.0623 113.024 50.5894 109.487 58.4344C104.181 70.1629 88.9829 72.5153 81.8717 62.8728C75.4801 54.1957 70.5278 37.6403 79.9932 28.941C89.4586 20.2417 103.876 24.0366 107.535 35.055Z" fill="#B55B52"/>
<path d="M91.0692 45.0201C91.4229 45.93 91.2034 46.8621 90.5813 47.1062C89.9592 47.3503 89.1664 46.8066 88.8126 45.8967C88.4589 44.9868 88.6785 44.0437 89.3006 43.7996C89.9226 43.5555 90.7155 44.0992 91.0692 45.0201Z" fill="#263238"/>
<path d="M79.4813 49.7586C79.8351 50.6685 79.6155 51.6116 78.9934 51.8558C78.3713 52.0999 77.5907 51.5562 77.237 50.6352C76.8832 49.7142 77.1028 48.7932 77.7249 48.5491C78.3469 48.305 79.1032 48.8487 79.4813 49.7586Z" fill="#263238"/>
<path d="M77.9927 48.4927L75.4678 48.7479C75.4678 48.7479 77.2974 50.0017 77.9927 48.4927Z" fill="#263238"/>
<path d="M82.8722 49.2373C82.8278 51.657 82.4467 54.0618 81.7378 56.3943C83.4333 57.0267 85.3971 55.673 85.3971 55.673L82.8722 49.2373Z" fill="#A02724"/>
<path d="M90.8493 55.8056C91.424 55.7026 92.0078 55.6469 92.5935 55.6392C92.633 55.6391 92.6721 55.6464 92.7084 55.6604C92.7448 55.6745 92.7776 55.6951 92.805 55.721C92.8323 55.747 92.8536 55.7776 92.8676 55.8112C92.8816 55.8448 92.8879 55.8807 92.8863 55.9166C92.8803 55.9932 92.8433 56.0651 92.7825 56.1183C92.7217 56.1716 92.6413 56.2025 92.5569 56.2051C91.2353 56.2206 89.9343 56.5058 88.75 57.0397C87.5657 57.5736 86.5282 58.3425 85.7141 59.2898C85.6924 59.3189 85.6647 59.3439 85.6325 59.3633C85.6002 59.3827 85.5641 59.3961 85.5262 59.4028C85.4882 59.4095 85.4492 59.4093 85.4113 59.4023C85.3735 59.3953 85.3375 59.3816 85.3054 59.3619C85.2734 59.3422 85.2459 59.317 85.2246 59.2877C85.2033 59.2583 85.1885 59.2255 85.1812 59.191C85.1738 59.1565 85.174 59.121 85.1817 59.0865C85.1894 59.0521 85.2045 59.0193 85.2262 58.9902C86.6007 57.3302 88.6052 56.195 90.8493 55.8056Z" fill="#263238"/>
<path d="M113.818 42.2675C113.89 43.3638 113.71 44.4618 113.29 45.4915C112.87 46.5212 112.219 47.46 111.378 48.2483C109.195 50.1013 106.499 47.9709 105.804 44.9195C105.169 42.1455 105.548 37.8513 108.377 37.2188C111.207 36.5863 113.732 39.3049 113.818 42.2675Z" fill="#FFB573"/>
<path d="M97.7779 24.2031C88.6297 33.1465 100.9 54.3178 99.6441 69.5416C98.1194 88.2052 110.695 90.9459 118.611 75.9995C112.72 61.8632 118.807 40.6919 117.221 33.2686C115.379 24.7579 104.279 20.0532 97.7779 24.2031Z" fill="#263238"/>
<path d="M85.9338 37.5745C86.0142 37.5646 86.0961 37.5704 86.1739 37.5915C86.2517 37.6125 86.3237 37.6483 86.3851 37.6966C86.9365 38.1618 87.6066 38.4948 88.335 38.6653C89.0633 38.8358 89.8269 38.8384 90.5567 38.673C90.6311 38.6511 90.7097 38.6432 90.7876 38.65C90.8655 38.6567 90.9411 38.6779 91.0096 38.7122C91.0782 38.7465 91.1383 38.7932 91.1863 38.8495C91.2342 38.9057 91.269 38.9703 91.2885 39.0392C91.3249 39.1875 91.3004 39.3427 91.2194 39.4756C91.1385 39.6085 91.0069 39.7098 90.8495 39.7604C89.9284 39.982 88.9609 39.9894 88.0359 39.7819C87.1108 39.5744 86.258 39.1588 85.5557 38.5732C85.4703 38.4952 85.4107 38.3971 85.3836 38.2898C85.3565 38.1826 85.363 38.0706 85.4024 37.9666C85.4418 37.8626 85.5125 37.7707 85.6064 37.7014C85.7004 37.6321 85.8138 37.5881 85.9338 37.5745Z" fill="#263238"/>
<path d="M73.8949 46.6957C73.8234 46.7229 73.7467 46.7369 73.6692 46.7369C73.5918 46.7369 73.5151 46.7229 73.4436 46.6957C73.2942 46.6369 73.1755 46.528 73.1119 46.3917C73.0483 46.2554 73.0448 46.102 73.102 45.9634C73.4155 45.1006 73.9425 44.3147 74.6425 43.6664C75.3425 43.0181 76.1968 42.5246 77.1395 42.224C77.2157 42.2043 77.2957 42.1995 77.3742 42.21C77.4526 42.2204 77.5278 42.2459 77.5946 42.2847C77.6614 42.3235 77.7185 42.3747 77.762 42.435C77.8055 42.4953 77.8344 42.5634 77.8469 42.6346C77.8842 42.783 77.8567 42.9388 77.7702 43.0692C77.6838 43.1996 77.5451 43.2944 77.3834 43.3336C76.6427 43.5843 75.9739 43.9839 75.4268 44.5027C74.8798 45.0214 74.4687 45.646 74.2242 46.3296C74.2002 46.408 74.1585 46.4811 74.1018 46.5441C74.0451 46.6072 73.9747 46.6588 73.8949 46.6957Z" fill="#263238"/>
<path d="M89.5928 43.7441L87.0679 44.0104C87.0679 44.0104 88.8975 45.2643 89.5928 43.7441Z" fill="#263238"/>
<path d="M122.271 76.3105C130.809 77.52 134.285 79.8946 141.299 95.5844C138.115 101.432 123.869 116.245 123.869 116.245C123.869 116.245 111.537 87.7395 122.271 76.3105Z" fill="#407BFF"/>
<path d="M131.102 380.054C136.2 372.653 136.432 370.612 139.75 366.739C142.58 363.41 142.592 363.665 146.068 360.803C148.373 358.905 146.471 356.187 143.958 355.033C141.994 354.145 139.86 353.357 137.493 352.17L128.443 359.638C130.016 363.887 129.138 372.731 125.698 378.601C123.246 382.784 129.065 383.006 131.102 380.054Z" fill="#263238"/>
<path d="M69.4427 144.175C69.4427 144.175 68.2229 203.994 66.7226 244.805C66.4401 252.986 68.3932 261.103 72.4067 268.429C88.2636 297.389 127.784 360.337 127.784 360.337C129.37 361.602 136.932 354.19 137.542 352.148C137.542 352.148 116.05 272.601 96.9972 254.78C122.319 191.034 115.44 144.175 115.44 144.175H69.4427Z" fill="#263238"/>
<g opacity="0.2">
<path d="M115.61 145.928L90.7637 147.526C90.7637 147.526 94.8133 213.226 98.7653 250.065C119.233 195.861 116.513 154.805 115.61 145.928Z" fill="black"/>
<path d="M99.6074 257.632C101.827 276.495 104.121 301.106 105.157 323.809C113.305 337.124 120.612 348.853 124.6 355.233C126.54 347.321 128.613 337.879 130.272 327.87C122.929 304.724 111.037 271.424 99.6074 257.632Z" fill="black"/>
</g>
<path d="M122.929 357.23C123.819 358.251 125.369 360.07 126.515 361.469C126.704 361.675 126.968 361.813 127.26 361.856C127.552 361.899 127.85 361.844 128.101 361.702C131.94 358.958 135.493 355.897 138.713 352.558C138.869 352.396 138.965 352.193 138.989 351.979C139.013 351.764 138.964 351.548 138.847 351.36L136.261 347.177C136.177 347.045 136.063 346.931 135.926 346.843C135.788 346.756 135.631 346.697 135.466 346.67C135.301 346.644 135.132 346.65 134.97 346.69C134.808 346.73 134.657 346.801 134.529 346.899L123.075 355.776C122.961 355.863 122.866 355.969 122.797 356.089C122.728 356.209 122.685 356.341 122.671 356.476C122.658 356.61 122.673 356.747 122.718 356.876C122.762 357.005 122.834 357.126 122.929 357.23Z" fill="#407BFF"/>
<path opacity="0.3" d="M122.929 357.23C123.819 358.251 125.369 360.07 126.515 361.469C126.704 361.675 126.968 361.813 127.26 361.856C127.552 361.899 127.85 361.844 128.101 361.702C131.94 358.958 135.493 355.897 138.713 352.558C138.869 352.396 138.965 352.193 138.989 351.979C139.013 351.764 138.964 351.548 138.847 351.36L136.261 347.177C136.177 347.045 136.063 346.931 135.926 346.843C135.788 346.756 135.631 346.697 135.466 346.67C135.301 346.644 135.132 346.65 134.97 346.69C134.808 346.73 134.657 346.801 134.529 346.899L123.075 355.776C122.961 355.863 122.866 355.969 122.797 356.089C122.728 356.209 122.685 356.341 122.671 356.476C122.658 356.61 122.673 356.747 122.718 356.876C122.762 357.005 122.834 357.126 122.929 357.23Z" fill="white"/>
<path d="M98.2655 388.077C108.024 388.077 111.756 387.933 117.269 387.766C121.978 387.622 123.051 388.155 126.832 388.077C129.992 388.011 130.15 385.27 129.492 382.107C129.162 380.521 128.601 378.579 128.186 376.016H113.354C110.988 379.511 102.303 382.141 96.7286 382.806C91.4227 383.45 94.3745 388.077 98.2655 388.077Z" fill="#263238"/>
<path d="M83.2261 144.174C83.2261 144.174 98.5585 220.992 104.182 255.778C110.085 292.395 117.355 351.693 113.354 375.982C115.525 377.191 123.551 377.269 128.187 375.982C128.187 375.982 148.618 296.234 132.053 257.398C143.19 171.825 126.711 167.365 122.161 144.141L83.2261 144.174Z" fill="#263238"/>
<path d="M112.745 370.957C112.534 372.64 112.196 374.309 111.732 375.95C111.684 376.08 111.668 376.218 111.685 376.354C111.703 376.49 111.753 376.621 111.832 376.737C111.911 376.854 112.017 376.953 112.144 377.028C112.27 377.103 112.413 377.151 112.562 377.17C117.916 377.969 125.882 376.815 128.419 376.416C128.662 376.38 128.888 376.279 129.066 376.124C129.245 375.97 129.368 375.77 129.419 375.55L130.7 370.89C130.746 370.746 130.755 370.594 130.724 370.447C130.693 370.3 130.624 370.161 130.523 370.043C130.421 369.925 130.291 369.83 130.141 369.767C129.991 369.704 129.827 369.674 129.663 369.68L113.964 369.958C113.661 369.956 113.368 370.058 113.142 370.243C112.917 370.427 112.775 370.682 112.745 370.957Z" fill="#407BFF"/>
<path opacity="0.3" d="M112.745 370.957C112.534 372.64 112.196 374.309 111.732 375.95C111.684 376.08 111.668 376.218 111.685 376.354C111.703 376.49 111.753 376.621 111.832 376.737C111.911 376.854 112.017 376.953 112.144 377.028C112.27 377.103 112.413 377.151 112.562 377.17C117.916 377.969 125.882 376.815 128.419 376.416C128.662 376.38 128.888 376.279 129.066 376.124C129.245 375.97 129.368 375.77 129.419 375.55L130.7 370.89C130.746 370.746 130.755 370.594 130.724 370.447C130.693 370.3 130.624 370.161 130.523 370.043C130.421 369.925 130.291 369.83 130.141 369.767C129.991 369.704 129.827 369.674 129.663 369.68L113.964 369.958C113.661 369.956 113.368 370.058 113.142 370.243C112.917 370.427 112.775 370.682 112.745 370.957Z" fill="white"/>
<path d="M97.5822 22.5169C107.962 36.1872 79.2857 31.2717 73.0405 44.1209C73.0649 31.2717 74.2359 21.3518 97.5822 22.5169Z" fill="#263238"/>
<path d="M122.173 144.175C107.036 147.082 75.4807 153.762 69.4551 144.175C73.3827 141.723 113.415 142.167 122.173 144.175Z" fill="#407BFF"/>
<path d="M85.9944 151.698C84.9942 151.698 84.055 151.698 83.2012 151.631C73.3455 151.165 70.5278 148.413 70.418 148.302C70.3863 148.275 70.3609 148.243 70.3436 148.206C70.3263 148.17 70.3174 148.131 70.3174 148.092C70.3174 148.052 70.3263 148.013 70.3436 147.977C70.3609 147.94 70.3863 147.908 70.418 147.881C70.4797 147.825 70.563 147.794 70.6498 147.794C70.7366 147.794 70.8199 147.825 70.8815 147.881C70.8815 147.881 73.687 150.555 83.2133 151.021C92.7397 151.487 114.439 149.046 121.026 146.25C121.107 146.218 121.199 146.215 121.283 146.242C121.366 146.269 121.436 146.323 121.477 146.394C121.511 146.469 121.513 146.554 121.481 146.63C121.449 146.706 121.387 146.768 121.307 146.804C115.122 149.456 96.6917 151.698 85.9944 151.698Z" fill="white"/>
<path d="M82.3846 173.378C82.0565 173.368 81.7404 173.263 81.482 173.079C76.603 169.95 81.2259 154.648 83.824 150.476C83.8602 150.42 83.915 150.375 83.9806 150.349C84.0462 150.322 84.1193 150.315 84.1895 150.329C84.2597 150.343 84.3235 150.376 84.3717 150.424C84.42 150.472 84.4502 150.533 84.4582 150.598C84.6412 152.74 86.2025 171.548 82.9701 173.234C82.7927 173.329 82.5905 173.379 82.3846 173.378ZM83.8728 151.73C81.3113 156.823 77.7739 170.005 81.8601 172.58C82.2749 172.846 82.5066 172.779 82.6408 172.713C84.7144 171.625 84.5314 159.963 83.8728 151.73Z" fill="white"/>
<path d="M87.544 169.751C87.2886 169.744 87.0366 169.695 86.8 169.607C81.1647 167.587 82.3844 154.993 83.7994 150.544C83.8206 150.484 83.8609 150.43 83.9151 150.391C83.9694 150.352 84.0351 150.327 84.1043 150.322C84.1745 150.323 84.2428 150.342 84.3012 150.378C84.3596 150.413 84.4056 150.463 84.4336 150.521C85.1045 152.23 90.9106 167.232 88.4101 169.44C88.1779 169.644 87.8665 169.756 87.544 169.751ZM84.1653 151.664C82.8601 156.824 82.36 167.365 87.0439 169.041C87.6538 169.263 87.8734 169.041 87.9466 169.041C89.5323 167.609 86.678 158.211 84.1653 151.664Z" fill="white"/>
<path d="M78.7372 162.316C78.6577 162.317 78.5806 162.291 78.5201 162.244C78.4595 162.198 78.4197 162.132 78.4079 162.061C77.8224 158.654 81.4329 151.098 84.0188 150.343C84.0596 150.33 84.103 150.323 84.1464 150.326C84.1899 150.328 84.2323 150.338 84.2712 150.356C84.3101 150.373 84.3446 150.398 84.3725 150.428C84.4004 150.459 84.4212 150.494 84.4335 150.532C84.4611 150.608 84.4548 150.692 84.4161 150.764C84.3774 150.837 84.3093 150.893 84.2262 150.92C81.9574 151.575 78.5421 158.909 79.0666 162.016C79.0773 162.096 79.0541 162.175 79.0019 162.239C78.9496 162.303 78.8724 162.347 78.786 162.36L78.7372 162.316Z" fill="white"/>
<path d="M409.451 100.698L411.822 64.1532C412.154 59.1736 411.124 54.1967 408.825 49.6677C406.525 45.1387 403.028 41.1987 398.645 38.2001L384.22 28.3218L386.324 106.732L409.451 100.698Z" fill="#407BFF"/>
<path opacity="0.1" d="M409.451 100.698L411.822 64.1532C412.154 59.1736 411.124 54.1967 408.825 49.6677C406.525 45.1387 403.028 41.1987 398.645 38.2001L384.22 28.3218L386.324 106.732L409.451 100.698Z" fill="black"/>
<path opacity="0.1" d="M387.019 60.7144C393.952 62.8687 401.13 64.3052 408.416 64.9966C406.73 66.1653 404.798 67.0071 402.74 67.4702C400.683 67.9334 398.542 68.0079 396.452 67.6892C394.435 67.1827 392.555 66.3013 390.932 65.1009C389.308 63.9004 387.976 62.4068 387.019 60.7144Z" fill="black"/>
<path d="M360.326 383.18C359.149 386.538 355.084 388.468 351.215 388.744C347.335 388.744 343.47 388.298 339.714 387.414C331.155 386.003 322.899 387.414 314.376 387.219C311.574 387.237 308.78 386.96 306.049 386.392C303.294 385.815 300.803 384.478 298.916 382.564C297.853 381.4 297.146 380.001 296.866 378.509C296.699 379.638 296.795 380.786 297.148 381.879C297.502 382.971 298.104 383.984 298.916 384.851C300.809 386.755 303.299 388.086 306.049 388.663C308.78 389.231 311.574 389.508 314.376 389.49C322.899 389.669 331.155 388.274 339.714 389.685C343.468 390.582 347.333 391.034 351.215 391.031C355.084 390.739 359.149 388.825 360.326 385.451C360.695 384.288 360.798 383.068 360.629 381.866C360.563 382.31 360.461 382.749 360.326 383.18Z" fill="#263238"/>
<path d="M360.112 376.725L358.525 369.653C358.332 368.394 357.885 367.179 357.206 366.068C356.866 365.509 356.364 365.045 355.754 364.727C355.144 364.41 354.449 364.251 353.747 364.268C349.075 363.7 342.478 362.159 338.59 364.592C332.435 368.425 325.093 370.363 317.639 370.124C313.77 369.994 309.9 369.264 306.049 369.702C302.197 370.14 298.221 372.07 297.133 375.444C296.819 376.44 296.752 377.487 296.937 378.51C297.217 380.002 297.924 381.4 298.988 382.565C300.875 384.479 303.366 385.816 306.12 386.393C308.851 386.961 311.646 387.238 314.447 387.22C322.97 387.399 331.226 386.004 339.785 387.415C343.541 388.298 347.406 388.745 351.286 388.745C355.155 388.469 359.221 386.539 360.398 383.181C360.533 382.75 360.634 382.311 360.701 381.867C360.798 380.136 360.599 378.401 360.112 376.725Z" fill="#37474F"/>
<path d="M337.449 357.182L337.128 366.395C337.089 367.337 337.454 368.257 338.146 368.959C338.838 369.662 339.803 370.091 340.837 370.158C344.232 370.402 347.642 370.402 351.037 370.158C352.4 370.042 353.674 369.489 354.631 368.598C355.588 367.706 356.166 366.535 356.261 365.292L356.671 358.479L337.449 357.182Z" fill="#FFA8A7"/>
<path d="M403.655 352.282C403.607 353.643 403.137 354.964 402.3 356.093C401.091 357.416 399.391 358.287 397.521 358.543C395.286 358.888 392.988 358.655 390.891 357.869C388.795 357.083 386.983 355.776 385.664 354.098C384.38 352.476 383.649 350.449 382.454 348.729C380.627 346.432 378.377 344.44 375.803 342.841C373.227 341.248 370.961 339.274 369.099 337.002C368.223 335.889 367.651 334.602 367.431 333.248C367.211 331.894 367.349 330.512 367.833 329.216C367.581 329.524 367.366 329.856 367.191 330.205C366.629 331.571 366.445 333.042 366.657 334.488C366.868 335.933 367.468 337.31 368.403 338.494C370.296 340.832 372.604 342.866 375.233 344.512C377.868 346.159 380.168 348.212 382.026 350.578C383.257 352.346 383.988 354.374 385.289 356.11C386.621 357.836 388.464 359.182 390.605 359.992C392.745 360.802 395.094 361.042 397.379 360.684C399.294 360.427 401.036 359.531 402.264 358.17C403.358 356.589 403.853 354.726 403.673 352.866C403.655 352.671 403.655 352.476 403.655 352.282Z" fill="#263238"/>
<path d="M400.481 340.734C397.414 335.868 391.066 332.25 386.216 328.779C383.54 326.661 380.244 325.297 376.73 324.854C374.963 324.65 373.17 324.931 371.581 325.663C369.992 326.394 368.68 327.542 367.815 328.958C367.815 329.039 367.815 329.136 367.725 329.217C367.241 330.513 367.103 331.895 367.324 333.249C367.544 334.603 368.115 335.89 368.991 337.003C370.853 339.275 373.119 341.249 375.696 342.842C378.27 344.441 380.52 346.433 382.347 348.731C383.541 350.45 384.273 352.429 385.556 354.1C386.876 355.778 388.687 357.084 390.784 357.87C392.881 358.656 395.178 358.89 397.414 358.544C399.283 358.289 400.984 357.417 402.193 356.095C403.03 354.966 403.5 353.644 403.548 352.283C403.548 351.845 403.548 351.407 403.548 350.953C403.486 347.366 402.431 343.852 400.481 340.734Z" fill="#37474F"/>
<path d="M387.145 336.467V344.837C389.397 345.795 391.87 346.244 394.353 346.145C396.837 346.046 399.258 345.402 401.409 344.269L402.265 336.726L387.145 336.467Z" fill="#FFA8A7"/>
<path d="M404.743 184.592C407.489 192.135 404.102 227.901 402.497 262.224C408.47 275.201 408.648 312.362 405.189 338.461C405.189 338.461 393.492 341.706 382.687 338.315L373.058 265.939L371.168 225.144C371.168 225.144 367.762 261.332 363.857 284.56C367.53 302.403 367.923 306.085 358.847 360.797C358.847 360.797 344.118 364.836 333.081 359.905C327.946 283.052 333.919 213.498 334.864 188.307L404.743 184.592Z" fill="#455A64"/>
<path opacity="0.3" d="M372.308 250.058L370.775 216.773C380.225 216.773 389.016 210.285 395.738 204.251C389.319 214.632 376.909 219.239 376.909 219.239L372.308 250.058Z" fill="black"/>
<path d="M333.74 117.649L333.455 190.415C375.625 206.49 402.995 192.037 406.686 184.413C404.743 157.893 411.626 126.863 411.091 113.675C410.556 100.488 408.79 85.6297 386.323 88.6143L362.43 90.7392L350.305 93.4156L333.74 117.649Z" fill="#407BFF"/>
<path d="M386.323 78.201C388.029 78.3016 389.709 77.7824 390.995 76.7574C391.479 76.2695 391.831 75.6854 392.023 75.0517C392.215 74.4181 392.242 73.7524 392.101 73.1077C392.809 72.9846 393.473 72.704 394.033 72.2907C394.593 71.8775 395.032 71.3446 395.31 70.7395C395.529 70.0692 395.575 69.3622 395.445 68.6731C395.315 67.9839 395.013 67.3313 394.561 66.7655C395.584 66.5245 396.537 66.0851 397.356 65.4776C398.175 64.87 398.839 64.1086 399.304 63.2456C399.782 62.3591 400.049 61.3904 400.086 60.4035C400.122 59.4166 399.929 58.4337 399.518 57.5197C400.645 57.2475 401.676 56.7168 402.513 55.9783C403.349 55.2399 403.964 54.3185 404.297 53.3023C404.647 52.2476 404.707 51.1307 404.47 50.0501C404.234 48.9696 403.709 47.9585 402.942 47.106C403.91 45.9244 404.518 44.5315 404.706 43.0679C404.894 41.6042 404.654 40.1213 404.012 38.7686C403.273 37.4096 402.161 36.2474 400.783 35.3947C399.406 34.5421 397.809 34.028 396.148 33.9024C396.382 32.486 396.222 31.0389 395.683 29.6931C395.144 28.3473 394.244 27.1456 393.063 26.1976C391.88 25.2895 390.461 24.6714 388.941 24.4017C387.422 24.132 385.852 24.2198 384.38 24.6566C383.84 23.4728 382.98 22.4325 381.879 21.6327C380.778 20.833 379.473 20.2997 378.084 20.0827C376.696 19.8658 375.269 19.9721 373.938 20.3918C372.607 20.8115 371.415 21.5309 370.472 22.4831C369.775 21.7715 368.897 21.2263 367.914 20.8954C366.932 20.5646 365.875 20.458 364.837 20.5853C363.781 20.6866 362.768 21.0183 361.883 21.552C360.999 22.0857 360.269 22.8057 359.755 23.651C358.424 23.0994 356.959 22.8683 355.501 22.9796C354.043 23.0909 352.641 23.541 351.43 24.2867C350.218 25.0324 349.237 26.0487 348.581 27.2382C347.925 28.4278 347.616 29.7506 347.684 31.08C346.625 31.3722 345.701 31.9741 345.056 32.7923C344.412 33.6105 344.082 34.5994 344.117 35.6056C344.207 36.641 344.659 37.6231 345.407 38.4082C346.154 39.1933 347.158 39.7402 348.272 39.9689C350.386 50.366 354.159 60.4263 359.47 69.8312C361.841 74.0323 364.819 78.2821 369.348 80.4557C374.27 82.8564 382.062 81.51 386.323 78.201Z" fill="#455A64"/>
<path d="M346.525 53.6436L341.586 61.4781L347.007 63.2948L346.525 53.6436Z" fill="#F28F8F"/>
<path d="M348.237 40.0171C344.954 50.8534 344.465 62.2333 346.811 73.2694C347.07 75.1739 347.855 76.9876 349.093 78.5411C350.727 80.1298 352.98 81.0731 355.37 81.1689C357.767 81.253 360.165 81.0457 362.502 80.5525V90.7391C370.99 92.5558 379.727 93.2695 386.395 88.6142V78.2005C381.602 79.592 376.504 79.8763 371.56 79.0278C365.694 76.1567 364.517 66.4081 365.337 63.829C365.86 64.4541 366.573 64.9257 367.387 65.1853C368.202 65.4448 369.083 65.4809 369.92 65.2889C370.729 65.0953 371.485 64.752 372.142 64.2803C372.799 63.8086 373.341 63.2187 373.735 62.5476C374.52 61.2034 375.004 59.7316 375.162 58.2167C375.575 56.3892 375.266 54.4877 374.288 52.8476C373.538 51.9341 372.5 51.2496 371.312 50.8846C370.125 50.5196 368.843 50.4915 367.637 50.8038C365.226 51.4901 363.212 53.0185 362.038 55.0536C361.661 55.6804 361.333 56.3309 361.058 57.0001C360.961 57.2633 360.767 57.488 360.509 57.6359C360.251 57.7838 359.945 57.8458 359.642 57.8114C359.34 57.777 359.059 57.6483 358.849 57.4471C358.639 57.246 358.512 56.9849 358.49 56.7082C358.183 53.7835 358.762 50.8383 360.166 48.1923C359.198 48.0999 358.264 47.8116 357.434 47.3485C356.605 46.8854 355.899 46.2592 355.37 45.5159C354.817 44.8228 354.447 44.024 354.286 43.1806C354.125 42.3371 354.179 41.4714 354.442 40.6497C352.349 40.7749 350.248 40.5607 348.237 40.0171Z" fill="#FFA8A7"/>
<path d="M355.013 54.5673C358.911 54.6792 362.791 54.0373 366.397 52.684C370.002 51.3306 373.251 49.2967 375.928 46.7165C376.31 46.3547 376.55 45.8897 376.615 45.3921C376.679 44.8945 376.563 44.3914 376.285 43.959C376.109 43.6922 375.873 43.4619 375.593 43.2827C375.313 43.1036 374.995 42.9795 374.659 42.9184C374.324 42.8573 373.978 42.8606 373.644 42.9281C373.31 42.9956 372.995 43.1257 372.719 43.3102C370.431 44.9382 367.713 45.99 364.838 46.3596C365.034 42.5802 370.793 35.2161 373.753 32.5559C374.692 31.9292 375.381 31.0407 375.714 30.0255C375.761 29.6915 375.719 29.3524 375.591 29.0363C375.464 28.7203 375.256 28.4365 374.983 28.2087C374.726 27.9743 374.409 27.8014 374.061 27.7051C373.713 27.6089 373.343 27.5925 372.986 27.6572C373.335 27.5279 373.63 27.3012 373.829 27.0098C374.028 26.7183 374.12 26.3771 374.092 26.0352C374.024 25.6844 373.855 25.3566 373.601 25.0856C373.347 24.8146 373.018 24.6104 372.648 24.4942C372.29 24.3536 371.905 24.2811 371.515 24.2811C371.126 24.2811 370.74 24.3536 370.383 24.4942C370.327 24.196 370.18 23.9179 369.96 23.6915C369.739 23.465 369.454 23.2992 369.135 23.2128C368.498 23.0186 367.81 23.0186 367.173 23.2128C366.521 23.4179 365.893 23.6843 365.301 24.0076C364.943 23.5466 364.422 23.2113 363.825 23.0578C363.228 22.9043 362.591 22.9418 362.02 23.1641C354.513 26.6353 345.509 37.7627 345.438 45.4188C345.529 47.7448 346.553 49.9599 348.317 51.6455C350.082 53.3311 352.463 54.3705 355.013 54.5673Z" fill="#FFA8A7"/>
<path d="M372.897 27.5283C368.682 29.3774 365.3 32.4947 363.322 36.3524C364.017 30.4967 370.347 27.7879 372.897 27.5283Z" fill="#F28F8F"/>
<path d="M370.293 24.3164C363.946 27.0577 361.146 29.9288 359.417 32.4267C360.337 30.3537 361.815 28.5245 363.716 27.1073C365.616 25.6901 367.878 24.7304 370.293 24.3164Z" fill="#F28F8F"/>
<path d="M365.212 23.8936C361.575 25.2921 358.452 27.6046 356.208 30.5602C356.904 28.8112 358.109 27.2672 359.695 26.093C361.281 24.9188 363.188 24.1585 365.212 23.8936Z" fill="#F28F8F"/>
<path d="M367.619 50.7394C363.474 52.5485 358.826 53.1815 354.281 52.5562C353.609 50.1929 352.137 48.0819 350.073 46.5221C348.711 45.495 347.125 44.7431 345.419 44.3161C345.419 44.6405 345.419 44.9811 345.419 45.3055C345.482 47.6643 346.506 49.9176 348.291 51.6289C350.077 53.3401 352.497 54.3873 355.083 54.5675C358.97 54.6702 362.836 54.0238 366.429 52.6707C370.021 51.3177 373.258 49.2886 375.928 46.7167C376.294 46.3713 376.529 45.9287 376.6 45.4532C376.67 44.9777 376.572 44.4941 376.32 44.0728C374.077 46.9213 371.086 49.2133 367.619 50.7394Z" fill="#F28F8F"/>
<path opacity="0.2" d="M356.76 114.844C349.628 114.958 342.495 115.282 335.238 115.526L333.74 117.732V131.357C338.705 130.378 343.359 128.382 347.348 125.521C351.337 122.66 354.556 119.008 356.76 114.844Z" fill="black"/>
<path d="M357.455 91.8253L309.811 79.5463L351.767 61.3143C357.866 51.1601 346.686 42.5145 337.199 43.7635L288.681 65.5641C285.12 67.0517 282.102 69.4383 279.987 72.4402C277.873 75.442 276.75 78.9331 276.752 82.4984C276.751 86.1094 277.904 89.6429 280.069 92.6694C282.234 95.6959 285.319 98.085 288.949 99.5464L344.225 121.834C360.861 126.911 372.487 95.702 357.455 91.8253Z" fill="#407BFF"/>
<path opacity="0.2" d="M309.812 79.5472L296.207 76.0273C303.245 74.7249 310.461 74.4131 317.604 75.1027L319.601 75.2974L309.812 79.5472Z" fill="black"/>
<path d="M130.55 47.7052L153.567 19.5538L173.508 33.0463L169.496 37.9535L155.922 28.7695L150.438 35.4774L162.688 43.7659L158.675 48.6732L146.425 40.3847L136.917 52.0136L130.55 47.7052ZM156.204 65.0633L149.38 60.4464L182.795 39.3298L191.001 44.8821L178.365 80.0583L171.542 75.4414L181.755 48.6186L181.52 48.4594L156.204 65.0633ZM164.825 53.7094L180.942 64.6149L177.143 69.2609L161.026 58.3555L164.825 53.7094ZM211.375 58.6681L188.358 86.8195L181.99 82.5111L205.008 54.3596L211.375 58.6681ZM193.597 90.3643L216.614 62.2129L222.982 66.5213L203.976 89.7655L216.888 98.5018L212.876 103.409L193.597 90.3643ZM247.478 83.0959L230.787 102.419L225.405 98.7775L240.934 78.6681L247.478 83.0959ZM220.903 109.396C219.933 108.739 219.362 107.854 219.19 106.742C219.026 105.62 219.32 104.609 220.071 103.709C220.796 102.804 221.768 102.266 222.989 102.096C224.209 101.925 225.305 102.169 226.275 102.825C227.207 103.455 227.763 104.33 227.945 105.449C228.126 106.568 227.854 107.58 227.13 108.485C226.626 109.083 226.001 109.521 225.255 109.8C224.527 110.076 223.775 110.186 222.998 110.13C222.229 110.065 221.531 109.82 220.903 109.396Z" fill="#263238"/>
</svg>
