<svg width="475" height="404" viewBox="0 0 475 404" fill="none" xmlns="http://www.w3.org/2000/svg">
<path d="M70.4333 379.446C70.4145 378.967 68.7248 331.617 60.5766 324.131C52.6537 316.849 43.5667 323.856 43.1912 324.158L42.3745 323.234C42.4778 323.154 52.7381 315.233 61.4684 323.261C69.9733 331.084 71.6443 377.439 71.71 379.402L70.4333 379.437V379.446Z" fill="#E0E0E0"/>
<path d="M71.128 388.752C71.0716 388.184 65.5613 331.909 87.293 308.314L88.2505 309.105C66.8849 332.3 72.3389 388.068 72.3953 388.628L71.128 388.743V388.752Z" fill="#E0E0E0"/>
<path d="M70.33 382.794L69.0627 382.714C69.1097 382.075 73.3152 318.732 57.3755 304.861L58.2391 303.973C74.6201 318.226 70.5178 380.157 70.33 382.794Z" fill="#E0E0E0"/>
<path d="M72.4046 382.759H71.1279C71.1467 381 71.6536 339.965 83.9792 333.278C86.7203 331.795 89.4051 331.546 91.9491 332.541C99.4026 335.453 103.092 348.001 103.251 348.534L102.022 348.854C101.984 348.729 98.3419 336.341 91.4609 333.66C89.2925 332.816 86.9926 333.038 84.6082 334.326C72.9115 340.666 72.4046 382.341 72.3952 382.759H72.4046Z" fill="#E0E0E0"/>
<path d="M67.5984 382.786L66.3311 382.715C66.3499 382.395 68.1898 350.284 59.0277 338.97C56.8123 336.226 54.3998 334.921 51.8558 335.09C45.8573 335.489 40.8163 343.792 40.7693 343.881L39.6616 343.286C39.8775 342.922 45.0781 334.335 51.7619 333.891C54.7565 333.687 57.5445 335.152 60.0416 338.242C69.4852 349.911 67.6829 381.454 67.5984 382.786Z" fill="#E0E0E0"/>
<path d="M69.6071 387.154C69.3536 384.037 63.6179 310.722 73.7187 297.801L74.742 298.52C64.9228 311.086 70.818 386.302 70.8837 387.066L69.6165 387.154H69.6071Z" fill="#E0E0E0"/>
<path d="M94.6994 339.982C94.6994 339.982 88.6446 342.095 90.4469 347.086C92.2493 352.077 111.4 360.282 111.4 360.282C111.4 360.282 119.426 353.329 112.057 342.015C104.688 330.702 94.8684 336.421 94.6994 339.991V339.982Z" fill="#EBEBEB"/>
<path d="M68.3588 330.48C68.3588 330.48 74.8079 330.223 75.174 335.48C75.5401 340.737 61.1962 355.292 61.1962 355.292C61.1962 355.292 50.964 351.793 53.1606 338.668C55.3573 325.543 66.7535 327.248 68.3494 330.48H68.3588Z" fill="#EBEBEB"/>
<path d="M62.9047 305.313C62.9047 305.313 67.2041 304.878 66.8567 302.4C66.5094 299.923 50.1379 293.547 40.4783 303.857C40.4783 303.857 46.6645 313.909 55.6013 314.043C64.5381 314.176 62.8953 305.322 62.8953 305.322L62.9047 305.313Z" fill="#EBEBEB"/>
<path d="M70.9118 299.292C70.9118 299.292 67.0161 301.077 65.9272 298.795C64.8382 296.521 75.1643 282.917 89.1327 286.833C89.1327 286.833 89.4988 298.457 81.9889 303.04C74.479 307.622 70.9212 299.283 70.9212 299.283L70.9118 299.292Z" fill="#EBEBEB"/>
<path d="M50.5509 337.975C50.5509 337.975 53.5173 335.711 50.3162 334.601C47.1151 333.491 31.4007 333.81 31.2317 348.534C31.2317 348.534 49.537 351.411 51.7994 345.799C54.0617 340.186 50.5509 337.966 50.5509 337.966V337.975Z" fill="#EBEBEB"/>
<path d="M87.8845 304.94C87.8845 304.94 84.9181 302.676 88.1192 301.566C91.3203 300.455 107.035 300.775 107.204 315.499C107.204 315.499 88.8983 318.376 86.636 312.764C84.3736 307.151 87.8845 304.931 87.8845 304.931V304.94Z" fill="#EBEBEB"/>
<path d="M78.2059 316.804C78.2059 316.804 77.9431 314.051 80.2993 315.126C82.6555 316.209 90.8413 324.566 82.3552 332.505C82.3552 332.505 70.9214 324.495 72.9866 320.321C75.0518 316.147 78.2153 316.804 78.2153 316.804H78.2059Z" fill="#EBEBEB"/>
<path d="M47.9036 320.729C47.9036 320.729 49.6778 318.527 47.0775 318.26C44.4772 317.985 32.8369 320.925 35.5499 331.927C35.5499 331.927 49.7342 330.915 50.3443 326.35C50.9545 321.786 47.9036 320.738 47.9036 320.738V320.729Z" fill="#EBEBEB"/>
<path d="M84.3266 403.999H55.714L48.1008 370.787H91.2169L84.3266 403.999Z" fill="#F0F0F0"/>
<path d="M93.6951 370.308H45.5005V379.854H93.6951V370.308Z" fill="#E6E6E6"/>
<path d="M475 360.984H5.63232V361.206H475V360.984Z" fill="#E0E0E0"/>
<path d="M69.2128 373.656H54.1367V373.878H69.2128V373.656Z" fill="#E0E0E0"/>
<path d="M215.797 371.25H165.546V371.472H215.797V371.25Z" fill="#E0E0E0"/>
<path d="M104.181 381.906H70.1516V382.128H104.181V381.906Z" fill="#E0E0E0"/>
<path d="M401.347 371.134H360.803V371.356H401.347V371.134Z" fill="#E0E0E0"/>
<path d="M415.653 371.134H409.711V371.356H415.653V371.134Z" fill="#E0E0E0"/>
<path d="M353.058 376.667H302.47V376.889H353.058V376.667Z" fill="#E0E0E0"/>
<path d="M172.915 75.8198C184.743 74.5855 193.887 68.2893 197.839 57.6685C201.781 47.0476 200.552 34.3488 192.14 26.3832C187.832 22.3071 182.096 19.3944 176.004 19.1635C167.358 18.8349 159.125 24.1009 154.882 31.2407C150.639 38.3805 149.165 45.689 150.714 53.7434C152.244 61.7268 157.22 71.4862 168.832 75.3403C168.832 75.3403 165.049 81.3611 166.776 82.2936C168.503 83.226 170.681 79.7716 170.681 79.7716C170.681 79.7716 174.502 84.5136 174.971 82.2936C175.666 79.0256 172.925 75.8109 172.925 75.8109L172.915 75.8198Z" fill="#F5F5F5"/>
<g opacity="0.3">
<path d="M157.567 50.0759C155.952 50.3068 154.347 50.5466 152.732 50.7775C151.718 45.6713 152.366 40.281 154.582 35.5211C156.788 30.7613 160.543 26.6586 165.199 23.9146C165.199 23.9146 160.073 31.0099 158.534 37.1728C156.872 43.8597 157.567 50.0759 157.567 50.0759Z" fill="white"/>
</g>
<path d="M319.724 94.5576C329.083 87.9596 333.523 78.3422 331.289 67.5082C329.055 56.6654 321.357 46.5063 310.055 43.7179C304.272 42.2882 297.889 42.5279 292.622 45.1831C285.131 48.9662 280.935 57.287 281.095 65.3148C281.245 73.3426 283.836 80.2159 289.365 86.3078C294.847 92.3464 304.178 98.2607 316.016 96.0762C316.016 96.0762 315.978 102.95 317.921 102.932C319.864 102.914 319.902 98.9623 319.902 98.9623C319.902 98.9623 325.619 101.173 324.859 99.0866C323.732 95.9962 319.733 94.5576 319.733 94.5576H319.724Z" fill="#EBEBEB"/>
<g opacity="0.3">
<path d="M293.233 79.9761C291.994 80.9263 290.745 81.8854 289.506 82.8356C285.967 78.9904 283.695 74.124 283.066 69.0623C282.437 64.0005 283.461 58.77 285.967 54.2588C285.967 54.2588 285.347 62.6684 287.281 68.6094C289.375 75.0476 293.233 79.9761 293.233 79.9761Z" fill="white"/>
</g>
<path d="M27.9084 63.7508C36.8913 59.5642 42.262 52.0265 42.243 42.3954C42.224 32.7644 37.5092 22.858 28.5168 18.6989C23.916 16.5689 18.5167 15.7702 13.6403 17.2208C6.7106 19.2865 1.76762 25.7501 0.51286 32.6543C-0.732392 39.5585 0.256207 45.8475 3.84937 51.9255C7.41402 57.9483 14.2201 64.4852 24.5243 64.4669C24.5243 64.4669 23.3171 70.3428 24.9521 70.6366C26.5871 70.9304 27.2905 67.5517 27.2905 67.5517C27.2905 67.5517 31.7107 70.3428 31.4255 68.4331C31.0073 65.6145 27.8989 63.7508 27.8989 63.7508H27.9084Z" fill="#EBEBEB"/>
<g opacity="0.3">
<path d="M8.1934 47.1148C6.98617 47.7391 5.78844 48.3634 4.58122 48.9785C2.27132 45.1316 1.19718 40.6053 1.53938 36.18C1.88159 31.7456 3.64015 27.4304 6.51089 23.96C6.51089 23.96 4.5527 31.057 5.15157 36.4555C5.80746 42.2947 8.1934 47.1239 8.1934 47.1239V47.1148Z" fill="white"/>
</g>
<path d="M101.308 123.312C110.179 119.263 115.483 111.972 115.465 102.656C115.446 93.3409 110.79 83.759 101.909 79.7363C97.3657 77.676 92.0337 76.9034 87.218 78.3065C80.3746 80.3046 75.4932 86.5563 74.254 93.2343C73.0243 99.9123 74.0006 105.995 77.549 111.874C81.0693 117.7 87.7906 124.022 97.9665 124.005C97.9665 124.005 96.7743 129.688 98.3889 129.972C100.004 130.256 100.698 126.988 100.698 126.988C100.698 126.988 105.063 129.688 104.782 127.841C104.369 125.115 101.299 123.312 101.299 123.312H101.308Z" fill="#EBEBEB"/>
<g opacity="0.3">
<path d="M81.839 107.221C80.6468 107.825 79.464 108.429 78.2718 109.024C75.9907 105.303 74.9299 100.925 75.2679 96.6444C75.6058 92.3552 77.3425 88.1815 80.1774 84.8247C80.1774 84.8247 78.2436 91.6892 78.8351 96.9108C79.4828 102.559 81.839 107.23 81.839 107.23V107.221Z" fill="white"/>
</g>
<path d="M56.5493 268.94C65.9179 271.8 75.08 269.988 81.867 263.23C88.6541 256.481 92.2682 246.5 88.7761 237.788C86.9831 233.33 83.6975 229.29 79.1916 227.167C72.7801 224.148 64.6788 225.48 58.9243 229.512C53.1605 233.534 49.4337 238.578 47.7064 245.159C45.9979 251.677 46.2608 260.637 53.6392 267.262C53.6392 267.262 48.6264 270.592 49.5933 271.853C50.5602 273.114 53.4421 271.205 53.4421 271.205C53.4421 271.205 54.6249 276.009 55.7796 274.49C57.4693 272.244 56.5587 268.94 56.5587 268.94H56.5493Z" fill="#F5F5F5"/>
<path d="M406.566 278.105C415.935 280.964 425.097 279.153 431.884 272.395C438.671 265.646 442.285 255.664 438.793 246.953C437 242.495 433.714 238.454 429.208 236.332C422.797 233.312 414.696 234.644 408.941 238.676C403.177 242.699 399.451 247.743 397.723 254.323C396.015 260.841 396.278 269.802 403.656 276.426C403.656 276.426 398.643 279.756 399.61 281.017C400.577 282.278 403.459 280.369 403.459 280.369C403.459 280.369 404.642 285.173 405.796 283.655C407.486 281.408 406.576 278.105 406.576 278.105H406.566Z" fill="#EBEBEB"/>
<g opacity="0.3">
<path d="M404.21 253.746C402.914 253.409 401.61 253.062 400.314 252.725C401.375 248.542 403.806 244.688 407.176 241.802C410.546 238.916 414.846 237.024 419.352 236.447C419.352 236.447 412.94 240.15 409.57 244.315C405.918 248.826 404.219 253.746 404.219 253.746H404.21Z" fill="white"/>
</g>
<path d="M246.127 378.416C254.341 373.283 258.565 365.389 257.241 356.153C255.908 346.927 249.938 338.011 240.569 335.151C235.773 333.686 230.384 333.597 225.813 335.595C219.307 338.437 215.355 345.257 215.073 352.024C214.792 358.791 216.622 364.705 220.978 370.087C225.287 375.415 232.844 380.832 242.926 379.526C242.926 379.526 242.541 385.307 244.184 385.387C245.826 385.458 246.052 382.137 246.052 382.137C246.052 382.137 250.755 384.26 250.22 382.466C249.422 379.81 246.127 378.425 246.127 378.425V378.416Z" fill="#EBEBEB"/>
<g opacity="0.3">
<path d="M224.555 364.935C223.456 365.681 222.367 366.427 221.269 367.173C218.49 363.772 216.819 359.571 216.547 355.282C216.275 350.993 217.401 346.633 219.739 342.947C219.739 342.947 218.791 349.998 220.114 355.087C221.551 360.601 224.545 364.926 224.545 364.926L224.555 364.935Z" fill="white"/>
</g>
<path d="M294.538 308.421C285.479 312.071 279.818 319.113 279.358 328.42C278.908 337.726 283.076 347.504 291.75 351.926C296.19 354.182 301.475 355.194 306.347 354.013C313.284 352.326 318.476 346.296 320.043 339.68C321.611 333.064 320.935 326.946 317.687 320.907C314.467 314.931 308.065 308.315 297.898 307.88C297.898 307.88 299.382 302.258 297.776 301.903C296.181 301.548 295.317 304.78 295.317 304.78C295.317 304.78 291.093 301.885 291.28 303.75C291.553 306.494 294.528 308.43 294.528 308.43L294.538 308.421Z" fill="#EBEBEB"/>
<g opacity="0.3">
<path d="M313.181 325.365C314.401 324.814 315.622 324.272 316.833 323.722C318.926 327.54 319.762 331.954 319.208 336.225C318.654 340.488 316.711 344.59 313.716 347.814C313.716 347.814 315.997 341.038 315.659 335.808C315.293 330.133 313.172 325.365 313.172 325.365H313.181Z" fill="white"/>
</g>
<path d="M411.119 88.1459C420.91 87.1246 428.476 81.9208 431.743 73.1293C435.01 64.3378 433.996 53.8324 427.031 47.2432C423.473 43.8687 418.723 41.4621 413.682 41.2667C406.529 40.9914 399.713 45.3517 396.202 51.2571C392.692 57.1625 391.471 63.21 392.748 69.8702C394.015 76.4771 398.127 84.5493 407.73 87.7374C407.73 87.7374 404.604 92.7192 406.022 93.4918C407.449 94.2644 409.251 91.4049 409.251 91.4049C409.251 91.4049 412.414 95.33 412.799 93.4918C413.372 90.7833 411.11 88.1281 411.11 88.1281L411.119 88.1459Z" fill="#F5F5F5"/>
<g opacity="0.3">
<path d="M398.418 66.842C397.085 67.0374 395.752 67.2238 394.419 67.4192C393.583 63.1922 394.118 58.7343 395.949 54.8003C397.779 50.8663 400.887 47.474 404.735 45.2007C404.735 45.2007 400.492 51.0706 399.216 56.1679C397.836 61.7003 398.418 66.842 398.418 66.842Z" fill="white"/>
</g>
<path d="M421.905 366.499C421.905 369.51 334.115 371.943 225.832 371.943C117.549 371.943 29.7581 369.501 29.7581 366.499C29.7581 363.498 117.549 361.056 225.832 361.056C334.115 361.056 421.905 363.498 421.905 366.499Z" fill="#F5F5F5"/>
<path d="M395.789 341.599C395.771 341.155 394.203 297.313 386.665 290.377C379.333 283.637 370.913 290.128 370.566 290.404L369.805 289.542C369.899 289.462 379.399 282.136 387.491 289.569C395.367 296.815 396.906 339.734 396.972 341.554L395.789 341.59V341.599Z" fill="#263238"/>
<path d="M396.437 350.212C396.381 349.689 391.284 297.57 411.401 275.733L412.293 276.462C392.504 297.943 397.554 349.582 397.611 350.106L396.437 350.212Z" fill="#263238"/>
<path d="M395.696 344.698L394.522 344.627C394.56 344.032 398.455 285.377 383.698 272.536L384.496 271.71C399.666 284.915 395.864 342.256 395.696 344.698Z" fill="#263238"/>
<path d="M397.62 344.671H396.437C396.456 343.046 396.925 305.038 408.34 298.858C410.875 297.481 413.363 297.25 415.728 298.174C422.628 300.873 426.045 312.489 426.186 312.986L425.05 313.279C425.012 313.164 421.642 301.699 415.278 299.204C413.269 298.422 411.138 298.627 408.932 299.826C398.099 305.695 397.629 344.28 397.629 344.671H397.62Z" fill="#263238"/>
<path d="M393.17 344.698L391.997 344.636C392.016 344.334 393.715 314.603 385.238 304.124C383.182 301.584 380.948 300.376 378.592 300.536C373.035 300.9 368.369 308.599 368.332 308.679L367.308 308.129C367.515 307.791 372.321 299.835 378.517 299.426C381.286 299.24 383.868 300.598 386.177 303.449C394.926 314.256 393.255 343.464 393.18 344.698H393.17Z" fill="#263238"/>
<path d="M395.029 348.738C394.795 345.852 389.481 277.962 398.831 266L399.779 266.667C390.692 278.3 396.146 347.957 396.203 348.658L395.029 348.747V348.738Z" fill="#263238"/>
<path d="M419.953 301.921C419.953 301.921 413.982 304.008 416.01 308.492C421.717 321.138 435.32 322.488 435.32 322.488C435.32 322.488 441.703 312.924 436.474 305.5C429.256 295.261 420.103 298.608 419.953 301.912V301.921Z" fill="#407BFF"/>
<path d="M393.875 296.265C393.875 296.265 399.845 296.025 400.183 300.9C400.521 305.767 387.247 319.238 387.247 319.238C387.247 319.238 377.775 315.997 379.803 303.848C381.84 291.7 392.391 293.272 393.875 296.265Z" fill="#407BFF"/>
<path d="M396.775 267.883C396.775 267.883 394.269 267.59 393.321 265.459C390.504 259.092 400.173 252.218 413.109 255.85C413.109 255.85 413.447 266.613 406.491 270.858C399.535 275.103 396.775 267.883 396.775 267.883Z" fill="#407BFF"/>
<path d="M374.612 301.265C374.612 301.265 376.696 298.565 373.551 298.299C370.406 298.032 356.795 303.805 360.371 317.019C360.371 317.019 377.888 311.619 378.489 306.087C379.09 300.554 374.612 301.265 374.612 301.265Z" fill="#407BFF"/>
<path d="M411.955 272.607C411.955 272.607 412.743 270.156 415.71 269.135C418.676 268.114 429.697 268.753 429.847 282.393C429.847 282.393 412.893 285.057 410.8 279.862C408.707 274.668 411.955 272.616 411.955 272.616V272.607Z" fill="#407BFF"/>
<path d="M402.802 283.938C402.802 283.938 403.938 282.065 406.116 283.068C408.294 284.071 414.715 290.314 408.594 297.863C408.594 297.863 397.217 291.389 398.146 286.851C399 282.668 402.802 283.938 402.802 283.938Z" fill="#407BFF"/>
<path d="M374.931 287.233C374.931 287.233 376.574 285.2 374.17 284.942C371.767 284.693 360.981 287.411 363.488 297.597C363.488 297.597 376.621 296.664 377.184 292.428C377.747 288.201 374.921 287.224 374.921 287.224L374.931 287.233Z" fill="#407BFF"/>
<path opacity="0.3" d="M386.074 314.967C385.961 314.967 385.858 314.887 385.839 314.78C384.9 308.448 388.064 300.936 393.715 296.096C393.809 296.016 393.959 296.016 394.043 296.114C394.128 296.203 394.119 296.345 394.025 296.425C388.486 301.167 385.379 308.52 386.299 314.718C386.318 314.842 386.224 314.949 386.102 314.967C386.092 314.967 386.083 314.967 386.064 314.967H386.074Z" fill="black"/>
<path opacity="0.3" d="M408.153 293.973C408.04 293.973 407.946 293.902 407.918 293.796C407.186 290.297 405.299 286.994 402.633 284.48C402.539 284.392 402.539 284.25 402.633 284.17C402.727 284.081 402.877 284.081 402.962 284.17C405.703 286.745 407.627 290.137 408.378 293.716C408.406 293.84 408.322 293.956 408.19 293.973C408.172 293.973 408.162 293.973 408.144 293.973H408.153Z" fill="black"/>
<path opacity="0.3" d="M433.067 314.274C432.982 314.274 432.898 314.229 432.86 314.15C430.241 309.061 425.134 304.337 419.868 302.126C419.746 302.072 419.699 301.948 419.746 301.833C419.793 301.717 419.934 301.673 420.056 301.717C425.426 303.973 430.617 308.777 433.283 313.954C433.339 314.061 433.283 314.194 433.17 314.247C433.133 314.265 433.104 314.274 433.067 314.274Z" fill="black"/>
<path opacity="0.3" d="M426.674 279.028C426.599 279.028 426.524 278.992 426.477 278.921C424.947 276.621 422.619 274.819 419.934 273.851C417.089 272.821 414.696 272.092 412.011 272.821C411.88 272.856 411.757 272.785 411.72 272.67C411.682 272.554 411.757 272.43 411.88 272.394C414.696 271.631 417.165 272.377 420.093 273.433C422.872 274.437 425.275 276.302 426.871 278.682C426.937 278.788 426.909 278.921 426.796 278.992C426.758 279.019 426.712 279.028 426.674 279.028Z" fill="black"/>
<path d="M388.176 274.908C388.176 274.908 392.157 275.361 392.382 273.052C392.617 270.752 379.24 261.783 368.256 269.198C368.256 269.198 371.636 279.481 379.671 281.355C387.707 283.229 388.167 274.917 388.167 274.917L388.176 274.908Z" fill="#407BFF"/>
<path opacity="0.3" d="M388.055 275.316C387.979 275.316 387.914 275.281 387.867 275.227C383.858 270.13 373.692 268.256 370.19 269.455C370.068 269.491 369.937 269.438 369.89 269.322C369.843 269.207 369.909 269.082 370.031 269.038C373.589 267.821 383.962 269.517 388.242 274.961C388.317 275.059 388.299 275.201 388.195 275.272C388.158 275.298 388.101 275.316 388.055 275.316Z" fill="black"/>
<path opacity="0.3" d="M366.098 293.849C366.098 293.849 366.013 293.84 365.975 293.813C365.863 293.751 365.825 293.609 365.9 293.511C368.163 290.004 372.556 288.059 374.969 287.206C375.091 287.162 375.222 287.224 375.269 287.34C375.316 287.455 375.25 287.579 375.128 287.624C372.763 288.45 368.482 290.35 366.295 293.742C366.248 293.813 366.173 293.849 366.098 293.849Z" fill="black"/>
<path opacity="0.3" d="M362.239 312.222C362.239 312.222 362.164 312.222 362.127 312.196C362.014 312.142 361.967 312.009 362.023 311.894C364.736 306.974 369.205 303.067 374.602 300.891C374.715 300.847 374.856 300.891 374.912 301.006C374.959 301.122 374.912 301.246 374.79 301.299C369.571 303.404 365.065 307.338 362.446 312.098C362.408 312.178 362.324 312.213 362.239 312.213V312.222Z" fill="black"/>
<path opacity="0.3" d="M397.301 267.847C397.301 267.847 397.235 267.847 397.198 267.83C397.085 267.776 397.029 267.643 397.085 267.537C399.235 263.194 403.403 259.74 408.228 258.292C408.35 258.257 408.481 258.319 408.519 258.434C408.556 258.55 408.491 258.674 408.369 258.71C403.666 260.122 399.601 263.487 397.508 267.723C397.47 267.803 397.385 267.847 397.292 267.847H397.301Z" fill="black"/>
<path d="M411.016 364.518H382.131L379.014 334.601H414.132L411.016 364.518Z" fill="#263238"/>
<path d="M415.681 331.298H377.475V337.896H415.681V331.298Z" fill="#263238"/>
<path opacity="0.3" d="M379.437 337.815L379.85 342.229H413.438L413.898 337.815H379.437Z" fill="black"/>
<path d="M30.7903 121.128L33.7849 120.062C33.7849 120.062 33.0057 123.064 37.2769 123.925L34.564 125.772C34.564 125.772 30.9123 124.484 30.7997 121.128H30.7903Z" fill="#407BFF"/>
<path d="M198.158 32.9189L199.078 35.8139C199.078 35.8139 195.961 34.8815 194.769 38.851L193.004 36.1691C193.004 36.1691 194.609 32.8035 198.158 32.9278V32.9189Z" fill="#407BFF"/>
<path d="M106.818 70.1633L107.081 68.0854C107.081 68.0854 108.78 69.4884 110.695 67.2861L111.033 69.4529C111.033 69.4529 109.034 71.1668 106.818 70.1633Z" fill="#407BFF"/>
<path d="M98.9143 9.76833L99.1772 7.69034C99.1772 7.69034 100.876 9.09343 102.791 6.89111L103.129 9.05791C103.129 9.05791 101.13 10.7718 98.9143 9.76833Z" fill="#407BFF"/>
<path d="M219.026 5.3279L219.288 3.24991C219.288 3.24991 220.988 4.653 222.903 2.45068L223.241 4.61748C223.241 4.61748 221.241 6.33138 219.026 5.3279Z" fill="#407BFF"/>
<path d="M72.3481 35.9826L72.7236 32.9811C72.7236 32.9811 75.1831 35.0147 77.9524 31.8267L78.4405 34.9525C78.4405 34.9525 75.5492 37.4301 72.3481 35.9826Z" fill="#407BFF"/>
<path opacity="0.7" d="M72.3481 35.9826L72.7236 32.9811C72.7236 32.9811 75.1831 35.0147 77.9524 31.8267L78.4405 34.9525C78.4405 34.9525 75.5492 37.4301 72.3481 35.9826Z" fill="white"/>
<path d="M119.247 37.7591L122.073 36.3472C122.073 36.3472 121.698 39.4198 126.044 39.7661L123.594 41.924C123.594 41.924 119.792 41.0804 119.238 37.7591H119.247Z" fill="#407BFF"/>
<path opacity="0.7" d="M119.247 37.7591L122.073 36.3472C122.073 36.3472 121.698 39.4198 126.044 39.7661L123.594 41.924C123.594 41.924 119.792 41.0804 119.238 37.7591H119.247Z" fill="white"/>
<path d="M237.763 28.7543L240.588 27.3423C240.588 27.3423 240.213 30.4149 244.559 30.7612L242.109 32.9191C242.109 32.9191 238.307 32.0755 237.753 28.7543H237.763Z" fill="#407BFF"/>
<path opacity="0.7" d="M237.763 28.7543L240.588 27.3423C240.588 27.3423 240.213 30.4149 244.559 30.7612L242.109 32.9191C242.109 32.9191 238.307 32.0755 237.753 28.7543H237.763Z" fill="white"/>
<path d="M349.81 62.9526L350.73 65.8476C350.73 65.8476 347.614 64.9152 346.421 68.8847L344.656 66.2028C344.656 66.2028 346.262 62.8372 349.81 62.9615V62.9526Z" fill="#407BFF"/>
<path d="M374.611 94.7971L374.33 91.7867C374.33 91.7867 377.174 93.2964 379.202 89.6377L380.356 92.6037C380.356 92.6037 378.066 95.5875 374.611 94.7883V94.7971Z" fill="#407BFF"/>
<path d="M421.764 197L421.482 193.99C421.482 193.99 424.327 195.5 426.354 191.841L427.509 194.807C427.509 194.807 425.219 197.791 421.764 196.991V197Z" fill="#407BFF"/>
<path d="M25.89 217.283L25.6084 214.273C25.6084 214.273 28.4528 215.783 30.4804 212.124L31.6351 215.09C31.6351 215.09 29.3446 218.074 25.89 217.275V217.283Z" fill="#407BFF"/>
<path d="M373.466 30.5486L373.729 28.4706C373.729 28.4706 375.428 29.8737 377.343 27.6714L377.681 29.8382C377.681 29.8382 375.682 31.5521 373.466 30.5486Z" fill="#407BFF"/>
<path d="M287.985 35.7962L288.248 33.7182C288.248 33.7182 289.947 35.1213 291.862 32.9189L292.2 35.0857C292.2 35.0857 290.2 36.7996 287.985 35.7962Z" fill="#407BFF"/>
<path d="M394.306 51.1239L397.132 49.7119C397.132 49.7119 396.756 52.7845 401.102 53.1308L398.652 55.2887C398.652 55.2887 394.85 54.4451 394.297 51.1239H394.306Z" fill="#407BFF"/>
<path opacity="0.7" d="M394.306 51.1239L397.132 49.7119C397.132 49.7119 396.756 52.7845 401.102 53.1308L398.652 55.2887C398.652 55.2887 394.85 54.4451 394.297 51.1239H394.306Z" fill="white"/>
<path d="M417.024 91.5648L419.849 90.1528C419.849 90.1528 419.474 93.2254 423.82 93.5718L421.37 95.7297C421.37 95.7297 417.568 94.886 417.014 91.5648H417.024Z" fill="#407BFF"/>
<path opacity="0.7" d="M417.024 91.5648L419.849 90.1528C419.849 90.1528 419.474 93.2254 423.82 93.5718L421.37 95.7297C421.37 95.7297 417.568 94.886 417.014 91.5648H417.024Z" fill="white"/>
<path d="M397.713 228.028L400.539 226.616C400.539 226.616 400.164 229.689 404.51 230.035L402.06 232.193C402.06 232.193 398.258 231.349 397.704 228.028H397.713Z" fill="#407BFF"/>
<path opacity="0.7" d="M397.713 228.028L400.539 226.616C400.539 226.616 400.164 229.689 404.51 230.035L402.06 232.193C402.06 232.193 398.258 231.349 397.704 228.028H397.713Z" fill="white"/>
<path d="M34.442 253.462L37.2676 252.05C37.2676 252.05 36.8921 255.122 41.2384 255.469L38.7883 257.627C38.7883 257.627 34.9865 256.783 34.4326 253.462H34.442Z" fill="#407BFF"/>
<path opacity="0.7" d="M34.442 253.462L37.2676 252.05C37.2676 252.05 36.8921 255.122 41.2384 255.469L38.7883 257.627C38.7883 257.627 34.9865 256.783 34.4326 253.462H34.442Z" fill="white"/>
<path d="M333.73 33.6651L334.64 30.7701C334.64 30.7701 336.696 33.1678 340 30.4771L339.916 33.6384C339.916 33.6384 336.621 35.6099 333.72 33.6651H333.73Z" fill="#407BFF"/>
<path opacity="0.7" d="M333.73 33.6651L334.64 30.7701C334.64 30.7701 336.696 33.1678 340 30.4771L339.916 33.6384C339.916 33.6384 336.621 35.6099 333.72 33.6651H333.73Z" fill="white"/>
<path d="M295.852 3.18803L296.762 0.293048C296.762 0.293048 298.818 2.69073 302.122 0L302.038 3.16139C302.038 3.16139 298.743 5.13282 295.842 3.18803H295.852Z" fill="#407BFF"/>
<path opacity="0.7" d="M295.852 3.18803L296.762 0.293048C296.762 0.293048 298.818 2.69073 302.122 0L302.038 3.16139C302.038 3.16139 298.743 5.13282 295.842 3.18803H295.852Z" fill="white"/>
<path d="M391.842 142.156C391.823 140.034 390.228 137.902 388.012 137.538C389.974 136.837 391.842 135.549 392.546 133.675C393.241 131.801 392.349 129.351 390.35 128.764C388.697 128.276 386.961 129.102 385.431 129.866C383.131 131.002 380.53 132.077 378.015 131.491C375.339 130.869 373.509 128.542 372.27 126.216C371.03 123.889 370.092 121.34 368.167 119.467C366.252 117.593 362.91 116.652 360.733 118.259L359.287 126.003C359.878 132.547 361.155 139.421 365.849 144.261C370.702 149.269 375.621 150.725 382.492 149.749C384.717 149.429 386.942 148.816 388.744 147.546C390.547 146.276 391.87 144.278 391.852 142.156H391.842Z" fill="#263238"/>
<path d="M360.723 118.25C361.249 118.668 368.975 122.904 365.746 129.511C362.516 136.118 360.648 134.448 360.648 134.448L360.733 118.25H360.723Z" fill="black"/>
<path d="M336.664 148.07C338.128 147.466 338.682 146.765 339.076 145.246C339.395 144.083 339.499 142.787 339.517 141.49L341.761 140.46L352.932 136.233C350.463 141.108 345.722 148.683 348.576 153.061C348.576 153.061 352.631 156.995 354.537 158.398C352.744 158.878 333.876 167.687 326.3 163.86C319.419 160.378 327.774 148.648 329.811 147.165C332.111 147.404 334.561 147.697 336.664 148.07Z" fill="#E9B376"/>
<path opacity="0.2" d="M338.795 145.886C341.254 146.224 345.084 145.993 346.642 143.764C347.281 142.849 347.713 141.863 347.929 141.18L339.564 142.672C339.255 143.648 339.508 144.581 338.795 145.886Z" fill="black"/>
<path d="M359.503 129.476C355.269 136.704 353.645 139.848 347.694 142.086C338.747 145.451 330.167 139.493 331.998 131.349C333.65 124.014 340.296 113.42 349.59 113.509C358.743 113.598 363.737 122.247 359.503 129.485V129.476Z" fill="#E9B376"/>
<path d="M347.168 127.78C346.858 128.499 346.173 128.943 345.619 128.774C345.075 128.606 344.878 127.895 345.187 127.185C345.497 126.465 346.182 126.021 346.727 126.19C347.271 126.359 347.469 127.069 347.159 127.78H347.168Z" fill="#263238"/>
<path d="M350.453 126.074C350.35 126.039 350.256 125.968 350.209 125.87C349.496 124.28 347.947 124.067 347.928 124.067C347.693 124.041 347.543 123.836 347.59 123.623C347.637 123.41 347.862 123.259 348.097 123.286C348.182 123.295 350.134 123.561 351.017 125.541C351.101 125.737 350.998 125.976 350.772 126.065C350.669 126.11 350.547 126.11 350.453 126.083V126.074Z" fill="#263238"/>
<path d="M339.564 119.592C339.48 119.53 339.433 119.441 339.423 119.334C339.405 119.121 339.592 118.935 339.827 118.917C342.258 118.757 343.507 120.16 343.563 120.222C343.713 120.391 343.676 120.631 343.479 120.764C343.282 120.897 343.009 120.862 342.859 120.693C342.812 120.64 341.827 119.565 339.893 119.69C339.771 119.69 339.649 119.663 339.564 119.592Z" fill="#263238"/>
<path d="M342.502 124.866C342.502 124.866 339.94 127.166 337.724 128.338C337.339 128.543 337.283 129.058 337.602 129.351C338.428 130.106 339.724 130.274 339.724 130.274L342.512 124.866H342.502Z" fill="#D58745"/>
<path d="M347.018 126.368L345.281 125.329C345.281 125.329 346.088 127.096 347.018 126.368Z" fill="#263238"/>
<path d="M339.912 124.733C339.602 125.444 338.917 125.897 338.363 125.728C337.818 125.559 337.621 124.849 337.931 124.138C338.241 123.428 338.926 122.975 339.47 123.144C340.015 123.312 340.212 124.023 339.902 124.733H339.912Z" fill="#263238"/>
<path d="M339.649 123.179L337.912 122.14C337.912 122.14 338.719 123.907 339.649 123.179Z" fill="#263238"/>
<path d="M351.354 140.247C356.198 139.279 362.403 134.572 363.849 129.004C365.36 123.197 362.366 117.149 355.363 113.952C341.639 107.692 335.021 123.783 335.021 123.783C343.554 109.77 355.278 120.168 355.278 120.168C350.134 125.115 354.067 131.02 354.067 131.02C354.377 135.798 351.354 140.238 351.354 140.238V140.247Z" fill="#263238"/>
<path d="M359.052 136.625C357.391 137.779 355.41 138.116 353.852 137.859C351.514 137.486 351.918 133.818 353.561 132.122C355.044 130.595 357.672 130.266 359.541 131.509C361.38 132.735 360.939 135.301 359.043 136.625H359.052Z" fill="#E9B376"/>
<path opacity="0.2" d="M355.889 136.224C355.673 136.224 355.438 136.206 355.185 136.171C355.053 136.153 354.969 136.038 354.988 135.922C355.006 135.798 355.119 135.718 355.251 135.736C356.508 135.913 357.269 135.549 357.682 135.212C358.132 134.848 358.292 134.413 358.292 134.155C358.292 133.64 357.841 133.063 357.203 133.054C357.072 133.054 356.968 132.956 356.968 132.832C356.968 132.708 357.072 132.61 357.203 132.61C358.132 132.619 358.752 133.418 358.752 134.155C358.752 134.626 358.452 135.15 357.982 135.54C357.579 135.869 356.912 136.215 355.879 136.215L355.889 136.224Z" fill="black"/>
<path d="M364.075 126.74C364.253 123.579 362.704 115.88 351.88 112.212C341.057 108.544 336.382 114.556 336.382 114.556C338.701 113.349 341.32 112.718 343.967 112.745C340.878 113.153 338.156 114.894 336.626 117.469C337.405 116.679 340.409 117.149 340.409 117.149C341.639 116.102 343.037 115.24 344.549 114.61C342.972 115.249 341.977 118.002 341.977 118.002L345.093 119.414C345.835 117.744 347.159 116.359 348.839 115.498C347.722 116.927 347.093 118.659 347.046 120.435C347.487 118.464 348.783 116.759 350.604 115.729C349.402 117.265 348.51 118.997 347.994 120.844C349.449 122.096 350.726 123.517 351.786 125.08C352.19 122.966 353.335 121.048 355.025 119.618C351.852 124.351 354.349 130.283 354.349 130.283C354.349 130.283 363.896 129.893 364.075 126.731V126.74Z" fill="#263238"/>
<path d="M341.244 133.454C341.592 134.35 341.883 136.011 341.883 136.011C342.042 136.011 342.211 136.011 342.371 136.011C344.586 135.993 345.609 135.292 346.079 134.528C346.332 134.102 346.407 133.658 346.417 133.285C346.436 132.859 346.351 132.557 346.351 132.557C345.178 133.232 343.112 133.391 342.005 133.436C341.545 133.462 341.244 133.454 341.244 133.454Z" fill="#263238"/>
<path d="M341.995 133.436L342.202 134.182C344.295 134.164 345.76 133.88 346.407 133.276C346.426 132.85 346.342 132.548 346.342 132.548C345.168 133.223 343.103 133.383 341.995 133.427V133.436Z" fill="white"/>
<path d="M342.362 136.012C344.577 135.994 345.6 135.293 346.07 134.529C345.319 134.564 344.408 134.68 343.61 135.008C343 135.257 342.615 135.639 342.362 136.021V136.012Z" fill="#C15854"/>
<path d="M313.214 146.676C313.214 146.676 306.089 125.16 306.69 121.154C307.291 117.149 317.87 97.373 317.87 97.373L324.235 100.508L316.359 121.838L326.337 142.592L313.214 146.676Z" fill="#E9B376"/>
<path d="M314.632 157.457C314.181 149.873 309.882 137.867 309.882 137.867L322.245 132.086C322.245 132.086 326.103 142.511 331.435 146.774C331.435 146.774 314.857 162.057 314.632 157.457Z" fill="#263238"/>
<path d="M313.665 105.667L317.87 97.3732C317.87 97.3732 317.41 95.4551 317.429 94.0431C317.448 92.6222 317.57 90.8284 319.259 89.0968C320.949 87.3651 321.24 89.0968 321.24 89.0968C323.183 87.5871 324.441 89.2566 324.441 89.2566C326.103 87.8979 327.595 89.5585 327.595 89.5585C327.595 89.5585 329.567 91.2014 329.97 92.2759C330.365 93.3504 328.497 97.0535 328.497 97.0535L324.582 99.8419L321.296 108.465C321.137 108.403 313.674 105.667 313.674 105.667H313.665Z" fill="#E9B376"/>
<path opacity="0.3" d="M322.442 95.819C323.484 94.8333 324.92 94.3449 326.385 94.4603C326.478 94.4603 326.563 94.3893 326.591 94.3094C326.816 93.5812 327.051 92.8441 327.276 92.1159C327.304 92.0271 327.258 91.9383 327.182 91.8939C326.431 91.4766 325.371 90.8105 325.821 89.8515C325.821 89.8515 325.849 89.8337 325.84 89.8337C325.915 89.8337 325.99 89.8515 326.093 89.887C326.507 90.0468 326.891 90.3221 327.248 90.5708C328.084 91.148 328.872 91.7696 329.661 92.4001C329.867 92.5599 330.168 92.2847 329.961 92.1159C329.219 91.5298 328.468 90.9437 327.689 90.3843C327.276 90.0912 326.854 89.7893 326.394 89.5762C325.962 89.3808 325.53 89.3542 325.352 89.8426C324.948 90.9526 326.103 91.743 326.967 92.2314L326.873 92.0094C326.647 92.7376 326.413 93.4746 326.187 94.2028L326.394 94.0518C324.826 93.9275 323.268 94.4781 322.151 95.526C321.954 95.7036 322.254 95.9878 322.451 95.8101L322.442 95.819Z" fill="black"/>
<path opacity="0.3" d="M318.039 90.9431C317.823 91.3072 317.823 91.7423 318.02 92.1064C318.217 92.4705 318.64 92.7014 319.081 92.7192C319.522 92.7369 319.926 92.5238 320.189 92.1775C320.461 91.8222 320.583 91.3694 320.761 90.9609C320.996 90.4103 321.296 89.8775 321.634 89.3713C321.775 89.1493 321.418 88.9539 321.268 89.167C320.949 89.6466 320.667 90.1528 320.433 90.6767C320.245 91.103 320.123 91.6002 319.822 91.9732C319.56 92.3018 319.081 92.4172 318.687 92.2041C318.292 91.991 318.18 91.4937 318.396 91.1296C318.527 90.9076 318.161 90.7033 318.029 90.9253L318.039 90.9431Z" fill="black"/>
<path opacity="0.3" d="M320.395 91.8047C320.527 92.3553 320.864 92.897 321.4 93.1634C321.878 93.3943 322.507 93.3943 322.958 93.0924C323.493 92.7283 323.577 92.0445 323.803 91.5028C324.066 90.8545 324.441 90.2329 324.892 89.6823C325.061 89.4781 324.76 89.1939 324.591 89.3982C324.216 89.8599 323.887 90.3484 323.624 90.8723C323.502 91.1298 323.39 91.3873 323.286 91.6538C323.183 91.9202 323.127 92.2132 322.977 92.4707C322.723 92.897 322.179 93.0302 321.709 92.8615C321.193 92.675 320.902 92.1866 320.789 91.6982C320.733 91.4495 320.32 91.5561 320.386 91.8047H320.395Z" fill="black"/>
<path opacity="0.3" d="M323.681 92.3378C323.906 92.9061 324.451 93.3057 325.089 93.3679C325.727 93.4301 326.366 93.066 326.657 92.5332C326.779 92.3023 326.422 92.1069 326.291 92.3289C326.065 92.7374 325.605 92.9949 325.126 92.9683C324.676 92.9417 324.244 92.6308 324.084 92.2312C324.047 92.1335 323.944 92.0625 323.822 92.0891C323.718 92.1158 323.634 92.2312 323.671 92.3378H323.681Z" fill="black"/>
<path d="M350.876 152.999C345.591 157.031 330.853 157.679 330.853 157.679C329.801 151.987 331.294 148.843 333.256 147.129L334.251 147.351C339.282 148.657 344.201 150.309 348.98 152.289C349.58 152.52 350.219 152.786 350.885 152.999H350.876Z" fill="#E9B376"/>
<path d="M303.029 191.647L346.53 203.102L349.28 197.117L327.013 185.528L305.958 185.928L303.029 191.647Z" fill="#263238"/>
<path opacity="0.2" d="M303.029 191.647L346.53 203.102L349.28 197.117L327.013 185.528L305.958 185.928L303.029 191.647Z" fill="black"/>
<path d="M334.251 147.334C339.273 148.648 344.201 150.291 348.98 152.271C353.476 154.047 357.822 156.134 361.99 158.514C346.191 182.065 343.441 189.808 339.367 202.48C333.115 200.402 319.334 200.145 306.455 195.882C310.369 161.516 323.69 146.881 323.69 146.881C327.201 146.25 330.815 146.41 334.251 147.343V147.334Z" fill="#E9B376"/>
<path d="M345.337 199.301C342.512 193.742 329.585 190.998 319.588 189.284C309.59 187.57 303.019 191.647 303.019 191.647L304.653 186.167C305.845 182.127 307.713 175.928 311.59 163.878C313.148 159.038 315.795 153.399 318.687 150.309C319.719 148.471 321.015 146.766 322.526 145.247C325.202 142.805 327.37 142.752 331.951 146.943C331.951 146.943 331.942 150.913 336.128 153.035C342.399 156.205 350.529 152.298 350.529 152.298C350.529 152.298 359.259 156.214 361.615 158.532C362.601 159.509 360.714 163.034 357.607 168.54C357.532 168.655 357.419 168.771 357.41 168.886C355.71 171.826 351.214 178.779 349.027 182.775C345.14 189.746 357.541 197.694 346.52 203.111L345.328 199.319L345.337 199.301Z" fill="#263238"/>
<path opacity="0.2" d="M352.584 168.407C352.847 167.536 353.054 167.039 353.054 167.039C354.809 167.066 356.518 167.599 357.954 168.549C357.879 168.664 357.766 168.78 357.757 168.895C356.058 171.834 353.598 174.676 351.42 178.672C350.801 175.005 351.458 171.95 352.594 168.398L352.584 168.407Z" fill="black"/>
<path d="M376.513 172.136C375.855 173.637 375.593 175.626 375.198 177.446C370.308 172.811 366.318 166.683 362.995 161.062L351.458 166.426V166.452C356.48 175.732 363.126 184.408 372.767 189.861C376.25 191.841 380.765 190.776 382.858 187.481C382.924 187.374 382.99 187.277 383.046 187.17C385.421 183.405 385.177 182.091 385.938 178.361L376.513 172.127V172.136Z" fill="#E9B376"/>
<path d="M351.242 167.536C350.444 171.914 357.738 179.551 357.738 179.551L369.594 168.797C369.594 168.797 364.525 159.561 361.258 158.132C357.55 156.471 352.049 163.167 351.251 167.545L351.242 167.536Z" fill="#263238"/>
<path d="M395.118 146.872L395.353 165.503L367.642 173.086L368.496 152.715L392.584 146.144L395.118 146.872Z" fill="#407BFF"/>
<path opacity="0.2" d="M395.118 146.872L395.353 165.503L367.642 173.086L368.496 152.715L392.584 146.144L395.118 146.872Z" fill="black"/>
<path d="M377.254 153.923L374.757 173.353L369.378 171.346L369.472 153.639L377.254 153.923Z" fill="#407BFF"/>
<path opacity="0.7" d="M377.254 153.923L374.757 173.353L369.378 171.346L369.472 153.639L377.254 153.923Z" fill="white"/>
<path d="M392.584 146.144L395.118 146.872L397.127 166.693L371.979 173.832L371.997 154.713L368.496 152.715L392.584 146.144Z" fill="#407BFF"/>
<path d="M378.775 167.616L379.244 158.425C379.244 158.425 378.033 156.826 377.47 155.512C376.907 154.198 376.278 152.502 377.132 150.282C377.986 148.07 378.953 149.544 378.953 149.544C380.127 147.431 381.967 148.523 381.967 148.523C382.943 146.658 384.999 147.644 384.999 147.644C384.999 147.644 387.496 148.434 388.303 149.278C389.11 150.122 388.904 154.224 388.904 154.224L386.444 158.238L386.576 167.403C386.407 167.403 378.775 167.616 378.775 167.616Z" fill="#E9B376"/>
<path d="M375.208 177.446L379.245 158.425L386.463 158.62C386.463 158.62 387.412 180.066 384.107 185.314C380.803 190.563 378.184 186.815 378.184 186.815L375.208 177.446Z" fill="#E9B376"/>
<path d="M326.722 356.19L318.49 357.815L310.041 338.509L322.554 335.907L326.722 356.19Z" fill="#E9B376"/>
<path d="M316.668 355.151L319.513 354.281C320.161 354.085 320.855 354.21 321.409 354.583C323.775 356.199 324.732 355.018 325.84 352.478C326.929 352.007 327.661 353.144 327.868 353.446L332.495 360.115C332.89 360.666 332.73 361.42 332.148 361.793C332.045 361.856 331.932 361.909 331.81 361.944C328.356 363.001 326.722 363.498 322.423 364.822L309.271 368.844C305.685 369.946 303.77 366.749 305.141 365.985C311.308 362.566 315.373 359.271 316.8 356.82C317.072 356.385 316.603 356.261 316.668 355.151Z" fill="#263238"/>
<path d="M313.28 358.942C314.171 358.649 315.026 358.267 315.833 357.806C315.908 357.752 315.917 357.655 315.861 357.584C315.833 357.548 315.786 357.522 315.739 357.522C315.279 357.459 311.186 356.98 310.492 357.85C310.36 358.001 310.332 358.214 310.426 358.392C310.548 358.738 310.839 359.013 311.205 359.12C311.9 359.271 312.623 359.209 313.28 358.942ZM315.204 357.77C314.218 358.276 312.35 359.12 311.346 358.791C311.083 358.703 310.876 358.507 310.773 358.259C310.726 358.188 310.736 358.09 310.801 358.028C311.186 357.548 313.514 357.601 315.204 357.77Z" fill="#407BFF"/>
<path d="M315.795 357.824C315.795 357.824 315.871 357.815 315.908 357.788C315.946 357.735 315.936 357.664 315.908 357.619C315.861 357.477 313.89 354.422 312.012 355.231C311.552 355.444 311.487 355.701 311.534 355.897C311.712 356.811 314.519 357.788 315.73 357.886L315.805 357.833L315.795 357.824ZM312.294 355.435C313.533 355.053 314.904 356.767 315.411 357.468C314.049 357.246 311.956 356.358 311.871 355.799C311.853 355.755 311.815 355.63 312.162 355.488L312.294 355.444V355.435Z" fill="#407BFF"/>
<path d="M318.321 358.792C318.264 358.792 318.217 358.774 318.17 358.739C317.419 358.144 316.406 357.886 315.439 358.055C315.317 358.081 315.185 357.993 315.166 357.877C315.148 357.762 315.232 357.637 315.354 357.62C316.443 357.433 317.607 357.726 318.461 358.401C318.565 358.481 318.574 358.623 318.49 358.712C318.443 358.765 318.377 358.792 318.311 358.792H318.321Z" fill="#407BFF"/>
<path d="M316.988 360.595C316.931 360.595 316.884 360.577 316.837 360.541C316.086 359.946 315.073 359.698 314.106 359.857C313.974 359.875 313.852 359.795 313.833 359.68C313.815 359.556 313.899 359.44 314.021 359.422C315.12 359.236 316.284 359.529 317.128 360.204C317.232 360.284 317.241 360.426 317.157 360.515C317.11 360.568 317.044 360.595 316.978 360.595H316.988Z" fill="#407BFF"/>
<path d="M315.148 362.326C315.091 362.326 315.044 362.308 314.998 362.273C314.247 361.678 313.233 361.429 312.266 361.589C312.144 361.616 312.012 361.527 311.994 361.411C311.975 361.287 312.059 361.172 312.181 361.154C313.28 360.967 314.444 361.26 315.289 361.935C315.392 362.015 315.401 362.157 315.317 362.246C315.27 362.299 315.204 362.326 315.138 362.326H315.148Z" fill="#407BFF"/>
<path opacity="0.3" d="M315.786 351.634L316.5 353.277L325.615 350.772L325.202 348.792L315.786 351.634Z" fill="black"/>
<path d="M391.833 307.268L386.529 313.449L367.097 303.52L375.058 294.027L391.833 307.268Z" fill="#E9B376"/>
<path d="M383.506 312.303L385.13 309.932C385.496 309.39 386.125 309.07 386.801 309.035C389.711 308.875 389.674 307.392 388.829 304.763C389.364 303.742 390.678 304.195 391.044 304.301L399.089 306.708C399.765 306.903 400.15 307.578 399.944 308.218C399.906 308.333 399.85 308.44 399.784 308.537C397.813 311.423 396.874 312.782 394.424 316.379L386.914 327.355C384.868 330.347 381.253 329.015 381.807 327.603C384.304 321.272 385.262 316.29 384.727 313.528C384.642 313.031 384.201 313.217 383.506 312.303Z" fill="#263238"/>
<path d="M383.413 317.267C383.91 316.504 384.314 315.695 384.633 314.861C384.652 314.781 384.595 314.692 384.511 314.674C384.464 314.665 384.408 314.674 384.37 314.701C383.966 314.932 380.474 317.001 380.521 318.084C380.521 318.28 380.643 318.466 380.831 318.546C381.16 318.741 381.563 318.777 381.929 318.644C382.568 318.351 383.093 317.862 383.422 317.267H383.413ZM384.126 315.207C383.704 316.193 382.812 317.96 381.817 318.306C381.554 318.395 381.263 318.368 381.019 318.235C380.934 318.2 380.878 318.129 380.887 318.04C380.869 317.445 382.708 316.086 384.126 315.207Z" fill="#407BFF"/>
<path d="M384.614 314.886C384.614 314.886 384.67 314.833 384.68 314.798C384.67 314.735 384.624 314.682 384.558 314.664C384.426 314.584 380.859 313.394 379.939 315.135C379.723 315.57 379.845 315.819 380.005 315.934C380.756 316.538 383.582 315.615 384.586 314.966L384.605 314.877L384.614 314.886ZM380.296 315.126C381 314.096 383.215 314.602 384.07 314.842C382.868 315.481 380.653 316.05 380.211 315.659C380.174 315.632 380.052 315.561 380.23 315.242L380.296 315.126Z" fill="#407BFF"/>
<path d="M384.313 315.358C384.257 315.358 384.201 315.341 384.163 315.305C384.069 315.225 384.051 315.083 384.135 314.994C384.858 314.195 385.937 313.742 387.064 313.742C387.195 313.742 387.299 313.849 387.299 313.964C387.299 314.089 387.195 314.186 387.064 314.186C387.054 314.186 387.036 314.186 387.026 314.186C386.069 314.186 385.121 314.595 384.492 315.287C384.445 315.341 384.379 315.367 384.313 315.367V315.358Z" fill="#407BFF"/>
<path d="M384.483 317.551C384.426 317.551 384.37 317.534 384.332 317.498C384.238 317.418 384.22 317.276 384.304 317.187C385.027 316.388 386.116 315.917 387.233 315.935C387.364 315.935 387.468 316.042 387.468 316.157C387.468 316.281 387.364 316.379 387.233 316.379C387.214 316.379 387.205 316.379 387.196 316.379C386.238 316.379 385.29 316.788 384.661 317.48C384.614 317.534 384.548 317.56 384.483 317.56V317.551Z" fill="#407BFF"/>
<path d="M384.21 319.993C384.154 319.993 384.098 319.975 384.06 319.94C383.966 319.86 383.947 319.718 384.032 319.629C384.745 318.839 385.825 318.377 386.923 318.377H386.97C387.102 318.377 387.205 318.484 387.205 318.599C387.205 318.723 387.102 318.821 386.97 318.821C386.961 318.821 386.942 318.821 386.933 318.821C385.975 318.821 385.027 319.229 384.398 319.922C384.351 319.975 384.285 320.002 384.22 320.002L384.21 319.993Z" fill="#407BFF"/>
<path opacity="0.3" d="M377.968 309.24L380.897 310.572L386.2 302.819L384.304 301.318L377.968 309.24Z" fill="black"/>
<path d="M331.623 196.824C331.623 196.824 321.127 256.091 317.917 281.906L328.234 348.206L312.134 352.522C312.134 352.522 292.327 300.732 293.716 276.498C291.801 254.342 302.353 196.406 306.474 194.959L331.623 196.815V196.824Z" fill="#407BFF"/>
<path opacity="0.2" d="M331.623 196.824C331.623 196.824 321.127 256.091 317.917 281.906L328.234 348.206L312.134 352.522C312.134 352.522 292.327 300.732 293.716 276.498C291.801 254.342 302.353 196.406 306.474 194.959L331.623 196.815V196.824Z" fill="black"/>
<path opacity="0.2" d="M326.863 217.062C323.652 231.554 321.446 260.628 318.593 276.844C316.499 265.752 313.045 232.442 322.77 217.035C327.229 209.922 326.234 208.67 326.872 217.053L326.863 217.062Z" fill="black"/>
<path d="M341.001 197.543C341.001 197.543 350.191 208.093 350.932 226.413C351.552 241.696 344.878 261.801 346.37 273.603C361.869 277.147 384.38 301.248 384.38 301.248L378.616 310.146C378.616 310.146 329.914 291.701 324.892 280.281C320.358 256.997 315.955 195.688 315.955 195.688L341.001 197.535V197.543Z" fill="#407BFF"/>
<path opacity="0.2" d="M341.001 197.543C341.001 197.543 350.191 208.093 350.932 226.413C351.552 241.696 344.878 261.801 346.37 273.603C361.869 277.147 384.38 301.248 384.38 301.248L378.616 310.146C378.616 310.146 329.914 291.701 324.892 280.281C320.358 256.997 315.955 195.688 315.955 195.688L341.001 197.535V197.543Z" fill="black"/>
<path d="M144.124 132.583L167.705 110.045L170.249 83.519L177.44 86.0499C177.44 86.0499 180.031 111.918 178.116 114.831C176.191 117.753 155.333 140.042 155.333 140.042L144.134 132.592L144.124 132.583Z" fill="#895555"/>
<path d="M178.078 92.7637L177.44 83.5814C177.44 83.5814 178.613 81.9652 179.158 80.642C179.702 79.3189 180.294 77.605 179.402 75.4115C178.51 73.2092 177.562 74.71 177.562 74.71C176.351 72.6231 174.53 73.7332 174.53 73.7332C173.525 71.8861 171.479 72.8984 171.479 72.8984C171.479 72.8984 169.001 73.7243 168.203 74.5857C167.405 75.4471 167.686 79.5409 167.686 79.5409L170.221 83.5104L169.883 92.6749C170.052 92.6749 178.059 92.7637 178.059 92.7637H178.078Z" fill="#895555"/>
<path opacity="0.3" d="M174.192 80.3484C173.573 78.9808 172.324 77.933 170.831 77.4978L170.991 77.6932C171.066 76.9295 171.141 76.1747 171.216 75.411L171.057 75.6063C171.958 75.4731 173 75.2511 173.375 74.3542C173.479 74.1144 173.544 73.7326 173.338 73.5106C173.188 73.3596 172.944 73.333 172.737 73.3419C172.296 73.3419 171.845 73.4573 171.413 73.5639C170.371 73.8125 169.348 74.1233 168.325 74.443C168.072 74.5229 168.175 74.9048 168.438 74.8249C169.423 74.5229 170.418 74.2121 171.423 73.9724C171.864 73.8658 172.333 73.7415 172.793 73.7415C172.906 73.7415 172.962 73.7503 173.019 73.7859C173.019 73.7859 173.037 73.7859 173.037 73.8391C173.037 73.7947 173.037 73.9546 173.037 73.9901C173.009 74.2565 172.84 74.4963 172.634 74.6739C172.174 75.0646 171.517 75.1446 170.935 75.2334C170.841 75.2511 170.784 75.3488 170.775 75.4287C170.7 76.1924 170.625 76.9473 170.55 77.711C170.55 77.7998 170.625 77.8797 170.709 77.9063C172.117 78.3148 173.244 79.2917 173.826 80.5704C173.929 80.8102 174.295 80.6059 174.192 80.3662V80.3484Z" fill="black"/>
<path opacity="0.3" d="M179.402 77.5783C179.449 77.9779 179.205 78.3952 178.773 78.4929C178.341 78.5906 177.89 78.3064 177.759 77.898C177.618 77.4362 177.712 76.9122 177.703 76.4327C177.684 75.8644 177.618 75.3049 177.515 74.7543C177.468 74.5057 177.055 74.6122 177.111 74.8609C177.243 75.5535 177.299 76.2551 177.28 76.9566C177.271 77.5072 177.233 78.1288 177.674 78.5462C178.041 78.9014 178.651 79.008 179.12 78.7949C179.589 78.5817 179.89 78.0667 179.824 77.5783C179.796 77.3296 179.374 77.3207 179.402 77.5783Z" fill="black"/>
<path opacity="0.3" d="M176.942 77.3026C176.651 77.7022 176.191 78.0308 175.666 78.0397C175.178 78.0397 174.708 77.7377 174.624 77.2671C174.577 77.0007 174.624 76.7343 174.652 76.4679C174.671 76.1659 174.68 75.8729 174.652 75.5709C174.624 74.9848 174.511 74.3987 174.342 73.8393C174.267 73.5906 173.863 73.6972 173.938 73.9458C174.145 74.6385 174.248 75.3489 174.239 76.0594C174.239 76.6632 174.023 77.3559 174.445 77.8887C174.774 78.2972 175.347 78.4926 175.882 78.4215C176.482 78.3416 176.971 77.9686 177.299 77.5068C177.449 77.2937 177.083 77.0983 176.933 77.3026H176.942Z" fill="black"/>
<path opacity="0.3" d="M173.713 76.6018C173.394 76.9304 172.887 77.0725 172.436 76.9393C171.986 76.8061 171.657 76.4065 171.61 75.9713C171.601 75.8648 171.526 75.7671 171.394 75.7671C171.291 75.7671 171.169 75.8559 171.178 75.9713C171.244 76.5752 171.667 77.1169 172.277 77.3123C172.887 77.5076 173.582 77.3212 174.004 76.886C174.182 76.6995 173.891 76.4154 173.704 76.6018H173.713Z" fill="black"/>
<path d="M206.193 347.379L196.994 324.61L212.915 320.259L217.881 348.418L206.193 347.379Z" fill="#407BFF"/>
<path opacity="0.7" d="M206.193 347.379L196.994 324.61L212.915 320.259L217.881 348.418L206.193 347.379Z" fill="white"/>
<path d="M208.08 359.314L214.736 358.906C214.736 358.906 216.04 358.187 216.838 358.222C217.636 358.258 220.406 358.56 220.406 358.56L238.091 357.476C237.904 356.828 237.688 356.251 237.453 355.745C237.162 355.123 236.852 354.608 236.505 354.173C235.303 352.654 233.764 352.175 232.13 352.184C229.643 352.201 221.532 348.054 221.532 348.054C221.532 348.054 218.641 347.353 218.303 344.689C218.171 343.694 216.425 342.566 215.627 342.513C213.994 342.406 213.159 343.365 213.027 344.822L212.868 346.509L209.094 346.225C209.094 346.225 205.179 344.76 205.47 346.394C205.639 347.326 206.569 351.482 207.207 354.786C207.357 355.558 207.498 356.286 207.611 356.926C207.883 358.347 208.071 359.323 208.071 359.323L208.08 359.314Z" fill="#263238"/>
<g opacity="0.7">
<path d="M238.101 357.477L220.415 358.56C220.415 358.56 217.636 358.267 216.848 358.223C216.05 358.187 214.745 358.907 214.745 358.907L208.089 359.315C208.089 359.315 207.902 358.338 207.629 356.926L237.462 355.745C237.697 356.251 237.913 356.828 238.101 357.477Z" fill="white"/>
</g>
<path d="M225.541 349.537C225.456 349.475 225.325 349.475 225.231 349.537C224.808 349.821 224.47 350.212 224.245 350.682C224.132 350.931 224.546 351.144 224.658 350.887C224.855 350.469 225.156 350.123 225.522 349.874C225.644 349.794 225.653 349.635 225.541 349.546V349.537Z" fill="white"/>
<path d="M224.076 348.889C223.992 348.827 223.86 348.827 223.766 348.889C223.344 349.174 223.006 349.564 222.781 350.035C222.668 350.284 223.081 350.497 223.194 350.239C223.391 349.822 223.691 349.475 224.057 349.227C224.179 349.147 224.189 348.987 224.076 348.898V348.889Z" fill="white"/>
<path d="M222.583 348.286C222.499 348.224 222.367 348.224 222.274 348.286C221.851 348.57 221.513 348.961 221.288 349.431C221.175 349.68 221.588 349.893 221.701 349.636C221.898 349.218 222.198 348.872 222.565 348.623C222.687 348.543 222.696 348.384 222.583 348.295V348.286Z" fill="white"/>
<path d="M198.524 328.624L213.581 324.086L214.107 327.025L199.8 331.545L198.524 328.624Z" fill="#407BFF"/>
<path d="M200.11 332.541L214.276 327.977L214.463 329.033L200.636 333.82L200.11 332.541Z" fill="#407BFF"/>
<path d="M118.177 352.468L118.243 328.092L134.746 329.442L128.691 357.406L118.177 352.468Z" fill="#407BFF"/>
<path opacity="0.7" d="M118.177 352.468L118.243 328.092L134.746 329.442L128.691 357.406L118.177 352.468Z" fill="white"/>
<path d="M116.056 364.004L124.702 365.034C124.702 365.034 126.1 364.502 126.88 364.653C127.659 364.804 130.362 365.478 130.362 365.478L147.701 366.926C147.616 366.26 147.494 365.656 147.335 365.123C147.147 364.475 146.912 363.916 146.64 363.436C145.682 361.767 144.556 361.021 142.941 360.799C140.482 360.47 133.094 355.248 133.094 355.248C133.094 355.248 130.343 354.147 130.428 351.465C130.456 350.462 128.898 349.112 128.119 348.943C126.523 348.606 125.547 349.45 125.19 350.861L124.777 352.504L121.088 351.696C121.088 351.696 117.436 349.707 117.483 351.368C117.511 352.318 115.793 356.048 115.906 359.395C115.934 360.177 115.953 360.914 115.981 361.562C116.028 363.001 116.065 363.995 116.065 363.995L116.056 364.004Z" fill="#263238"/>
<path opacity="0.7" d="M147.701 366.926L130.362 365.479C130.362 365.479 127.659 364.804 126.88 364.653C126.1 364.502 124.702 365.035 124.702 365.035L116.056 364.004C116.056 364.004 116.018 363.019 115.971 361.571L147.335 365.115C147.485 365.647 147.616 366.251 147.701 366.917V366.926Z" fill="white"/>
<path d="M136.83 357.264C136.755 357.184 136.633 357.167 136.53 357.22C136.07 357.442 135.666 357.779 135.384 358.215C135.234 358.445 135.61 358.712 135.76 358.472C136.013 358.081 136.37 357.788 136.764 357.593C136.896 357.531 136.933 357.371 136.83 357.264Z" fill="white"/>
<path d="M135.488 356.412C135.413 356.332 135.291 356.314 135.187 356.367C134.727 356.589 134.324 356.927 134.042 357.362C133.892 357.593 134.267 357.859 134.418 357.619C134.671 357.229 135.028 356.936 135.422 356.74C135.553 356.678 135.591 356.518 135.488 356.412Z" fill="white"/>
<path d="M134.098 355.612C134.023 355.532 133.901 355.514 133.798 355.568C133.338 355.79 132.934 356.127 132.653 356.562C132.503 356.793 132.878 357.059 133.028 356.82C133.282 356.429 133.638 356.136 134.033 355.941C134.164 355.878 134.202 355.719 134.098 355.612Z" fill="white"/>
<path d="M118.15 332.354L133.911 333.243L133.291 336.155L118.225 335.516L118.15 332.354Z" fill="#407BFF"/>
<path d="M118.131 336.545L133.085 337.096L132.859 338.152L118.14 337.921L118.131 336.545Z" fill="#407BFF"/>
<path d="M114.751 347.433L132.54 346.465C132.54 346.465 144.875 294.053 145.673 280.813C146.471 267.572 145.044 234.555 145.044 234.555V234.617C145.729 235.292 150.986 243.107 157.811 250.344C166.738 259.82 176.266 270.059 178.5 272.829C185.053 280.972 200.739 342.868 200.739 342.868L217.505 340.266C217.505 340.266 207.104 275.449 204.128 267.394C197.191 248.595 160.524 210.481 158.984 208.376C157.013 205.694 152.056 197.116 152.056 197.116L108.527 204.628C108.527 204.628 108.189 210.898 108.574 216.35C110.029 236.793 119.942 270.858 121.144 278.255C116.732 295.243 114.76 347.45 114.76 347.45L114.751 347.433Z" fill="#263238"/>
<path opacity="0.2" d="M147.888 230.79L145.044 234.609C145.607 235.55 154.985 247.929 157.426 249.794C158.055 241.34 155.896 234.591 147.888 230.79Z" fill="black"/>
<path d="M130.597 148.976C132.878 152.12 136.455 155.548 143.674 152.182C148.527 149.918 155.023 143.311 163.903 136.233L148.583 125.577C143.204 129.839 141.477 131.935 134.267 137.885C124.814 147.138 130.606 148.985 130.606 148.985L130.597 148.976Z" fill="#407BFF"/>
<path opacity="0.7" d="M130.597 148.976C132.878 152.12 136.455 155.548 143.674 152.182C148.527 149.918 155.023 143.311 163.903 136.233L148.583 125.577C143.204 129.839 141.477 131.935 134.267 137.885C124.814 147.138 130.606 148.985 130.606 148.985L130.597 148.976Z" fill="#263238"/>
<path d="M150.01 158.629C148.677 154.349 146.781 149.047 145.213 144.803C143.533 140.238 139.496 136.988 134.38 137.068C126.542 137.201 118.29 137.21 105.073 140.558L102.191 162.306L109.325 197.001C109.325 197.001 109.278 205.42 107.429 213.065C126.551 218.598 150.076 217.355 161.594 209.984C161.594 209.984 152.685 167.225 150.001 158.62L150.01 158.629Z" fill="#407BFF"/>
<path opacity="0.7" d="M113.08 138.853C113.08 138.853 119.069 145.105 127.893 143.214C136.717 141.322 134.68 137.068 134.68 137.068C134.68 137.068 133.751 137.086 132.287 137.095C128.269 137.122 119.867 137.335 113.08 138.853Z" fill="#263238"/>
<path d="M125.406 180.679L115.446 170.973L110.133 192.108C110.133 192.108 114.207 199.532 114.319 199.15C114.432 198.768 125.406 180.688 125.406 180.688V180.679Z" fill="#263238"/>
<path d="M124.195 180.954L115.568 172.819L110.884 172.056L110.649 190.012L116.206 193.235L124.195 180.954Z" fill="#407BFF"/>
<path opacity="0.7" d="M124.195 180.954L115.568 172.819L110.884 172.056L110.649 190.012L116.206 193.235L124.195 180.954Z" fill="white"/>
<path d="M110.621 170.093L119.576 179.737L125.406 180.625L118.309 208.678L110.039 209.975L104.068 198.794L110.621 170.093Z" fill="#407BFF"/>
<path d="M110.621 170.093L119.576 179.737L125.406 180.625L118.309 208.678L110.039 209.975L104.068 198.794L110.621 170.093Z" fill="#263238"/>
<path d="M119.351 181.407L108.565 172.482L105.026 193.946C105.026 193.946 109.71 201.033 109.795 200.642C109.87 200.251 119.351 181.407 119.351 181.407Z" fill="#407BFF"/>
<path opacity="0.4" d="M119.351 181.407L108.565 172.482L105.026 193.946C105.026 193.946 109.71 201.033 109.795 200.642C109.87 200.251 119.351 181.407 119.351 181.407Z" fill="black"/>
<path d="M118.187 181.824L108.903 174.356L104.172 173.947L105.43 191.868L111.24 194.674L118.187 181.824Z" fill="#407BFF"/>
<path opacity="0.7" d="M118.187 181.824L108.903 174.356L104.172 173.947L105.43 191.868L111.24 194.674L118.187 181.824Z" fill="white"/>
<path d="M103.749 172.012L113.474 180.963L119.351 181.407L114.629 209.913L106.481 211.804L99.6094 201.121L103.749 172.012Z" fill="#407BFF"/>
<path opacity="0.2" d="M103.749 172.012L113.474 180.963L119.351 181.407L114.629 209.913L106.481 211.804L99.6094 201.121L103.749 172.012Z" fill="black"/>
<path d="M93.7893 149.847C93.0384 151.143 76.4321 177.669 75.8032 183.459C75.071 190.243 76.5166 192.277 79.6144 194.062C82.7029 195.856 112.864 196.646 112.864 196.646L111.776 188.112L90.898 182.597L109.081 155.743L93.7893 149.856V149.847Z" fill="#895555"/>
<path d="M105.373 140.567C105.373 140.567 97.8166 139.954 93.9866 147.271C90.4569 154.012 81.7361 168.771 81.7361 168.771L99.9194 176.061L110.011 159.073L105.373 140.576V140.567Z" fill="#407BFF"/>
<path opacity="0.7" d="M105.373 140.567C105.373 140.567 97.8166 139.954 93.9866 147.271C90.4569 154.012 81.7361 168.771 81.7361 168.771L99.9194 176.061L110.011 159.073L105.373 140.576V140.567Z" fill="#263238"/>
<path d="M100.792 195.82L112.855 196.646C112.855 196.646 114.76 198.297 116.384 199.15C118.018 200.002 120.139 200.988 123.162 200.331C126.185 199.665 124.392 198.315 124.392 198.315C127.321 197.258 126.175 194.949 126.175 194.949C128.757 194.088 127.781 191.539 127.781 191.539C127.781 191.539 127.124 188.511 126.147 187.437C125.162 186.362 119.783 185.998 119.783 185.998L114.178 188.271L102.238 186.744C102.209 186.948 100.792 195.82 100.792 195.82Z" fill="#895555"/>
<path d="M115.521 139.43C120.008 135.362 119.107 124.333 117.915 118.632L132.042 128.933C131.761 129.599 131.517 130.283 131.338 130.984C130.954 132.236 130.925 133.551 131.235 134.821C131.545 135.86 132.962 138.737 132.962 138.737C132.962 138.737 133.835 141.987 124.673 142.333C120.674 142.893 115.521 139.438 115.521 139.438V139.43Z" fill="#895555"/>
<path opacity="0.2" d="M120.684 124.342C120.29 131.091 127.584 133.95 131.245 134.821C130.925 133.551 130.963 132.236 131.348 130.984L120.684 124.333V124.342Z" fill="black"/>
<path d="M115.305 113.748C117.445 121.58 118.487 126.038 123.669 129.288C131.47 134.19 141.157 128.8 141.608 120.497C142.012 113.028 138.435 101.475 129.348 99.8944C120.393 98.3403 113.155 105.906 115.305 113.739V113.748Z" fill="#895555"/>
<path d="M111.691 103.091C112.01 98.1981 124.72 95.8893 128.757 97.6476C129.358 97.914 122.533 102.727 122.956 102.487L119.632 104.246C119.06 104.228 118.112 105.009 117.868 106.67C117.868 106.67 120.918 119.582 117.68 124.049C114.169 123.178 112.93 118.063 111.296 115.186C108.856 110.888 105.673 104.53 111.681 103.1L111.691 103.091Z" fill="#263238"/>
<path d="M113.249 120.958C114.357 122.876 116.328 124.129 118.196 124.608C121.012 125.327 121.444 122.575 120.693 120.115C120.017 117.904 118.741 115.293 115.906 115.657C113.108 116.012 111.991 118.756 113.249 120.949V120.958Z" fill="#895555"/>
<path d="M127.02 113.508C127.189 114.316 127.79 114.885 128.363 114.778C128.935 114.672 129.273 113.926 129.104 113.118C128.935 112.309 128.335 111.732 127.762 111.848C127.189 111.954 126.851 112.7 127.02 113.508Z" fill="#263238"/>
<path d="M135.732 112.558C135.901 113.366 136.501 113.943 137.074 113.828C137.647 113.721 137.985 112.975 137.816 112.167C137.647 111.359 137.046 110.782 136.473 110.897C135.901 111.004 135.563 111.75 135.732 112.558Z" fill="#263238"/>
<path d="M133.892 112.522C133.892 112.522 137.506 116.057 138.735 117.54C137.712 118.774 135.506 118.685 135.506 118.685L133.892 112.531V112.522Z" fill="#6D3939"/>
<path d="M125.18 110.409C125.321 110.435 125.481 110.391 125.584 110.284C126.832 108.979 128.363 109.157 128.381 109.157C128.607 109.183 128.823 109.032 128.86 108.828C128.898 108.615 128.738 108.419 128.503 108.393C128.419 108.384 126.494 108.162 124.955 109.787C124.805 109.947 124.814 110.196 124.992 110.329C125.049 110.373 125.114 110.4 125.18 110.418V110.409Z" fill="#263238"/>
<path opacity="0.2" d="M119.191 120.319C119.088 120.319 119.004 120.257 118.966 120.168C118.75 119.538 118.365 118.969 117.839 118.516C117.502 118.223 116.957 117.868 116.309 117.841C115.737 117.824 115.173 118.099 114.976 118.516C114.92 118.632 114.789 118.676 114.667 118.632C114.545 118.578 114.498 118.454 114.545 118.339C114.817 117.753 115.558 117.362 116.328 117.406C117.117 117.442 117.755 117.859 118.149 118.197C118.741 118.703 119.172 119.333 119.407 120.044C119.445 120.159 119.379 120.283 119.257 120.319C119.238 120.319 119.21 120.328 119.182 120.328L119.191 120.319Z" fill="black"/>
<path d="M139.928 108.375C140.003 108.348 140.069 108.295 140.115 108.233C140.247 108.055 140.191 107.815 140.003 107.691C138.078 106.51 136.304 107.22 136.22 107.238C136.004 107.327 135.91 107.549 135.994 107.753C136.088 107.949 136.323 108.037 136.539 107.958C136.614 107.922 137.985 107.398 139.533 108.348C139.655 108.419 139.806 108.428 139.928 108.384V108.375Z" fill="#263238"/>
<path d="M135.356 121.412C134.69 122.335 134.089 123.294 133.573 124.298C133.375 124.244 133.169 124.191 132.981 124.12C130.287 123.312 129.32 122.104 129.076 121.003C128.963 120.461 128.992 119.902 129.151 119.369C129.236 119.067 129.358 118.783 129.527 118.508C130.681 119.742 133.122 120.675 134.455 121.119C135.037 121.287 135.366 121.412 135.366 121.412H135.356Z" fill="#263238"/>
<path d="M134.474 121.101L133.92 121.935C131.395 121.172 129.724 120.319 129.17 119.342C129.254 119.04 129.376 118.756 129.545 118.481C130.709 119.724 133.141 120.648 134.474 121.092V121.101Z" fill="white"/>
<path d="M133 124.102C130.306 123.294 129.339 122.087 129.095 120.985C130.109 121.305 131.057 121.802 131.892 122.433C132.437 122.868 132.822 123.454 133 124.102Z" fill="#C15854"/>
<path d="M115.793 101.741C115.793 101.741 119.689 89.6641 131.385 89.9483C130.334 90.3657 129.367 90.9607 128.55 91.7244C128.55 91.7244 138.219 89.2024 142.547 95.1966L140.463 94.4861C140.463 94.4861 144.011 99.4502 141.777 103.526L140.885 101.83C140.885 101.83 137.778 107.247 131.508 106.954L133.385 105.587C133.385 105.587 122.993 107.087 119.989 105.054C118.459 104.103 117.051 102.993 115.784 101.741H115.793Z" fill="#263238"/>
</svg>
