<svg width="500" height="500" viewBox="0 0 500 500" fill="none" xmlns="http://www.w3.org/2000/svg">
<path d="M243 482.04C356.135 482.04 447.85 434.672 447.85 376.24C447.85 317.809 356.135 270.44 243 270.44C129.864 270.44 38.1499 317.809 38.1499 376.24C38.1499 434.672 129.864 482.04 243 482.04Z" fill="#F5F5F5"/>
<path d="M328.91 425.22C366.709 425.22 397.35 407.531 397.35 385.71C397.35 363.889 366.709 346.2 328.91 346.2C291.112 346.2 260.47 363.889 260.47 385.71C260.47 407.531 291.112 425.22 328.91 425.22Z" fill="#E6E6E6"/>
<path d="M100.83 407.82C99.929 407.802 99.0605 407.48 98.3654 406.906C97.6702 406.332 97.1891 405.541 97 404.66L96.12 400C94.0926 399.625 92.0891 399.131 90.12 398.52H90L81.75 402.34C81.1458 402.608 80.4912 402.745 79.83 402.74C79.0124 402.747 78.2067 402.543 77.49 402.15L69.28 397.4C68.7864 397.135 68.3695 396.747 68.0698 396.274C67.7701 395.801 67.5978 395.258 67.5697 394.699C67.5415 394.139 67.6584 393.582 67.909 393.081C68.1596 392.58 68.5354 392.153 69 391.84L74 388.26C73.5488 387.659 73.1347 387.031 72.76 386.38L62.29 385.72C61.3436 385.657 60.456 385.238 59.8051 384.549C59.1542 383.859 58.788 382.948 58.78 382V375.89C58.7808 374.938 59.1442 374.023 59.7963 373.33C60.4485 372.637 61.3402 372.218 62.29 372.16L72.76 371.49C73.1368 370.84 73.5508 370.212 74 369.61L69 366C68.5356 365.686 68.1601 365.257 67.9097 364.755C67.6593 364.254 67.5426 363.696 67.5707 363.136C67.5989 362.576 67.771 362.033 68.0704 361.559C68.3698 361.085 68.7865 360.696 69.28 360.43L77.49 355.69C78.2067 355.296 79.0124 355.093 79.83 355.1C80.4917 355.09 81.1473 355.227 81.75 355.5L90 359.35H90.15C92.1006 358.753 94.0838 358.269 96.09 357.9L96.98 353.22C97.1549 352.333 97.6303 351.533 98.3262 350.955C99.0221 350.378 99.8958 350.058 100.8 350.05H112.88C113.784 350.058 114.658 350.378 115.354 350.955C116.05 351.533 116.525 352.333 116.7 353.22L117.59 357.9C119.618 358.27 121.622 358.764 123.59 359.38C123.53 359.38 123.59 359.38 123.59 359.38H123.7L131.94 355.56C132.548 355.291 133.206 355.155 133.87 355.16C134.684 355.153 135.487 355.356 136.2 355.75L144.42 360.49C144.914 360.756 145.33 361.145 145.63 361.619C145.929 362.093 146.101 362.636 146.129 363.196C146.157 363.756 146.041 364.314 145.79 364.815C145.54 365.317 145.164 365.746 144.7 366.06L139.7 369.64C140.152 370.239 140.569 370.863 140.95 371.51L151.42 372.18C152.37 372.238 153.262 372.657 153.914 373.35C154.566 374.043 154.929 374.958 154.93 375.91V382C154.927 382.952 154.563 383.867 153.912 384.561C153.26 385.255 152.37 385.677 151.42 385.74L140.95 386.4C140.572 387.051 140.154 387.679 139.7 388.28L144.7 391.86C145.165 392.173 145.54 392.6 145.791 393.101C146.042 393.602 146.159 394.159 146.13 394.719C146.102 395.278 145.93 395.821 145.63 396.294C145.331 396.767 144.914 397.155 144.42 397.42L136.2 402.17C135.487 402.563 134.684 402.767 133.87 402.76C133.206 402.765 132.548 402.628 131.94 402.36L123.7 398.54H123.55C121.601 399.144 119.617 399.631 117.61 400L116.72 404.68C116.541 405.564 116.065 406.361 115.369 406.936C114.674 407.511 113.802 407.83 112.9 407.84L100.83 407.82ZM94.31 373.22C91.5 374.85 89.89 376.93 89.89 378.94C89.89 380.95 91.5 383.03 94.31 384.66C98.1712 386.718 102.496 387.75 106.87 387.66C111.242 387.755 115.564 386.721 119.42 384.66C122.23 383.04 123.84 380.96 123.84 378.95C123.84 376.94 122.23 374.86 119.42 373.23C115.562 371.173 111.241 370.14 106.87 370.23C102.497 370.137 98.1725 371.166 94.31 373.22Z" fill="#E0E0E0"/>
<path d="M196.68 361.61L193.06 357.8C192.15 357.85 191.24 357.88 190.34 357.88C189.44 357.88 188.51 357.88 187.66 357.8L183.82 361.85C183.438 362.224 182.984 362.518 182.486 362.714C181.987 362.91 181.455 363.003 180.92 362.99C180.56 362.991 180.201 362.951 179.85 362.87L171 360.75C170.479 360.631 169.991 360.396 169.572 360.064C169.154 359.732 168.814 359.31 168.58 358.83C168.386 358.406 168.289 357.945 168.298 357.479C168.307 357.013 168.42 356.556 168.63 356.14L170.12 353.19C169.28 352.72 168.48 352.19 167.74 351.72L159.33 353.13C159.132 353.162 158.931 353.178 158.73 353.18C158.069 353.167 157.42 353.002 156.833 352.697C156.247 352.391 155.739 351.954 155.35 351.42L152 346.74C151.59 346.151 151.361 345.456 151.34 344.74C151.346 344.068 151.565 343.415 151.966 342.876C152.367 342.337 152.928 341.939 153.57 341.74L160.14 339.66V339L153.8 337C153.125 336.818 152.522 336.433 152.075 335.896C151.627 335.359 151.357 334.697 151.3 334V333.83C151.299 333.19 151.502 332.566 151.88 332.05L155.54 326.95C155.92 326.462 156.409 326.071 156.969 325.809C157.529 325.546 158.142 325.42 158.76 325.44C158.998 325.437 159.235 325.454 159.47 325.49L167.75 326.89C168.36 326.46 169.02 326.05 169.75 325.66L170.19 325.42L168.81 322.68C168.567 322.201 168.43 321.676 168.41 321.14V320.77V320.64C168.494 319.982 168.777 319.365 169.223 318.873C169.668 318.381 170.253 318.038 170.9 317.89L180.06 315.7C180.341 315.631 180.63 315.597 180.92 315.6C182.089 315.653 183.192 316.155 184 317L187.63 320.81C188.56 320.81 189.49 320.74 190.41 320.74C191.33 320.74 192.19 320.74 193.02 320.81L196.86 316.81C197.243 316.432 197.698 316.136 198.198 315.938C198.698 315.741 199.233 315.646 199.77 315.66C200.124 315.661 200.476 315.705 200.82 315.79L209.66 317.9C210.407 318.047 211.083 318.442 211.578 319.021C212.074 319.6 212.36 320.329 212.39 321.09C212.391 321.582 212.278 322.068 212.06 322.51L210.57 325.51L211.05 325.78C211.73 326.17 212.38 326.57 212.93 326.96L221.35 325.54C221.546 325.524 221.744 325.524 221.94 325.54C222.601 325.555 223.249 325.722 223.835 326.027C224.421 326.332 224.929 326.767 225.32 327.3L228.64 331.93C229.084 332.529 229.325 333.254 229.33 334V334.43L229.27 334.6C229.164 335.162 228.907 335.686 228.527 336.114C228.146 336.542 227.656 336.858 227.11 337.03L220.6 339C220.6 339.206 220.6 339.416 220.6 339.63L226.99 341.63C227.813 341.879 228.521 342.41 228.99 343.13L229.06 343.24C229.177 343.438 229.271 343.65 229.34 343.87L229.44 344.08L229.58 346.23L228.81 346.69L225.23 351.69C224.854 352.176 224.368 352.567 223.812 352.83C223.255 353.092 222.645 353.219 222.03 353.2C221.789 353.2 221.548 353.18 221.31 353.14L213 351.72C212.222 352.25 211.418 352.741 210.59 353.19L212 356C212.243 356.46 212.376 356.971 212.389 357.491C212.401 358.012 212.292 358.528 212.07 359C211.865 359.443 211.561 359.833 211.182 360.14C210.802 360.447 210.356 360.663 209.88 360.77L200.67 362.98C200.404 363.04 200.133 363.071 199.86 363.07C199.26 363.049 198.669 362.91 198.123 362.659C197.577 362.409 197.087 362.052 196.68 361.61ZM202.49 336.54C200.636 334.873 198.366 333.74 195.92 333.26C194.098 332.831 192.232 332.616 190.36 332.62C184.72 332.62 179.59 334.49 177.6 337.27C177.242 337.694 177.005 338.206 176.914 338.753C176.822 339.301 176.88 339.862 177.08 340.38L177.17 340.6L177.4 341C177.89 341.739 178.514 342.38 179.24 342.89C179.586 343.145 179.946 343.378 180.32 343.59C181.721 344.367 183.227 344.939 184.79 345.29C186.612 345.722 188.478 345.937 190.35 345.93C193.843 345.998 197.297 345.193 200.4 343.59C200.789 343.371 201.163 343.127 201.52 342.86C202.132 342.419 202.672 341.886 203.12 341.28C203.539 340.787 203.791 340.175 203.842 339.53C203.892 338.885 203.737 338.241 203.4 337.69L203.24 337.41L202.99 337.07L202.77 336.8L202.49 336.54Z" fill="#E0E0E0"/>
<path d="M74.1201 361.07C75.3001 347.86 75.9801 335.63 70.6901 316.31C66.2501 300.1 53.0001 283.08 43.1601 283C34.0101 282.94 31.1601 294 38.5801 304.55C46.0001 315.1 62.4201 335.55 62.4801 349.34L64.7901 365.2L74.1201 361.07Z" fill="#407BFF"/>
<path opacity="0.2" d="M74.1201 361.07C75.3001 347.86 75.9801 335.63 70.6901 316.31C66.2501 300.1 53.0001 283.08 43.1601 283C34.0101 282.94 31.1601 294 38.5801 304.55C46.0001 315.1 62.4201 335.55 62.4801 349.34L64.7901 365.2L74.1201 361.07Z" fill="black"/>
<path d="M70.33 357.42C70.2097 357.379 70.1054 357.3 70.0319 357.196C69.9584 357.092 69.9193 356.968 69.92 356.84C70.83 326 55.59 299 41.85 290C41.7851 289.959 41.7292 289.905 41.6854 289.841C41.6417 289.778 41.611 289.706 41.5951 289.631C41.5793 289.556 41.5787 289.478 41.5932 289.402C41.6078 289.326 41.6373 289.254 41.68 289.19C41.7206 289.124 41.7742 289.067 41.8376 289.023C41.9009 288.978 41.9727 288.947 42.0485 288.931C42.1243 288.915 42.2025 288.915 42.2784 288.93C42.3544 288.946 42.4264 288.976 42.49 289.02C56.49 298.14 72.02 325.54 71.1 356.85C71.0975 356.928 71.0796 357.004 71.0476 357.075C71.0155 357.145 70.9698 357.209 70.9132 357.262C70.8565 357.315 70.79 357.356 70.7174 357.383C70.6448 357.41 70.5675 357.423 70.49 357.42H70.33Z" fill="white"/>
<path d="M61.2801 366.851C61.0801 362.171 57.4501 353.651 50.2101 345.601C42.2101 336.701 30.8001 330.761 29.2101 324.941C27.3301 317.941 33.6201 314.781 43.4101 317.661C55.1701 321.121 67.4101 335.81 67.4901 363.93L61.2801 366.851Z" fill="#407BFF"/>
<path d="M64.29 362.701C64.1817 362.669 64.0856 362.605 64.0142 362.517C63.9428 362.43 63.8995 362.323 63.89 362.211C61.17 337.441 45.67 325.271 37.89 322.301C37.746 322.242 37.6301 322.131 37.5667 321.989C37.5033 321.847 37.4973 321.687 37.55 321.541C37.5766 321.468 37.6176 321.401 37.6705 321.344C37.7234 321.287 37.7872 321.241 37.8581 321.21C37.9289 321.178 38.0055 321.161 38.0831 321.159C38.1607 321.158 38.2379 321.172 38.31 321.201C46.95 324.491 62.31 336.801 65.09 362.081C65.1068 362.236 65.0616 362.391 64.9642 362.513C64.8667 362.635 64.725 362.713 64.57 362.731C64.4757 362.748 64.3785 362.737 64.29 362.701Z" fill="white"/>
<path d="M374.777 379.94C373.597 366.73 372.917 354.5 378.207 335.18C382.647 318.97 395.907 301.95 405.737 301.88C414.887 301.82 417.737 312.88 410.317 323.43C402.897 333.98 386.487 354.43 386.417 368.22L384.117 384.08L374.777 379.94Z" fill="#407BFF"/>
<path opacity="0.2" d="M374.777 379.94C373.597 366.73 372.917 354.5 378.207 335.18C382.647 318.97 395.907 301.95 405.737 301.88C414.887 301.82 417.737 312.88 410.317 323.43C402.897 333.98 386.487 354.43 386.417 368.22L384.117 384.08L374.777 379.94Z" fill="black"/>
<path d="M377.937 377.52C378.06 377.483 378.167 377.406 378.242 377.301C378.316 377.196 378.353 377.069 378.347 376.941C377.437 346.051 393.347 317.861 407.047 308.891C407.18 308.806 407.274 308.672 407.307 308.518C407.341 308.364 407.312 308.203 407.227 308.071C407.143 307.938 407.009 307.844 406.855 307.811C406.701 307.777 406.54 307.806 406.407 307.891C392.437 317.001 376.247 345.661 377.177 377.001C377.179 377.078 377.195 377.154 377.226 377.224C377.257 377.295 377.302 377.358 377.358 377.411C377.414 377.464 377.48 377.506 377.552 377.533C377.624 377.56 377.7 377.573 377.777 377.571L377.937 377.52Z" fill="white"/>
<path d="M387.617 385.73C387.817 381.04 391.447 372.52 398.687 364.47C406.687 355.57 418.097 349.63 419.687 343.82C421.577 336.82 415.277 333.65 405.497 336.53C393.727 340 381.497 354.69 381.407 382.81L387.617 385.73Z" fill="#407BFF"/>
<path d="M384.607 381.58C384.716 381.547 384.813 381.481 384.884 381.392C384.955 381.303 384.998 381.194 385.007 381.08C387.727 356.31 403.227 344.15 411.007 341.17C411.079 341.144 411.145 341.103 411.201 341.051C411.257 340.999 411.302 340.936 411.333 340.866C411.365 340.797 411.382 340.721 411.385 340.645C411.387 340.568 411.374 340.492 411.347 340.42C411.321 340.347 411.28 340.281 411.227 340.224C411.174 340.167 411.11 340.121 411.039 340.09C410.968 340.058 410.892 340.041 410.814 340.039C410.736 340.038 410.659 340.052 410.587 340.08C401.947 343.36 386.587 355.67 383.807 380.96C383.799 381.037 383.806 381.114 383.827 381.187C383.849 381.261 383.885 381.329 383.934 381.389C383.982 381.448 384.042 381.498 384.109 381.534C384.177 381.57 384.251 381.593 384.327 381.6C384.421 381.615 384.516 381.608 384.607 381.58Z" fill="white"/>
<path d="M61.4099 367.16V378.56C61.4132 378.834 61.5168 379.097 61.7011 379.3C61.8854 379.502 62.1375 379.631 62.4099 379.66L70.2099 380.15V391.15C70.2178 391.269 70.2572 391.383 70.324 391.481C70.3908 391.58 70.4826 391.659 70.5899 391.71L78.8099 396.45C79.1194 396.605 79.464 396.678 79.8099 396.66C80.0742 396.664 80.3366 396.613 80.5799 396.51L88.9999 392.65C89.6094 392.414 90.2774 392.376 90.9099 392.54C93.0263 393.197 95.1845 393.712 97.3699 394.08C97.6619 394.14 97.9307 394.282 98.1449 394.489C98.3592 394.696 98.5101 394.96 98.5799 395.25L99.5799 400.74C99.6377 401.024 99.7978 401.277 100.03 401.45C100.249 401.625 100.52 401.723 100.8 401.73H112.88C113.131 401.718 113.373 401.627 113.57 401.47C113.627 401.431 113.678 401.384 113.72 401.33C113.783 401.288 113.84 401.237 113.89 401.18V401.05C113.96 400.94 114.07 400.85 114.09 400.73L115.09 395.24C115.16 394.95 115.311 394.686 115.525 394.479C115.739 394.272 116.008 394.13 116.3 394.07C118.485 393.702 120.643 393.187 122.76 392.53C123.392 392.366 124.06 392.404 124.67 392.64L133 396.5C133.162 396.552 133.33 396.582 133.5 396.59C133.597 396.595 133.693 396.595 133.79 396.59H134.01C134.284 396.578 134.553 396.51 134.8 396.39L143.01 391.65C143.129 391.584 143.229 391.487 143.3 391.37C143.338 391.306 143.359 391.234 143.36 391.16V386.49V380.18L151.01 379.69H151.16C151.24 379.69 151.28 379.62 151.35 379.6C151.546 379.567 151.729 379.48 151.88 379.35C151.953 379.229 152.007 379.097 152.04 378.96C152.04 378.85 152.18 378.75 152.18 378.62V372.52V368.24V362.14C152.181 361.866 152.078 361.601 151.893 361.399C151.708 361.197 151.453 361.073 151.18 361.05L143.38 360.55V349.55C143.378 349.426 143.342 349.305 143.275 349.2C143.208 349.096 143.112 349.013 143 348.96L134.79 344.22C134.509 344.079 134.202 343.998 133.888 343.985C133.575 343.971 133.262 344.024 132.97 344.14L124.74 348C124.134 348.236 123.469 348.274 122.84 348.11C120.72 347.454 118.558 346.939 116.37 346.57C116.079 346.51 115.811 346.369 115.598 346.161C115.385 345.954 115.237 345.689 115.17 345.4L114.17 339.92C114.108 339.643 113.955 339.394 113.736 339.213C113.517 339.032 113.244 338.929 112.96 338.92H100.83C100.545 338.928 100.27 339.031 100.049 339.212C99.8285 339.393 99.674 339.642 99.6099 339.92L98.6099 345.4C98.5397 345.688 98.39 345.95 98.1778 346.157C97.9656 346.364 97.6995 346.507 97.4099 346.57C95.2212 346.938 93.0597 347.452 90.9399 348.11C90.2982 348.283 89.6179 348.244 88.9999 348L80.6699 344.14C80.3781 344.024 80.0651 343.971 79.7513 343.985C79.4376 343.998 79.1304 344.079 78.8499 344.22L70.6299 348.96C70.5167 349.014 70.4211 349.099 70.3539 349.205C70.2867 349.312 70.2507 349.434 70.2499 349.56V360.5L62.4599 361C62.1876 361.025 61.9342 361.15 61.7493 361.352C61.5644 361.553 61.4613 361.816 61.4599 362.09V367C61.4403 367.052 61.4236 367.106 61.4099 367.16ZM92.9999 371C100.66 366.58 113.09 366.58 120.76 371C121.34 371.34 121.87 371.68 122.37 372C121.854 372.381 121.316 372.731 120.76 373.05C113.09 377.48 100.66 377.48 92.9999 373.05C92.4427 372.732 91.9051 372.382 91.3899 372C91.8699 371.72 92.3999 371.38 92.9999 371Z" fill="#37474F"/>
<path d="M61.4099 367.171V378.571C61.4137 378.842 61.518 379.103 61.7027 379.302C61.8873 379.502 62.1393 379.626 62.4099 379.651L70.1999 380.151V391.151C70.2078 391.269 70.2472 391.384 70.314 391.482C70.3808 391.581 70.4726 391.659 70.5799 391.711L78.7999 396.451C79.1085 396.609 79.4531 396.685 79.7999 396.671C80.0647 396.68 80.328 396.629 80.5699 396.521L88.9999 392.661C89.2502 392.552 89.5175 392.488 89.7899 392.471C90.1649 392.424 90.5453 392.451 90.9099 392.551C93.0263 393.208 95.1845 393.723 97.3699 394.091C97.5533 394.122 97.7275 394.194 97.8799 394.301V394.361C98.2226 394.557 98.4741 394.88 98.5799 395.261L99.5799 400.751C99.6419 401.033 99.8012 401.284 100.03 401.461C100.249 401.636 100.52 401.734 100.8 401.741H112.88H113.1C113.42 401.674 113.703 401.488 113.89 401.221V401.091C113.96 400.981 114.07 400.891 114.09 400.771L115.09 395.281C115.158 394.971 115.327 394.694 115.57 394.491C115.772 394.307 116.021 394.182 116.29 394.131C118.475 393.763 120.633 393.248 122.75 392.591C123.167 392.479 123.604 392.458 124.03 392.531C124.246 392.551 124.458 392.602 124.66 392.681L132.99 396.531C133.152 396.583 133.32 396.613 133.49 396.621C133.936 396.684 134.39 396.607 134.79 396.401L143 391.661C143.063 391.622 143.123 391.579 143.18 391.531C143.227 391.48 143.27 391.427 143.31 391.371C143.355 391.295 143.379 391.209 143.38 391.121V380.121L144.81 380.031L151.04 379.631H151.18C151.449 379.606 151.699 379.484 151.884 379.286C152.068 379.089 152.174 378.831 152.18 378.561V368.161C152.181 368.435 152.078 368.699 151.893 368.901C151.708 369.103 151.453 369.228 151.18 369.251L140.23 369.951C139.923 369.991 139.629 370.103 139.372 370.276C139.115 370.45 138.902 370.681 138.75 370.951C138.107 372.115 137.328 373.199 136.43 374.181C136.338 374.27 136.268 374.378 136.223 374.498C136.179 374.618 136.162 374.747 136.173 374.874C136.185 375.002 136.224 375.125 136.29 375.235C136.355 375.345 136.444 375.439 136.55 375.511L143.06 380.191C143.163 380.246 143.249 380.33 143.307 380.433C143.364 380.535 143.391 380.652 143.385 380.77C143.379 380.887 143.339 381 143.271 381.096C143.203 381.192 143.109 381.266 143 381.311L134.89 386.001C134.61 386.144 134.303 386.225 133.989 386.239C133.675 386.253 133.361 386.199 133.07 386.081L124.74 382.221C124.131 381.984 123.462 381.946 122.83 382.111C120.714 382.769 118.556 383.284 116.37 383.651C116.079 383.711 115.812 383.854 115.599 384.061C115.387 384.268 115.238 384.532 115.17 384.821L114.17 390.301C114.108 390.578 113.955 390.827 113.736 391.008C113.517 391.189 113.244 391.292 112.96 391.301H100.83C100.545 391.292 100.27 391.19 100.049 391.009C99.8285 390.828 99.674 390.579 99.6099 390.301L98.6099 384.821C98.5387 384.533 98.3886 384.271 98.1766 384.065C97.9646 383.858 97.699 383.715 97.4099 383.651C95.221 383.284 93.0594 382.769 90.9399 382.111C90.3074 381.946 89.6393 381.985 89.0299 382.221L80.6999 386.081C80.4104 386.199 80.0986 386.253 79.7861 386.24C79.4736 386.226 79.1678 386.144 78.8899 386.001L70.6699 381.261C70.5606 381.218 70.4658 381.145 70.3969 381.05C70.3281 380.955 70.2881 380.842 70.2818 380.725C70.2754 380.608 70.303 380.491 70.3612 380.389C70.4194 380.288 70.5058 380.205 70.6099 380.151L77.1299 375.461C77.2363 375.388 77.3253 375.293 77.3905 375.182C77.4557 375.071 77.4954 374.947 77.5069 374.819C77.5184 374.691 77.5013 374.562 77.4569 374.441C77.4124 374.32 77.3417 374.211 77.2499 374.121C76.35 373.142 75.568 372.061 74.9199 370.901C74.7686 370.632 74.5571 370.402 74.3021 370.228C74.0471 370.055 73.7555 369.943 73.4499 369.901L62.4999 369.211C62.2275 369.181 61.9754 369.053 61.7911 368.85C61.6068 368.648 61.5032 368.385 61.4999 368.111V366.891C61.4623 366.981 61.4322 367.075 61.4099 367.171Z" fill="#263238"/>
<path d="M70.25 349.531V360.471L73.41 360.271C73.7155 360.229 74.0072 360.117 74.2622 359.943C74.5172 359.77 74.7287 359.539 74.88 359.271C75.5256 358.108 76.3078 357.027 77.21 356.051C77.3018 355.961 77.3725 355.851 77.4169 355.73C77.4614 355.61 77.4785 355.481 77.467 355.352C77.4555 355.224 77.4158 355.1 77.3506 354.989C77.2854 354.878 77.1964 354.783 77.09 354.711L70.57 350.031C70.4827 349.972 70.409 349.895 70.3539 349.805C70.2987 349.716 70.2633 349.615 70.25 349.511V349.531Z" fill="#263238"/>
<path d="M136.53 356.07C137.43 357.046 138.209 358.127 138.85 359.29C139.002 359.56 139.215 359.791 139.472 359.965C139.729 360.138 140.022 360.25 140.33 360.29L143.48 360.49V349.49C143.467 349.599 143.432 349.703 143.375 349.797C143.318 349.89 143.241 349.97 143.15 350.03L136.64 354.71C136.531 354.783 136.439 354.88 136.373 354.993C136.306 355.106 136.266 355.233 136.256 355.364C136.245 355.494 136.264 355.626 136.312 355.748C136.359 355.871 136.434 355.981 136.53 356.07Z" fill="#263238"/>
<path d="M133.07 344.11L124.74 348C124.134 348.236 123.469 348.274 122.84 348.11C120.72 347.454 118.558 346.939 116.37 346.57C116.079 346.51 115.811 346.369 115.598 346.161C115.385 345.954 115.237 345.689 115.17 345.4L114.17 339.92C114.108 339.643 113.955 339.394 113.736 339.213C113.517 339.032 113.244 338.929 112.96 338.92H100.83C100.545 338.928 100.27 339.031 100.049 339.212C99.8286 339.393 99.6741 339.642 99.61 339.92L98.61 345.4C98.5398 345.688 98.3901 345.95 98.1779 346.157C97.9657 346.364 97.6996 346.507 97.41 346.57C95.2213 346.938 93.0598 347.452 90.94 348.11C90.2991 348.289 89.6166 348.251 89 348L80.67 344.14C80.3782 344.024 80.0652 343.971 79.7514 343.985C79.4377 343.998 79.1305 344.079 78.85 344.22L70.63 348.96C70.5241 349.01 70.4346 349.09 70.372 349.189C70.3093 349.288 70.2761 349.403 70.2761 349.52C70.2761 349.637 70.3093 349.752 70.372 349.851C70.4346 349.95 70.5241 350.03 70.63 350.08L77.14 354.76C77.2464 354.832 77.3354 354.927 77.4006 355.038C77.4658 355.149 77.5055 355.273 77.517 355.402C77.5285 355.53 77.5114 355.659 77.467 355.78C77.4225 355.9 77.3518 356.01 77.26 356.1C76.357 357.076 75.5747 358.157 74.93 359.32C74.7777 359.59 74.5647 359.821 74.3078 359.994C74.051 360.168 73.7573 360.279 73.45 360.32L62.51 361.02C62.2377 361.045 61.9843 361.17 61.7994 361.372C61.6146 361.573 61.5114 361.836 61.51 362.11V368.22C61.5157 368.492 61.6204 368.753 61.8045 368.953C61.9885 369.154 62.2393 369.281 62.51 369.31L73.4 370C73.7073 370.04 74.001 370.152 74.2578 370.326C74.5147 370.499 74.7277 370.73 74.88 371C75.5247 372.163 76.307 373.244 77.21 374.22C77.3018 374.31 77.3725 374.419 77.417 374.54C77.4614 374.661 77.4785 374.79 77.467 374.918C77.4555 375.046 77.4158 375.17 77.3506 375.281C77.2854 375.392 77.1964 375.487 77.09 375.56L70.58 380.25C70.4736 380.298 70.3833 380.377 70.3201 380.475C70.2568 380.573 70.2231 380.688 70.2231 380.805C70.2231 380.922 70.2568 381.036 70.3201 381.135C70.3833 381.233 70.4736 381.311 70.58 381.36L78.85 386C79.1305 386.141 79.4377 386.221 79.7514 386.235C80.0652 386.249 80.3782 386.196 80.67 386.08L89 382.25C89.6094 382.014 90.2775 381.976 90.91 382.14C93.0295 382.798 95.1911 383.313 97.38 383.68C97.6696 383.743 97.9357 383.886 98.1479 384.093C98.3601 384.3 98.5098 384.562 98.58 384.85L99.58 390.34C99.6441 390.618 99.7986 390.867 100.019 391.048C100.24 391.229 100.515 391.332 100.8 391.34H112.88C113.164 391.331 113.437 391.228 113.656 391.047C113.875 390.866 114.028 390.617 114.09 390.34L115.09 384.85C115.157 384.56 115.305 384.296 115.518 384.089C115.731 383.881 115.999 383.739 116.29 383.68C118.478 383.311 120.64 382.796 122.76 382.14C123.389 381.976 124.054 382.014 124.66 382.25L132.99 386.11C133.282 386.226 133.595 386.279 133.909 386.265C134.222 386.251 134.53 386.171 134.81 386.03L143.02 381.29C143.129 381.247 143.224 381.174 143.293 381.079C143.362 380.984 143.402 380.871 143.408 380.754C143.414 380.637 143.387 380.521 143.329 380.419C143.27 380.317 143.184 380.234 143.08 380.18L136.57 375.49C136.464 375.419 136.375 375.324 136.31 375.214C136.245 375.104 136.205 374.981 136.193 374.853C136.182 374.726 136.199 374.598 136.243 374.478C136.288 374.358 136.358 374.249 136.45 374.16C137.348 373.179 138.127 372.094 138.77 370.93C138.922 370.66 139.135 370.429 139.392 370.256C139.649 370.082 139.943 369.97 140.25 369.93L151.2 369.23C151.473 369.207 151.728 369.083 151.913 368.88C152.099 368.678 152.201 368.414 152.2 368.14V362.04C152.201 361.766 152.099 361.501 151.913 361.299C151.728 361.097 151.473 360.973 151.2 360.95L140.25 360.25C139.943 360.209 139.649 360.098 139.392 359.924C139.135 359.751 138.922 359.52 138.77 359.25C138.129 358.087 137.35 357.006 136.45 356.03C136.358 355.94 136.288 355.83 136.243 355.71C136.199 355.589 136.182 355.46 136.193 355.332C136.204 355.203 136.244 355.079 136.309 354.968C136.375 354.857 136.464 354.762 136.57 354.69L143.08 350.01C143.184 349.954 143.269 349.87 143.327 349.768C143.384 349.665 143.411 349.548 143.405 349.431C143.399 349.313 143.359 349.2 143.291 349.104C143.223 349.009 143.129 348.934 143.02 348.89L134.81 344.15C134.538 344.026 134.243 343.959 133.944 343.952C133.645 343.945 133.348 343.999 133.07 344.11ZM120.75 357.11C128.41 361.53 128.41 368.71 120.75 373.11C113.09 377.51 100.65 377.54 92.99 373.11C85.33 368.68 85.32 361.51 92.99 357.11C100.66 352.71 113.08 352.67 120.75 357.1V357.11Z" fill="#455A64"/>
<path d="M143.49 380.72C143.483 380.609 143.449 380.501 143.392 380.405C143.334 380.309 143.255 380.229 143.16 380.17L139.88 377.82V370.06C140.023 370 140.175 369.963 140.33 369.95L151.28 369.25C151.553 369.228 151.808 369.103 151.993 368.901C152.178 368.699 152.281 368.434 152.28 368.16V378.58C152.274 378.85 152.168 379.108 151.984 379.306C151.799 379.503 151.549 379.626 151.28 379.65H151.14L144.91 380.05L143.48 380.14C143.48 380.14 143.49 380.93 143.49 380.72Z" fill="#37474F"/>
<path d="M124.11 382.09C124.327 382.112 124.539 382.166 124.74 382.25L133.07 386.11C133.408 386.249 133.777 386.298 134.14 386.25V396.65C133.954 396.67 133.766 396.67 133.58 396.65C133.41 396.642 133.242 396.612 133.08 396.56L124.75 392.71C124.548 392.631 124.336 392.58 124.12 392.56L124.11 382.09Z" fill="#37474F"/>
<path d="M114 390.731C114.075 390.608 114.126 390.472 114.15 390.331L115.15 384.851C115.173 384.701 115.228 384.558 115.31 384.431V394.841C115.227 394.964 115.172 395.104 115.15 395.251L114.15 400.741C114.118 400.836 114.067 400.925 114 401.001V390.731Z" fill="#37474F"/>
<path opacity="0.15" d="M98.4099 384.431C98.4838 384.562 98.5377 384.704 98.5699 384.851L99.5699 390.331C99.5961 390.473 99.6505 390.609 99.7299 390.731V401.131C99.6522 401.012 99.5978 400.88 99.5699 400.741L98.5699 395.251C98.5375 395.116 98.4834 394.988 98.4099 394.871V384.431Z" fill="black"/>
<path opacity="0.15" d="M79.5999 386.25C79.9593 386.3 80.3258 386.252 80.6599 386.11L88.9999 382.25C89.2013 382.167 89.4134 382.113 89.6299 382.09V392.49C89.412 392.512 89.1991 392.569 88.9999 392.66L80.6699 396.51C80.428 396.618 80.1646 396.669 79.8999 396.66H79.5999V386.25Z" fill="black"/>
<path opacity="0.15" d="M62.46 369.26L73.41 369.95C73.5646 369.965 73.7163 370.002 73.86 370.06V377.82L70.57 380.18C70.477 380.24 70.3995 380.321 70.3439 380.417C70.2883 380.513 70.2561 380.62 70.25 380.73V380.15L62.46 379.65C62.1893 379.626 61.9374 379.502 61.7528 379.302C61.5681 379.103 61.4638 378.842 61.46 378.57V367.17C61.4551 367.094 61.4551 367.017 61.46 366.94V368.16C61.4633 368.434 61.5669 368.698 61.7512 368.9C61.9355 369.103 62.1876 369.231 62.46 369.26Z" fill="black"/>
<path d="M226.81 331C226.81 330.926 226.79 330.853 226.75 330.79C226.75 327.04 226.75 320.54 226.75 320.13C226.744 319.944 226.677 319.765 226.56 319.62L223.23 314.98C223.074 314.766 222.867 314.595 222.627 314.481C222.388 314.368 222.124 314.316 221.86 314.33L213.16 315.79C212.57 315.819 211.987 315.654 211.5 315.32C210.95 314.94 210.37 314.58 209.77 314.23V307.31C209.77 307.03 209.51 306.77 209.08 306.66L200.25 304.55C200.007 304.484 199.752 304.473 199.504 304.52C199.256 304.567 199.022 304.67 198.82 304.82L194.6 309.27C194.207 309.583 193.711 309.737 193.21 309.7C191.295 309.58 189.375 309.58 187.46 309.7C186.872 309.683 186.313 309.44 185.9 309.02L182.12 305.02C181.933 304.82 181.702 304.667 181.445 304.573C181.187 304.479 180.912 304.448 180.64 304.48L171.46 306.67C171.322 306.701 171.2 306.778 171.114 306.89C171.028 307.001 170.984 307.14 170.99 307.28C170.99 307.66 170.99 310.95 170.99 314.14C170.27 314.55 169.59 314.98 168.99 315.44C168.531 315.697 167.998 315.789 167.48 315.7L159 314.26C158.762 314.214 158.516 314.225 158.283 314.292C158.049 314.36 157.836 314.483 157.66 314.65L154 319.75C153.95 319.817 153.922 319.897 153.92 319.98C153.92 320.75 153.92 333.14 153.92 333.22C153.925 333.298 153.949 333.374 153.99 333.44C153.99 337.25 153.99 339.98 153.99 340.14C153.999 340.335 154.065 340.523 154.18 340.68L157.51 345.32C157.666 345.534 157.873 345.704 158.113 345.816C158.352 345.928 158.616 345.978 158.88 345.96L167.58 344.5C168.169 344.476 168.751 344.64 169.24 344.97C169.79 345.36 170.37 345.72 170.97 346.07V353C170.97 353.28 171.22 353.56 171.66 353.67L180.49 355.78C180.733 355.847 180.988 355.857 181.236 355.81C181.484 355.764 181.718 355.661 181.92 355.51L186.14 351.06C186.533 350.748 187.029 350.594 187.53 350.63C189.448 350.75 191.372 350.75 193.29 350.63C193.873 350.649 194.427 350.888 194.84 351.3L198.62 355.3C198.807 355.501 199.038 355.655 199.295 355.751C199.552 355.846 199.827 355.88 200.1 355.85L209.28 353.65C209.401 353.628 209.512 353.567 209.597 353.477C209.681 353.387 209.735 353.273 209.75 353.15C209.75 353 209.75 346.15 209.75 346.15C210.47 345.74 211.15 345.31 211.8 344.85C212.26 344.598 212.792 344.507 213.31 344.59L221.74 346.01C221.978 346.06 222.225 346.051 222.459 345.983C222.693 345.915 222.906 345.79 223.08 345.62L226.74 340.52C226.787 340.452 226.814 340.373 226.82 340.29C226.82 340.04 226.82 331.45 226.82 330.98L226.81 331ZM177.65 331.27C178.05 330.98 178.49 330.71 178.96 330.43C185.27 326.79 195.49 326.79 201.8 330.43C202.26 330.7 202.7 330.98 203.09 331.25C202.647 331.581 202.183 331.882 201.7 332.15C197.22 334.7 190.36 335.6 184.18 334.15C182.367 333.734 180.622 333.061 179 332.15C178.529 331.871 178.078 331.561 177.65 331.22V331.27Z" fill="#37474F"/>
<path d="M173 313.081C172.3 313.401 171.62 313.751 171 314.081V307.221C171.01 307.344 171.048 307.464 171.11 307.571L173.31 311.931C173.371 312.025 173.412 312.131 173.429 312.242C173.447 312.353 173.441 312.466 173.412 312.575C173.382 312.683 173.331 312.784 173.26 312.872C173.189 312.959 173.1 313.03 173 313.081Z" fill="#263238"/>
<path opacity="0.15" d="M162.88 324C162.73 324.954 162.73 325.926 162.88 326.88C162.913 327.089 162.873 327.304 162.765 327.486C162.657 327.669 162.489 327.808 162.29 327.88L154.35 330.4C154.241 330.429 154.145 330.495 154.078 330.585C154.011 330.676 153.976 330.787 153.98 330.9V333.49C153.942 333.429 153.918 333.361 153.91 333.29C153.91 328.78 153.91 321.29 153.91 320.58V320C153.91 320.25 154.16 320.48 154.55 320.6L162.05 322.98C162.288 323.021 162.504 323.147 162.656 323.334C162.809 323.522 162.888 323.758 162.88 324Z" fill="black"/>
<path opacity="0.15" d="M167.86 335.21V344.54C167.754 344.525 167.646 344.525 167.54 344.54L158.84 346C158.695 346.033 158.545 346.033 158.4 346V336.69C158.552 336.719 158.708 336.719 158.86 336.69L167.56 335.22L167.86 335.21Z" fill="black"/>
<path d="M170.93 346.11C170.33 345.76 169.75 345.4 169.21 345.02C168.805 344.753 168.342 344.589 167.86 344.54V335.21C168.346 335.26 168.813 335.428 169.22 335.7C170.34 336.456 171.517 337.125 172.74 337.7C173.26 337.95 173.55 338.4 173.38 338.7L171 343.51C170.969 343.572 170.952 343.641 170.95 343.71C170.94 344 170.93 346.11 170.93 346.11Z" fill="#263238"/>
<path opacity="0.15" d="M186.64 341.44V350.76C186.44 350.819 186.255 350.921 186.1 351.06L181.88 355.51C181.662 355.691 181.393 355.8 181.11 355.82V346.5C181.399 346.491 181.677 346.386 181.9 346.2L186.13 341.74C186.275 341.603 186.449 341.5 186.64 341.44Z" fill="black"/>
<path d="M193.8 341.391V350.711C193.623 350.65 193.437 350.619 193.25 350.621C191.332 350.736 189.408 350.736 187.49 350.621C187.201 350.609 186.912 350.653 186.64 350.751V341.431C186.919 341.333 187.214 341.289 187.51 341.301C189.425 341.421 191.345 341.421 193.26 341.301C193.444 341.299 193.627 341.329 193.8 341.391Z" fill="#263238"/>
<path opacity="0.15" d="M199.43 346.45V355.77C199.11 355.68 198.818 355.511 198.58 355.28L194.8 351.28C194.519 351.007 194.176 350.808 193.8 350.7V341.38C194.176 341.493 194.519 341.695 194.8 341.97L198.58 345.97C198.819 346.198 199.111 346.363 199.43 346.45Z" fill="black"/>
<path d="M209.72 343.82V346.12V349.78C209.72 351.44 209.72 353.05 209.72 353.12C209.705 353.243 209.651 353.357 209.567 353.447C209.482 353.537 209.371 353.598 209.25 353.62L200.07 355.82C199.859 355.852 199.643 355.835 199.44 355.77V346.45C199.645 346.525 199.866 346.542 200.08 346.5L209.27 344.3C209.387 344.279 209.494 344.222 209.575 344.135C209.656 344.049 209.707 343.938 209.72 343.82Z" fill="#37474F"/>
<path opacity="0.15" d="M212.69 335.23V344.55C212.365 344.568 212.049 344.664 211.77 344.83C211.12 345.28 210.44 345.71 209.72 346.12C209.72 346.12 209.72 343.99 209.72 343.7C209.719 343.567 209.684 343.437 209.62 343.32L207.42 338.96C207.363 338.87 207.325 338.769 207.308 338.663C207.291 338.557 207.296 338.449 207.322 338.345C207.348 338.242 207.395 338.144 207.46 338.059C207.525 337.974 207.607 337.903 207.7 337.85C209.128 337.196 210.494 336.413 211.78 335.51C212.053 335.338 212.367 335.241 212.69 335.23Z" fill="black"/>
<path d="M226.8 331C226.8 331.46 226.8 340.06 226.8 340.31C226.791 340.392 226.764 340.471 226.72 340.54L223.06 345.64C222.896 345.827 222.674 345.954 222.43 346V336.69C222.68 336.644 222.908 336.517 223.08 336.33L226.73 331.22C226.755 331.19 226.775 331.155 226.787 331.117C226.799 331.079 226.803 331.039 226.8 331Z" fill="#37474F"/>
<path d="M171 307.23C171.001 307.353 171.036 307.474 171.1 307.58L173.29 311.94C173.347 312.03 173.386 312.13 173.404 312.236C173.421 312.341 173.417 312.449 173.392 312.553C173.367 312.656 173.321 312.754 173.257 312.839C173.193 312.925 173.112 312.996 173.02 313.05C172.32 313.38 171.64 313.72 171.02 314.05C170.4 314.38 169.62 314.89 169.02 315.35C168.561 315.607 168.028 315.698 167.51 315.61L159 314.26C158.762 314.213 158.516 314.224 158.283 314.292C158.049 314.36 157.836 314.482 157.66 314.65L154 319.75C153.95 319.816 153.922 319.897 153.92 319.98C153.92 320.22 154.17 320.45 154.56 320.57L162.06 322.95C162.293 322.992 162.503 323.116 162.653 323.299C162.803 323.483 162.884 323.713 162.88 323.95C162.73 324.904 162.73 325.876 162.88 326.83C162.911 327.039 162.87 327.252 162.763 327.435C162.655 327.617 162.488 327.756 162.29 327.83L154.35 330.35C154.241 330.379 154.145 330.444 154.078 330.535C154.011 330.626 153.976 330.737 153.98 330.85C153.99 331.037 154.052 331.217 154.16 331.37L157.5 336.01C157.655 336.224 157.863 336.395 158.102 336.507C158.342 336.619 158.606 336.668 158.87 336.65L167.57 335.18C168.161 335.154 168.744 335.323 169.23 335.66C170.353 336.416 171.534 337.085 172.76 337.66C173.27 337.91 173.56 338.36 173.39 338.66L171 343.51C170.83 343.85 171.12 344.22 171.65 344.35L180.48 346.46C180.721 346.528 180.974 346.541 181.22 346.496C181.467 346.45 181.699 346.349 181.9 346.2L186.13 341.75C186.521 341.433 187.018 341.276 187.52 341.31C189.435 341.425 191.355 341.425 193.27 341.31C193.857 341.322 194.417 341.562 194.83 341.98L198.61 345.98C198.797 346.177 199.027 346.328 199.282 346.421C199.537 346.515 199.81 346.549 200.08 346.52L209.27 344.33C209.371 344.303 209.465 344.253 209.542 344.183C209.62 344.112 209.679 344.025 209.716 343.926C209.752 343.828 209.764 343.723 209.751 343.619C209.738 343.515 209.7 343.416 209.64 343.33L207.44 338.97C207.384 338.879 207.347 338.778 207.331 338.672C207.315 338.567 207.32 338.459 207.346 338.356C207.372 338.252 207.419 338.155 207.483 338.07C207.547 337.985 207.628 337.913 207.72 337.86C209.145 337.205 210.507 336.422 211.79 335.52C212.249 335.264 212.782 335.172 213.3 335.26L221.74 336.67C221.978 336.722 222.225 336.713 222.46 336.645C222.694 336.577 222.907 336.452 223.08 336.28L226.73 331.19C226.784 331.126 226.813 331.044 226.81 330.96C226.81 330.886 226.79 330.813 226.75 330.75C226.612 330.551 226.405 330.408 226.17 330.35L218.67 327.97C218.14 327.8 217.78 327.37 217.85 326.97C218 326.019 218 325.051 217.85 324.1C217.832 323.892 217.879 323.685 217.985 323.505C218.091 323.326 218.25 323.184 218.44 323.1L226.39 320.58C226.496 320.551 226.589 320.489 226.656 320.402C226.723 320.316 226.759 320.209 226.76 320.1C226.754 319.914 226.687 319.734 226.57 319.59L223.24 314.95C223.084 314.736 222.877 314.564 222.637 314.451C222.398 314.337 222.134 314.285 221.87 314.3L213.17 315.76C212.58 315.789 211.997 315.624 211.51 315.29C210.96 314.91 210.38 314.55 209.78 314.2C209.18 313.85 208.61 313.56 207.98 313.26C207.35 312.96 207.17 312.55 207.35 312.26L209.74 307.52C209.758 307.458 209.758 307.392 209.74 307.33C209.74 307.05 209.48 306.79 209.05 306.68L200.22 304.57C199.977 304.503 199.722 304.493 199.474 304.54C199.226 304.587 198.992 304.689 198.79 304.84L194.57 309.29C194.177 309.603 193.681 309.756 193.18 309.72C191.265 309.6 189.345 309.6 187.43 309.72C186.842 309.703 186.283 309.459 185.87 309.04L182.09 305.04C181.903 304.84 181.672 304.687 181.415 304.593C181.157 304.499 180.882 304.467 180.61 304.5L171.43 306.69C171.311 306.725 171.206 306.795 171.129 306.892C171.053 306.988 171.007 307.106 171 307.23ZM204.4 320.86L204.62 321.09L204.78 321.26L205.11 321.66C205.23 321.81 205.34 321.98 205.45 322.14C205.56 322.3 205.58 322.34 205.64 322.44L205.73 322.59C206.313 323.583 206.584 324.729 206.505 325.878C206.427 327.027 206.003 328.125 205.29 329.03C204.679 329.864 203.94 330.596 203.1 331.2C202.66 331.534 202.195 331.835 201.71 332.1C197.23 334.65 190.37 335.55 184.19 334.1C182.377 333.684 180.632 333.01 179.01 332.1C178.541 331.84 178.09 331.55 177.66 331.23C176.519 330.429 175.575 329.379 174.9 328.16C174.863 328.102 174.829 328.042 174.8 327.98C174.8 327.91 174.74 327.85 174.72 327.79C174.7 327.73 174.66 327.66 174.63 327.58C174.264 326.651 174.148 325.642 174.294 324.654C174.439 323.666 174.841 322.734 175.46 321.95C178.87 317.19 188.32 314.95 196.56 316.95C199.477 317.516 202.185 318.868 204.39 320.86H204.4Z" fill="#455A64"/>
<path d="M191.26 106.87H191.2L179.11 99.8698H179.04C173.33 96.6198 165.47 97.1198 156.79 102.13C139.35 112.2 125.21 136.68 125.21 156.82C125.21 166.82 128.72 173.92 134.41 177.23L146.5 184.23H146.56C152.27 187.49 160.13 187 168.82 181.98C186.26 171.91 200.4 147.43 200.4 127.29C200.46 117.24 197 110.18 191.26 106.87Z" fill="#455A64"/>
<path d="M146.14 183.929L134.47 177.159H134.41C128.73 173.839 125.22 166.779 125.22 156.759C125.22 147.759 128.04 137.929 132.69 128.899L144.78 135.899C140.12 144.899 137.31 154.779 137.31 163.759C137.3 173.559 140.67 180.529 146.14 183.929Z" fill="#37474F"/>
<path d="M191.212 158.401C203.544 137.041 203.546 113.953 191.215 106.834C178.885 99.7155 158.892 111.261 146.559 132.621C134.227 153.982 134.225 177.069 146.555 184.188C158.886 191.307 178.879 179.762 191.212 158.401Z" fill="#407BFF"/>
<path d="M155.27 178.68C145.63 178.68 144.59 167.79 144.59 163.1C144.59 145.96 157.13 124.24 171.97 115.67C175.134 113.678 178.756 112.532 182.49 112.34C192.14 112.34 193.18 123.23 193.18 127.92C193.18 145.06 180.64 166.78 165.79 175.35C162.627 177.344 159.004 178.491 155.27 178.68Z" fill="#FAFAFA"/>
<path d="M161.88 166.09C161.83 166.099 161.78 166.099 161.73 166.09C161.673 166.071 161.621 166.041 161.576 166.001C161.531 165.961 161.494 165.913 161.468 165.859C161.442 165.805 161.427 165.746 161.424 165.686C161.421 165.626 161.43 165.566 161.45 165.51L168.45 145.51C168.465 145.447 168.493 145.388 168.533 145.336C168.572 145.285 168.622 145.242 168.679 145.212C168.736 145.181 168.799 145.162 168.863 145.158C168.928 145.153 168.993 145.162 169.054 145.183C169.114 145.205 169.17 145.24 169.217 145.285C169.263 145.33 169.3 145.384 169.324 145.444C169.348 145.504 169.36 145.569 169.357 145.634C169.355 145.698 169.339 145.762 169.31 145.82L162.31 165.82C162.274 165.903 162.213 165.973 162.137 166.021C162.06 166.07 161.971 166.093 161.88 166.09Z" fill="#407BFF"/>
<path d="M179.37 151.55C179.184 151.552 179 151.514 178.83 151.44L167.51 146.55V126C167.539 125.656 167.697 125.335 167.952 125.101C168.206 124.867 168.539 124.737 168.885 124.737C169.231 124.737 169.564 124.867 169.818 125.101C170.073 125.335 170.231 125.656 170.26 126V144.72L179.92 148.9C180.211 149.024 180.451 149.246 180.597 149.527C180.744 149.807 180.788 150.13 180.723 150.44C180.658 150.75 180.488 151.028 180.241 151.227C179.995 151.426 179.687 151.533 179.37 151.53V151.55Z" fill="#37474F"/>
<path d="M168.88 141.22C170.93 140.04 172.6 141 172.6 143.37C172.528 144.659 172.154 145.912 171.508 147.029C170.861 148.147 169.961 149.096 168.88 149.8C166.88 150.99 165.17 150.02 165.17 147.66C165.24 146.371 165.612 145.116 166.257 143.998C166.901 142.879 167.8 141.927 168.88 141.22Z" fill="#407BFF"/>
<path d="M40.421 234.843C40.2802 234.945 40.1082 235 39.9315 235C39.7547 235 39.5829 234.945 39.442 234.843C39.1331 234.504 38.9754 234.064 39.0031 233.615V184.333C39.0163 183.749 39.1663 183.175 39.442 182.654C39.6483 182.187 39.9874 181.784 40.421 181.491L44.6072 179.166C44.7456 179.059 44.9184 179 45.0967 179C45.275 179 45.4478 179.059 45.5862 179.166C45.7372 179.327 45.8512 179.517 45.921 179.723C45.9908 179.928 46.0147 180.146 45.9913 180.361V229.579C45.9898 230.16 45.8513 230.734 45.5862 231.258C45.4001 231.737 45.0566 232.145 44.6072 232.42L40.421 234.843Z" fill="#455A64"/>
<path d="M73.6488 189.552L83.1802 158.492L83.8681 156.852C84.1647 156.141 84.6813 155.543 85.342 155.147L88.6175 153.179C88.7489 153.064 88.9176 153 89.0924 153C89.2671 153 89.4359 153.064 89.5673 153.179C89.7222 153.345 89.8402 153.542 89.9136 153.756C89.987 153.971 90.0141 154.199 89.9931 154.425V204.409C89.9925 205.004 89.8462 205.59 89.5673 206.115C89.3672 206.589 89.0381 206.999 88.6175 207.295L84.5559 209.624C84.428 209.746 84.2579 209.815 84.081 209.815C83.9041 209.815 83.734 209.746 83.606 209.624C83.4629 209.458 83.3544 209.266 83.2868 209.057C83.2193 208.849 83.1942 208.629 83.213 208.41V178.138L76.6621 199.326C76.4662 199.896 76.2365 200.455 75.9743 200.998C75.7223 201.543 75.3258 202.008 74.8279 202.343L72.2076 203.852C72.0449 203.982 71.8427 204.053 71.6344 204.053C71.426 204.053 71.2239 203.982 71.0612 203.852C70.7767 203.595 70.5337 203.297 70.3406 202.966L63.7898 189.355V219.595C63.785 220.185 63.6508 220.767 63.3967 221.3C63.1966 221.775 62.8675 222.184 62.4468 222.481L58.3853 224.809C58.2573 224.932 58.0873 225 57.9104 225C57.7335 225 57.5634 224.932 57.4354 224.809C57.2769 224.646 57.1565 224.45 57.0829 224.234C57.0093 224.019 56.9842 223.789 57.0096 223.563V173.514C57.0142 172.919 57.1602 172.335 57.4354 171.808C57.6135 171.329 57.9483 170.924 58.3853 170.66L61.6607 168.692C62.3158 168.299 62.8071 168.299 63.1346 168.692L63.8225 169.545L73.6488 189.552Z" fill="#455A64"/>
<path d="M120.58 180.137C120.721 180.031 120.897 179.974 121.079 179.974C121.261 179.974 121.437 180.031 121.578 180.137C121.732 180.296 121.848 180.483 121.919 180.686C121.991 180.889 122.015 181.104 121.991 181.316V186.666C121.982 187.239 121.841 187.804 121.578 188.322C121.378 188.781 121.029 189.17 120.58 189.437L97.4179 201.826C97.2798 201.938 97.1025 202 96.9189 202C96.7353 202 96.5579 201.938 96.4198 201.826C96.2684 201.66 96.1539 201.467 96.083 201.259C96.0122 201.052 95.9863 200.833 96.0068 200.616V152.111C96.0084 151.537 96.1496 150.971 96.4198 150.455C96.6301 149.994 96.9758 149.596 97.4179 149.308L120.167 137.174C120.305 137.062 120.483 137 120.666 137C120.85 137 121.027 137.062 121.165 137.174C121.318 137.339 121.434 137.532 121.505 137.74C121.576 137.948 121.601 138.167 121.578 138.384V143.703C121.577 144.276 121.435 144.842 121.165 145.359C120.955 145.82 120.609 146.217 120.167 146.505L103.131 155.614V167.557L118.997 159.054C119.138 158.948 119.314 158.89 119.496 158.89C119.678 158.89 119.854 158.948 119.995 159.054C120.149 159.213 120.265 159.399 120.336 159.602C120.407 159.805 120.432 160.02 120.408 160.232V165.837C120.399 166.41 120.258 166.975 119.995 167.494C119.795 167.952 119.446 168.341 118.997 168.608L103.131 177.112V189.565L120.58 180.137Z" fill="#455A64"/>
<path d="M232.607 85.1852C232.739 85.0658 232.909 85 233.085 85C233.261 85 233.431 85.0658 233.564 85.1852C233.72 85.3568 233.839 85.5605 233.913 85.7829C233.987 86.0052 234.014 86.2411 233.993 86.4751V119.302C233.995 122.494 233.685 125.679 233.069 128.807C232.501 131.753 231.58 134.615 230.329 137.328C229.163 139.934 227.628 142.348 225.773 144.491C223.959 146.59 221.83 148.378 219.468 149.787C217.558 151.06 215.367 151.819 213.096 151.993C212.265 152.033 211.435 151.897 210.657 151.593C209.879 151.29 209.17 150.825 208.574 150.228C207.226 148.757 206.291 146.939 205.867 144.966C205.234 142.197 204.946 139.357 205.008 136.513V103.754C205.013 103.143 205.148 102.541 205.404 101.989C205.606 101.498 205.938 101.074 206.362 100.767L210.455 98.3566C210.584 98.2301 210.756 98.1594 210.934 98.1594C211.112 98.1594 211.284 98.2301 211.413 98.3566C211.557 98.5282 211.666 98.7277 211.734 98.9434C211.803 99.1592 211.828 99.3868 211.809 99.6127V132.066C211.766 133.838 211.955 135.608 212.37 137.328C212.593 138.436 213.147 139.445 213.955 140.213C214.286 140.498 214.671 140.709 215.086 140.831C215.501 140.954 215.937 140.987 216.365 140.926C217.468 140.776 218.526 140.382 219.468 139.772C220.611 139.087 221.655 138.242 222.571 137.26C223.566 136.189 224.39 134.963 225.014 133.628C225.745 132.12 226.289 130.523 226.631 128.875C227.017 126.92 227.205 124.929 227.193 122.934V90.5149C227.189 89.8987 227.337 89.2916 227.622 88.7496C227.792 88.2398 228.131 87.8074 228.579 87.5275L232.607 85.1852Z" fill="#455A64"/>
<path d="M272.551 66.1627C272.694 66.0571 272.87 66 273.05 66C273.23 66 273.406 66.0571 273.549 66.1627C273.864 66.5122 274.025 66.9678 273.997 67.4312V73.0724C273.975 73.6749 273.822 74.2663 273.549 74.8081C273.349 75.2883 273 75.6965 272.551 75.9764L263.049 81.3172V124.477C263.047 125.078 262.906 125.672 262.635 126.213C262.436 126.702 262.087 127.121 261.637 127.415L257.368 129.818C257.23 129.935 257.052 130 256.869 130C256.685 130 256.508 129.935 256.369 129.818C256.207 129.649 256.083 129.449 256.005 129.23C255.928 129.012 255.9 128.78 255.922 128.549V85.3227L246.454 90.6301C246.31 90.7499 246.127 90.8158 245.938 90.8158C245.748 90.8158 245.565 90.7499 245.421 90.6301C245.268 90.4564 245.152 90.2545 245.081 90.0366C245.011 89.8187 244.986 89.5892 245.008 89.3617V83.7873C245.01 83.186 245.151 82.5927 245.421 82.0515C245.643 81.565 246 81.1487 246.454 80.8498L272.551 66.1627Z" fill="#455A64"/>
<path d="M31.6811 188.155C31.8147 188.054 31.9777 188 32.1453 188C32.3129 188 32.4759 188.054 32.6095 188.155C32.7503 188.322 32.8568 188.514 32.9227 188.722C32.9886 188.929 33.0128 189.148 32.9937 189.364V194.742C32.985 195.314 32.854 195.878 32.6095 196.397C32.4234 196.854 32.099 197.243 31.6811 197.51L22.8458 202.602V243.745C22.8444 244.318 22.713 244.884 22.4617 245.4C22.2852 245.871 21.9594 246.273 21.5333 246.545L17.5318 248.836C17.4006 248.942 17.2367 249 17.0676 249C16.8986 249 16.7347 248.942 16.6034 248.836C16.4626 248.67 16.3561 248.477 16.2902 248.27C16.2243 248.062 16.2002 247.844 16.2193 247.627V206.42L7.31995 211.479C7.19489 211.598 7.02864 211.664 6.85576 211.664C6.68288 211.664 6.51667 211.598 6.39162 211.479C6.24922 211.314 6.14177 211.121 6.07578 210.914C6.00978 210.706 5.98654 210.487 6.00744 210.27V204.956C6.01212 204.383 6.14329 203.819 6.39162 203.302C6.58719 202.841 6.9088 202.444 7.31995 202.156L31.6811 188.155Z" fill="#455A64"/>
<path d="M314.878 364.302C314.788 356.122 311.758 304.162 310.678 292.212C308.848 272.132 309.048 217.882 313.088 200.602L367.088 204.882C370.948 214.602 373.768 226.582 373.088 245.352C372.588 259.672 372.818 298.522 372.818 298.522C375.006 304.605 376.819 310.817 378.248 317.122C380.668 327.622 383.108 359.432 384.178 369.872V371.272C384.684 371.899 385.027 372.64 385.178 373.432C385.178 374.262 385.068 375.102 385.098 375.932C385.277 377.887 384.775 379.843 383.678 381.472C382.912 382.698 381.849 383.712 380.588 384.422C379.958 384.773 379.26 384.986 378.541 385.046C377.822 385.106 377.099 385.013 376.418 384.772C372.578 383.262 373.138 377.122 371.858 373.922L371.258 372.372C371.258 372.372 354.558 321.652 350.508 309.102C347.088 298.532 342.508 264.162 338.878 245.102L332.478 290.532C334.065 295.268 335.223 300.138 335.938 305.082C337.438 319.082 332.068 346.002 330.248 357.742C329.984 359.458 329.893 361.197 329.978 362.932C329.978 363.432 331.478 368.272 325.288 368.752C319.098 369.232 314.888 365.022 314.878 364.302Z" fill="#FFA8A7"/>
<path d="M361.189 188.581C361.189 188.581 368.049 201.581 371.059 214.201C374.069 226.821 373.919 235.121 373.799 257.131C373.679 279.141 373.359 298.261 373.359 298.261C374.774 300.479 375.894 302.873 376.689 305.381C378.559 311.191 380.209 317.651 380.969 334.631C380.969 334.631 371.729 342.071 360.299 339.121C360.299 339.121 351.979 315.561 349.529 308.001C346.359 298.221 338.899 245.141 338.899 245.141L333.719 290.651C333.719 290.651 337.629 301.531 337.119 309.221C336.609 316.911 334.889 329.081 334.889 329.081C334.889 329.081 323.979 332.761 312.889 327.631C312.889 327.631 309.889 291.801 309.389 278.831C308.889 265.861 307.329 220.081 313.689 191.401L361.189 188.581Z" fill="#263238"/>
<path opacity="0.3" d="M338.928 245.261L333.809 225.201C333.809 225.201 323.958 226.341 316.208 220.611C316.208 220.611 317.799 227.941 331.529 230.141L337.388 249.831L337.298 259.231L338.928 245.261Z" fill="black"/>
<path d="M357.918 399.161C357.518 399.581 357.758 402.651 358.268 403.351C358.778 404.051 361.578 406.351 366.748 406.461C371.688 406.551 376.048 405.651 378.838 403.661C381.628 401.671 382.918 399.571 383.048 396.751C383.178 393.931 382.708 391.241 383.928 389.011C385.058 386.951 386.598 384.921 386.928 383.821C387.738 381.421 386.928 377.821 386.928 377.821L357.918 399.161Z" fill="#263238"/>
<path d="M369.898 375.381C369.887 376.445 369.743 377.504 369.468 378.531C368.832 380.741 367.932 382.867 366.788 384.861C366.222 385.902 365.587 386.905 364.888 387.861C363.498 389.711 361.728 391.261 360.238 393.051C358.647 394.744 357.689 396.934 357.528 399.251C357.528 403.131 361.788 404.251 365.038 404.611C368.563 405.038 372.138 404.666 375.498 403.521C377.265 402.959 378.832 401.898 380.01 400.467C381.188 399.035 381.927 397.293 382.138 395.451C382.258 394.371 382.138 393.281 382.208 392.191C382.506 389.703 383.413 387.326 384.848 385.271C385.683 384.084 386.387 382.81 386.948 381.471C387.828 379.031 386.878 376.391 386.108 374.041C385.438 372.041 384.908 369.571 384.198 369.801C384.198 370.221 384.198 371.131 384.198 371.131C383.978 371.591 383.468 371.921 383.348 372.451C383.227 373.004 383.06 373.546 382.848 374.071C382.528 374.889 381.962 375.588 381.228 376.071C381.108 374.611 380.978 373.161 380.848 371.711C380.864 371.255 380.723 370.807 380.448 370.441C380.092 370.15 379.649 369.984 379.188 369.971C376.45 369.473 373.651 369.392 370.888 369.731C370.68 369.742 370.476 369.796 370.289 369.891C370.103 369.986 369.939 370.119 369.808 370.281C369.657 370.592 369.611 370.943 369.678 371.281C369.83 372.643 369.903 374.012 369.898 375.381Z" fill="#455A64"/>
<path d="M366.308 385.702C367.688 384.552 370.908 384.362 372.678 384.452C374.476 384.513 376.23 385.025 377.778 385.942C378.006 386.091 378.281 386.153 378.551 386.117C378.821 386.08 379.069 385.947 379.248 385.742C379.355 385.627 379.436 385.491 379.485 385.342C379.533 385.193 379.548 385.035 379.529 384.88C379.51 384.725 379.457 384.575 379.374 384.442C379.291 384.31 379.18 384.197 379.048 384.112C377.341 382.989 375.351 382.372 373.308 382.332C368.958 382.252 367.718 383.062 367.718 383.062C367.718 383.062 365.818 384.442 366.308 385.702Z" fill="#F0F0F0"/>
<path d="M363.218 389.832C364.968 388.672 368.518 388.632 370.288 388.732C372.066 388.804 373.792 389.35 375.288 390.312C375.516 390.459 375.789 390.52 376.058 390.485C376.327 390.45 376.575 390.322 376.758 390.122C376.865 390.007 376.946 389.869 376.995 389.72C377.043 389.57 377.059 389.412 377.04 389.255C377.021 389.099 376.968 388.949 376.885 388.815C376.801 388.682 376.69 388.568 376.558 388.482C374.817 387.3 372.781 386.628 370.678 386.542C366.328 386.472 365.248 387.412 365.248 387.412C364.748 387.634 364.305 387.967 363.953 388.387C363.601 388.806 363.35 389.3 363.218 389.832Z" fill="#F0F0F0"/>
<path d="M374.809 378.081C372.968 377.866 371.102 378.125 369.389 378.831C368.639 379.301 368.209 380.541 368.709 380.831C370.207 380.129 371.856 379.809 373.509 379.901C375.14 379.963 376.75 380.301 378.269 380.901C378.649 381.041 379.099 381.251 379.489 381.441C379.613 381.507 379.75 381.546 379.891 381.556C380.032 381.565 380.173 381.544 380.305 381.495C380.437 381.446 380.558 381.37 380.658 381.271C380.759 381.172 380.837 381.053 380.889 380.921C380.972 380.699 380.974 380.454 380.893 380.23C380.812 380.007 380.655 379.819 380.449 379.701C378.704 378.769 376.782 378.217 374.809 378.081Z" fill="#F0F0F0"/>
<path d="M290.339 384.891C290.035 386.004 290.163 387.19 290.699 388.211C291.219 389.161 296.459 391.751 303.289 390.921C308.356 390.293 313.163 388.317 317.209 385.201C319.739 383.331 322.439 382.861 325.829 382.481C329.219 382.101 331.769 380.921 332.429 379.301C333.089 377.681 332.079 374.981 332.079 374.981L290.339 384.891Z" fill="#263238"/>
<path d="M316.968 363.161C316.349 363.028 315.738 362.858 315.138 362.651C314.823 362.512 314.468 362.491 314.138 362.591C313.708 362.771 313.568 363.301 313.478 363.761C313.369 364.776 313.172 365.78 312.888 366.761C312.42 367.578 311.803 368.301 311.068 368.891C309.438 370.347 307.662 371.63 305.768 372.721C303.598 374.051 301.448 375.101 299.188 376.261C296.928 377.421 293.788 378.261 292.008 379.611C289.418 381.611 289.318 386.151 292.478 387.781C295.208 389.201 302.258 390.501 309.478 388.041C313.398 386.701 317.578 382.211 322.778 381.531C326.088 381.091 330.498 380.531 332.498 377.931C333.228 376.771 332.598 373.531 331.998 369.691C331.468 366.261 330.998 360.881 329.928 361.231V362.231C329.668 362.671 328.818 363.471 328.498 363.871C328.208 364.181 327.897 364.472 327.568 364.741C327.202 365.166 326.811 365.57 326.398 365.951C325.862 366.412 325.193 366.692 324.488 366.751C324.142 366.776 323.795 366.704 323.488 366.541C322.918 366.211 322.848 365.471 322.388 365.011C321.858 364.492 321.229 364.084 320.538 363.811C319.572 363.467 318.562 363.261 317.538 363.201C317.348 363.2 317.157 363.186 316.968 363.161Z" fill="#455A64"/>
<path d="M308.758 370.771C308.97 370.301 309.297 369.892 309.71 369.582C310.123 369.273 310.607 369.073 311.118 369.001C312.618 368.631 315.338 369.601 317.118 370.881C317.282 371.002 317.413 371.16 317.502 371.343C317.59 371.526 317.633 371.727 317.626 371.93C317.619 372.133 317.563 372.331 317.462 372.507C317.361 372.683 317.219 372.832 317.048 372.941C316.829 373.075 316.575 373.138 316.319 373.122C316.063 373.106 315.819 373.011 315.618 372.851C313.691 371.289 311.229 370.542 308.758 370.771Z" fill="#F0F0F0"/>
<path d="M304.218 373.641C304.521 373.159 304.935 372.757 305.426 372.47C305.917 372.183 306.47 372.018 307.038 371.991C307.038 371.991 311.038 371.891 313.558 373.991C313.717 374.108 313.846 374.261 313.932 374.439C314.018 374.616 314.06 374.812 314.053 375.01C314.046 375.207 313.991 375.399 313.892 375.57C313.794 375.741 313.655 375.886 313.488 375.991C313.28 376.121 313.036 376.183 312.791 376.168C312.545 376.154 312.31 376.064 312.118 375.911C311.056 374.964 309.795 374.268 308.427 373.875C307.06 373.482 305.621 373.402 304.218 373.641Z" fill="#F0F0F0"/>
<path d="M299.168 376.281C299.529 375.827 299.984 375.457 300.502 375.196C301.02 374.936 301.589 374.791 302.168 374.771C304.416 374.788 306.601 375.516 308.408 376.851C308.568 376.967 308.697 377.12 308.784 377.297C308.871 377.475 308.914 377.67 308.908 377.867C308.902 378.065 308.848 378.257 308.75 378.429C308.653 378.6 308.515 378.745 308.348 378.851C308.14 378.981 307.896 379.043 307.651 379.029C307.405 379.015 307.171 378.925 306.978 378.771C305.964 377.772 304.728 377.025 303.371 376.593C302.014 376.16 300.574 376.053 299.168 376.281Z" fill="#F0F0F0"/>
<path d="M317.978 129.302C321.918 126.432 324.568 126.182 328.468 126.582L323.848 155.691C323.848 155.691 307.149 171.932 302.589 176.462L288.938 165.792C288.938 165.792 314.018 132.172 317.978 129.302Z" fill="#FFA8A7"/>
<path d="M313.999 183.082C314.565 177.552 314.628 171.983 314.189 166.442C306.189 158.362 307.859 149.122 311.499 143.232C318.979 131.122 328.499 126.602 328.499 126.602L340.979 126.222C342.749 126.422 358.099 128.642 360.059 129.152C360.059 129.152 365.339 133.632 366.779 138.772C367.589 141.692 367.779 144.622 365.169 154.152L358.639 170.702C358.639 170.702 356.749 175.702 357.709 179.142C358.709 182.792 363.969 191.282 366.709 199.682C366.709 199.682 354.849 210.292 333.099 207.832C314.509 205.732 311.799 199.472 311.799 199.472C311.799 199.472 313.779 186.462 313.999 183.082Z" fill="#407BFF"/>
<path opacity="0.1" d="M348.998 163.082C347.731 165.315 345.844 167.134 343.566 168.32C341.288 169.505 338.715 170.006 336.158 169.762C333.687 169.616 331.298 168.817 329.235 167.447C327.173 166.077 325.511 164.184 324.418 161.962C324.418 161.962 324.508 171.782 336.088 172.112C347.668 172.442 348.998 163.082 348.998 163.082Z" fill="black"/>
<path d="M453.388 163.591C453.371 161.877 453.032 160.18 452.388 158.591C452.103 157.761 451.508 157.074 450.728 156.671C450.428 156.582 450.109 156.573 449.804 156.645C449.499 156.717 449.218 156.867 448.988 157.081C447.398 158.491 444.858 161.081 443.188 162.421C441.66 163.759 439.906 164.816 438.008 165.541C437.578 165.191 438.138 164.641 438.398 164.281C439.048 163.371 439.688 162.821 440.398 161.831C441.108 160.841 441.928 159.931 441.558 158.601C441.519 158.426 441.433 158.265 441.31 158.135C441.187 158.005 441.031 157.91 440.858 157.861C440.561 157.826 440.261 157.905 440.018 158.081C437.731 159.221 435.586 160.627 433.628 162.271C431.468 164.081 430.198 167.071 426.488 168.531C422.778 169.991 418.798 170.361 411.928 171.261C406.598 171.961 400.578 172.461 394.648 172.971C391.188 168.091 378.308 149.581 373.078 141.641C369.078 135.521 365.808 130.081 360.018 129.161C355.018 130.591 353.018 144.021 356.188 152.461C356.188 152.461 359.238 157.891 366.638 166.551C370.168 170.681 378.438 181.261 383.888 186.991C386.488 189.731 387.638 190.391 398.888 188.611C405.088 187.611 427.108 181.891 431.298 180.611C434.158 179.855 436.967 178.92 439.708 177.811C442.438 176.691 448.338 173.521 450.568 170.811C451.518 169.739 452.252 168.492 452.728 167.141C453.153 166.005 453.376 164.804 453.388 163.591Z" fill="#FFA8A7"/>
<path d="M359.919 82.8514C363.489 87.3914 364.229 93.3414 363.419 99.2314C362.059 109.131 356.119 116.871 348.999 120.231C344.729 122.231 339.179 123.101 336.279 120.641C331.779 116.821 327.219 113.071 322.369 109.721C318.749 107.211 314.789 104.721 312.899 100.721C311.279 97.2914 311.269 91.4014 314.489 88.8214C311.329 86.6814 309.959 83.0214 309.379 80.9114C308.719 78.4714 309.379 76.9114 310.379 76.0414C311.379 75.1714 314.169 75.0414 315.379 74.9214C320.039 74.3514 323.379 73.1114 327.929 71.8614C330.639 71.0814 338.369 70.1714 343.439 71.0814C347.439 71.8014 352.059 73.3414 354.099 78.9114C356.444 79.4954 358.506 80.8914 359.919 82.8514Z" fill="#263238"/>
<path d="M323.348 80.5215C320.398 82.0715 316.478 89.0915 316.048 104.231C315.638 117.081 319.638 120.441 321.708 121.461C323.778 122.481 327.798 122.141 331.708 121.691L332.118 128.691C332.118 128.691 319.178 139.351 332.338 139.471C340.108 139.541 349.268 128.821 349.268 128.821L349.998 112.631C350.868 113.103 351.864 113.287 352.845 113.157C353.826 113.028 354.74 112.592 355.458 111.911C358.628 109.031 359.378 104.611 356.998 101.911C354.618 99.2115 350.418 99.5815 348.588 103.461C348.588 103.461 346.418 104.811 344.348 100.461C340.475 99.8877 336.778 98.4562 333.528 96.2715C325.638 91.0815 323.928 83.1315 323.348 80.5215Z" fill="#FFA8A7"/>
<path d="M332.379 100.271C332.361 100.586 332.436 100.9 332.594 101.172C332.753 101.445 332.988 101.665 333.27 101.805C333.553 101.946 333.87 102 334.183 101.961C334.496 101.922 334.791 101.793 335.031 101.588C335.271 101.383 335.445 101.113 335.533 100.81C335.62 100.507 335.617 100.185 335.523 99.8835C335.429 99.5824 335.249 99.3155 335.004 99.1161C334.76 98.9166 334.462 98.7933 334.149 98.7614C333.933 98.7436 333.716 98.7687 333.51 98.835C333.305 98.9014 333.114 99.0078 332.949 99.1482C332.785 99.2885 332.65 99.46 332.552 99.6528C332.454 99.8456 332.395 100.056 332.379 100.271Z" fill="#263238"/>
<path d="M328.498 112.311C328.471 112.525 328.486 112.742 328.543 112.95C328.6 113.158 328.698 113.352 328.831 113.522C328.964 113.691 329.13 113.833 329.318 113.937C329.507 114.042 329.714 114.108 329.929 114.131C330.261 114.18 330.6 114.128 330.903 113.981C331.205 113.835 331.457 113.602 331.625 113.311C331.793 113.02 331.871 112.686 331.847 112.351C331.823 112.016 331.7 111.695 331.492 111.431C331.285 111.167 331.003 110.971 330.683 110.869C330.363 110.767 330.019 110.763 329.697 110.857C329.375 110.952 329.088 111.141 328.875 111.4C328.661 111.66 328.53 111.977 328.498 112.311Z" fill="#B16668"/>
<path d="M321.449 91.8213L318.039 93.8713C318.162 94.0996 318.331 94.3005 318.534 94.4618C318.738 94.6231 318.972 94.7414 319.222 94.8097C319.473 94.8779 319.735 94.8946 319.992 94.8588C320.249 94.823 320.496 94.7354 320.719 94.6013C321.171 94.3175 321.498 93.8722 321.634 93.3557C321.769 92.8393 321.703 92.2906 321.449 91.8213Z" fill="#263238"/>
<path d="M335.358 95.0818L338.988 96.6918C339.105 96.4614 339.174 96.2095 339.191 95.9515C339.207 95.6935 339.17 95.4349 339.083 95.1915C338.996 94.9482 338.861 94.7251 338.684 94.536C338.508 94.3469 338.295 94.1958 338.058 94.0918C337.567 93.8799 337.013 93.8645 336.511 94.0486C336.009 94.2328 335.596 94.6026 335.358 95.0818Z" fill="#263238"/>
<path d="M318.789 99.561C318.765 99.8762 318.835 100.191 318.989 100.467C319.143 100.743 319.375 100.968 319.656 101.113C319.937 101.257 320.255 101.316 320.569 101.282C320.883 101.248 321.18 101.122 321.424 100.919C321.667 100.717 321.845 100.448 321.936 100.145C322.027 99.8428 322.027 99.5199 321.936 99.2173C321.845 98.9146 321.666 98.6454 321.423 98.4433C321.18 98.2413 320.883 98.1153 320.569 98.081C320.137 98.0447 319.709 98.1796 319.376 98.4565C319.043 98.7334 318.832 99.1301 318.789 99.561Z" fill="#263238"/>
<path d="M327.069 97.7412L326.169 109.161L320.249 106.981L327.069 97.7412Z" fill="#F28F8F"/>
<path d="M331.738 121.691C335.888 121.361 344.488 119.361 345.988 116.081C345.416 117.929 344.275 119.549 342.728 120.711C340.078 122.711 331.908 124.621 331.908 124.621L331.738 121.691Z" fill="#F28F8F"/>
<path d="M348.778 100.341L348.428 107.081C347.211 107.017 346.07 106.472 345.254 105.566C344.439 104.661 344.016 103.468 344.078 102.251L344.408 96.0312L348.778 100.341Z" fill="#263238"/>
<path d="M334.308 212.772C357.888 212.262 386.928 228.202 399.158 248.372C405.278 258.462 406.028 267.692 402.298 274.462C401.738 275.462 398.388 281.582 397.828 282.602C394.128 289.402 385.928 293.732 374.118 293.992C350.528 294.502 321.498 278.562 309.268 258.392C303.148 248.312 302.398 239.092 306.108 232.322C306.678 231.322 310.048 225.132 310.628 224.092C314.348 217.332 322.528 213.022 334.308 212.772Z" fill="#37474F"/>
<path opacity="0.1" d="M370.988 222.812C382.728 229.262 393.048 238.292 399.158 248.372C405.268 258.452 406.028 267.692 402.298 274.462C401.738 275.462 398.388 281.582 397.828 282.602C394.128 289.402 385.929 293.732 374.118 293.992C362.308 294.252 349.118 290.382 337.438 283.942L370.988 222.812Z" fill="black"/>
<path d="M391.968 238.941C394.674 241.837 397.083 244.996 399.158 248.371C405.278 258.461 406.028 267.691 402.298 274.461C401.738 275.461 398.388 281.581 397.828 282.601C394.128 289.401 385.928 293.731 374.118 293.991C370.155 294.053 366.195 293.718 362.298 292.991L391.968 238.941Z" fill="#263238"/>
<path d="M402.298 274.429C410.323 259.807 396.297 236.686 370.971 222.786C345.645 208.886 318.608 209.47 310.583 224.092C302.558 238.713 316.584 261.835 341.91 275.735C367.236 289.635 394.273 289.05 402.298 274.429Z" fill="#455A64"/>
<path d="M333.938 202.621C334.118 202.311 334.558 202.301 334.938 202.331C336.998 202.491 340.278 203.331 341.828 201.481C341.95 201.349 342.034 201.186 342.071 201.01C342.108 200.834 342.097 200.651 342.038 200.481C341.898 200.217 341.662 200.016 341.378 199.921C339.14 198.686 336.763 197.72 334.298 197.041" fill="#FFA8A7"/>
<g opacity="0.4">
<path d="M349.439 191.632C334.949 197.982 326.819 210.952 317.999 227.012L395.929 269.792C404.749 253.732 411.329 239.912 408.929 224.282C406.529 208.652 401.759 201.052 400.489 195.182C399.219 189.312 400.099 185.852 401.379 183.512C402.659 181.172 405.099 178.512 410.749 176.512C416.399 174.512 425.339 174.352 439.839 168.002C454.339 161.652 462.439 148.672 471.259 132.612L393.319 89.8115C384.509 105.872 377.909 119.712 380.319 135.332C382.729 150.952 387.469 158.552 388.759 164.432C390.049 170.312 389.139 173.752 387.849 176.102C386.559 178.452 384.129 181.042 378.499 183.102C375.429 184.232 371.389 184.762 366.019 186.042C360.332 187.39 354.781 189.262 349.439 191.632Z" fill="#407BFF"/>
</g>
<path d="M395.923 269.762C402.741 257.339 390.823 237.692 369.302 225.881C347.781 214.069 324.808 214.565 317.989 226.989C311.171 239.412 323.089 259.059 344.61 270.87C366.131 282.682 389.104 282.186 395.923 269.762Z" fill="#407BFF"/>
<path d="M471.267 132.482C478.086 120.059 466.167 100.412 444.646 88.6006C423.126 76.789 400.152 77.285 393.333 89.7085C386.515 102.132 398.433 121.778 419.954 133.59C441.475 145.401 464.448 144.905 471.267 132.482Z" fill="#407BFF"/>
<g opacity="0.8">
<path d="M387.438 140.842C388.078 146.662 390.438 150.842 391.818 154.442C392.866 156.964 393.721 159.561 394.378 162.212C395.778 168.712 395.228 174.112 392.688 178.742C390.148 183.372 390.228 184.742 391.518 185.472C392.808 186.202 394.018 185.472 396.518 180.862C399.018 176.252 403.328 172.862 409.568 170.572C412.154 169.707 414.802 169.039 417.488 168.572C422.788 167.482 420.428 165.372 416.838 164.632C406.418 162.472 404.968 159.772 399.468 148.422C398.037 145.506 396.261 142.773 394.178 140.282C391.828 137.742 386.978 136.612 387.438 140.842Z" fill="white"/>
</g>
<g opacity="0.8">
<path d="M390.218 193.322C390.386 192.839 390.412 192.318 390.294 191.821C390.176 191.324 389.918 190.871 389.551 190.516C389.183 190.16 388.722 189.918 388.221 189.816C387.721 189.714 387.201 189.757 386.724 189.941C386.247 190.124 385.833 190.44 385.53 190.851C385.226 191.263 385.047 191.752 385.013 192.262C384.979 192.772 385.091 193.281 385.336 193.729C385.582 194.177 385.95 194.546 386.398 194.792C387.1 195.102 387.896 195.121 388.612 194.846C389.328 194.57 389.905 194.022 390.218 193.322Z" fill="white"/>
</g>
<path opacity="0.8" d="M323.258 228.972C330.258 216.772 337.128 207.032 348.178 202.372C356.908 198.692 369.298 198.722 380.788 205.022C392.278 211.322 398.348 218.882 400.528 231.082C402.628 242.862 397.998 253.931 391.458 266.382C388.868 271.112 382.948 274.002 374.308 273.952C357.038 273.852 335.438 261.952 326.078 247.472C321.398 240.222 320.668 233.662 323.258 228.942V228.972Z" fill="white"/>
<path opacity="0.7" d="M391.443 266.378C397.036 256.186 386.303 239.545 367.469 229.208C348.636 218.871 328.833 218.754 323.24 228.945C317.646 239.137 328.38 255.778 347.213 266.115C366.047 276.452 385.849 276.569 391.443 266.378Z" fill="white"/>
<path d="M415.898 64.1418C439.488 63.6318 468.518 79.5718 480.748 99.7418C486.868 109.822 487.618 119.052 483.898 125.832L479.428 133.972C475.718 140.762 467.518 145.102 455.708 145.362C432.128 145.862 403.088 129.922 390.858 109.752C384.748 99.6818 383.988 90.4618 387.698 83.6918L392.218 75.4618C395.938 68.7018 404.118 64.3918 415.898 64.1418Z" fill="#37474F"/>
<path opacity="0.1" d="M452.578 74.1816C464.318 80.6216 474.638 89.6516 480.748 99.7416C486.858 109.832 487.638 119.082 483.898 125.832L479.428 133.972C475.718 140.762 467.518 145.102 455.708 145.362C443.898 145.622 430.758 141.752 419.028 135.312L452.578 74.1816Z" fill="black"/>
<path d="M473.558 90.3115C476.267 93.2042 478.676 96.3637 480.748 99.7415C486.868 109.822 487.618 119.052 483.898 125.832L479.428 133.972C475.718 140.762 467.518 145.102 455.708 145.362C451.748 145.423 447.792 145.088 443.898 144.362L473.558 90.3115Z" fill="#263238"/>
<path d="M483.879 125.812C491.904 111.19 477.878 88.0687 452.552 74.1685C427.226 60.2683 400.189 60.8531 392.164 75.4746C384.139 90.0961 398.165 113.218 423.491 127.118C448.817 141.018 475.854 140.433 483.879 125.812Z" fill="#455A64"/>
<path d="M288.938 165.791L304.338 173.451C308.128 178.031 310.018 180.551 313.628 184.541C316.983 188.422 320.825 191.854 325.058 194.751C328.368 196.961 331.558 196.301 334.268 197.051L333.938 202.621C333.688 203.051 334.178 203.521 334.608 203.771C338.29 205.902 342.215 207.581 346.298 208.771C347.678 209.181 349.298 209.771 349.588 211.231C349.798 212.411 348.738 213.331 347.898 214.231C344.898 217.361 339.708 218.181 335.618 217.361C332.078 216.651 328.208 214.361 325.158 212.361C321.928 210.201 319.448 207.491 317.038 205.541C313.638 202.791 302.038 193.151 297.378 188.931C294.688 186.491 290.808 182.991 288.938 181.051C284.378 176.311 283.038 173.641 288.938 165.791Z" fill="#FFA8A7"/>
<path d="M297.416 81.762C297.408 81.6215 297.429 81.4809 297.477 81.3486C297.525 81.2163 297.6 81.0951 297.696 80.992C297.787 80.8879 297.899 80.8038 298.025 80.7453C298.15 80.6868 298.287 80.655 298.426 80.652L303.376 80.422C303.654 80.4136 303.925 80.5128 304.131 80.6991C304.338 80.8855 304.465 81.1444 304.486 81.422L304.666 85.422C304.674 85.5612 304.654 85.7008 304.606 85.8317C304.558 85.9625 304.483 86.0819 304.386 86.182C304.295 86.288 304.183 86.3739 304.058 86.4342C303.932 86.4945 303.795 86.5278 303.656 86.532L298.706 86.762C298.423 86.7594 298.152 86.6459 297.952 86.4458C297.752 86.2457 297.638 85.975 297.636 85.692L297.416 81.762ZM296.416 60.332C296.407 60.0538 296.506 59.783 296.693 59.5762C296.879 59.3694 297.138 59.2425 297.416 59.222L302.366 59.002C302.505 58.9931 302.644 59.0134 302.775 59.0617C302.906 59.1099 303.025 59.1849 303.126 59.282C303.232 59.3726 303.317 59.4843 303.378 59.61C303.438 59.7358 303.471 59.8727 303.476 60.012L304.246 76.952C304.254 77.0912 304.234 77.2308 304.186 77.3617C304.138 77.4925 304.063 77.6119 303.966 77.712C303.875 77.818 303.763 77.9039 303.638 77.9642C303.512 78.0245 303.375 78.0578 303.236 78.062L298.236 78.292C298.096 78.301 297.957 78.2807 297.826 78.2324C297.695 78.1842 297.576 78.1091 297.476 78.012C297.37 77.9195 297.285 77.8057 297.227 77.6782C297.168 77.5507 297.137 77.4123 297.136 77.272L296.416 60.332Z" fill="#407BFF"/>
<path d="M287.025 96.6919C286.869 96.4569 286.811 96.1693 286.865 95.8919C286.89 95.7551 286.942 95.6249 287.02 95.5095C287.097 95.3942 287.198 95.2962 287.315 95.2219L291.455 92.4819C291.691 92.3332 291.975 92.2804 292.248 92.3343C292.522 92.3883 292.764 92.5449 292.925 92.7719L295.115 96.0919C295.194 96.2061 295.248 96.3352 295.273 96.4712C295.299 96.6072 295.296 96.7471 295.265 96.8819C295.242 97.0205 295.19 97.1527 295.113 97.2699C295.035 97.3871 294.934 97.4866 294.815 97.5619L290.685 100.302C290.571 100.38 290.442 100.434 290.306 100.46C290.17 100.486 290.03 100.483 289.895 100.452C289.757 100.429 289.625 100.377 289.507 100.299C289.39 100.222 289.291 100.121 289.215 100.002L287.025 96.6919ZM275.175 78.8519C275.097 78.7378 275.043 78.6087 275.018 78.4727C274.992 78.3367 274.994 78.1968 275.025 78.0619C275.048 77.9233 275.1 77.7912 275.178 77.674C275.256 77.5568 275.357 77.4573 275.475 77.3819L279.635 74.6919C279.871 74.5392 280.157 74.485 280.432 74.5411C280.707 74.5973 280.949 74.7592 281.105 74.9919L290.475 89.1319C290.554 89.2461 290.608 89.3752 290.633 89.5112C290.659 89.6472 290.656 89.7871 290.625 89.9219C290.602 90.0605 290.55 90.1927 290.473 90.3099C290.395 90.4271 290.294 90.5266 290.175 90.6019L286.045 93.3419C285.81 93.4947 285.524 93.5489 285.249 93.4927C284.974 93.4366 284.732 93.2747 284.575 93.0419L275.175 78.8519Z" fill="#407BFF"/>
<g opacity="0.6">
<path d="M287.025 96.6919C286.869 96.4569 286.811 96.1693 286.865 95.8919C286.89 95.7551 286.942 95.6249 287.02 95.5095C287.097 95.3942 287.198 95.2962 287.315 95.2219L291.455 92.4819C291.691 92.3332 291.975 92.2804 292.248 92.3343C292.522 92.3883 292.764 92.5449 292.925 92.7719L295.115 96.0919C295.194 96.2061 295.248 96.3352 295.273 96.4712C295.299 96.6072 295.296 96.7471 295.265 96.8819C295.242 97.0205 295.19 97.1527 295.113 97.2699C295.035 97.3871 294.934 97.4866 294.815 97.5619L290.685 100.302C290.571 100.38 290.442 100.434 290.306 100.46C290.17 100.486 290.03 100.483 289.895 100.452C289.757 100.429 289.625 100.377 289.507 100.299C289.39 100.222 289.291 100.121 289.215 100.002L287.025 96.6919ZM275.175 78.8519C275.097 78.7378 275.043 78.6087 275.018 78.4727C274.992 78.3367 274.994 78.1968 275.025 78.0619C275.048 77.9233 275.1 77.7912 275.178 77.674C275.256 77.5568 275.357 77.4573 275.475 77.3819L279.635 74.6919C279.871 74.5392 280.157 74.485 280.432 74.5411C280.707 74.5973 280.949 74.7592 281.105 74.9919L290.475 89.1319C290.554 89.2461 290.608 89.3752 290.633 89.5112C290.659 89.6472 290.656 89.7871 290.625 89.9219C290.602 90.0605 290.55 90.1927 290.473 90.3099C290.395 90.4271 290.294 90.5266 290.175 90.6019L286.045 93.3419C285.81 93.4947 285.524 93.5489 285.249 93.4927C284.974 93.4366 284.732 93.2747 284.575 93.0419L275.175 78.8519Z" fill="white"/>
</g>
</svg>
